<svg width="90" height="134" viewBox="0 0 90 134" fill="none" xmlns="http://www.w3.org/2000/svg">
<g clip-path="url(#clip0)">
<rect width="90" height="134" fill="#69708C"/>
<g filter="url(#filter0_ddddd)">
<mask id="mask0" mask-type="alpha" maskUnits="userSpaceOnUse" x="-18" y="-23" width="126" height="90">
<rect x="-18" y="-22.1509" width="126" height="89.1509" fill="#C4C4C4"/>
</mask>
<g mask="url(#mask0)">
<path d="M-168.11 281.478H147.743L147.743 -34.3752H-168.11L-168.11 281.478Z" fill="#69708C"/>
<path d="M182.485 147.358L182.495 148.807L-186.488 249.334L-186.498 247.892L182.485 147.358Z" fill="#B4B7C5"/>
<path d="M182.446 141.619L182.456 143.074L-186.527 243.601L-186.537 242.153L182.446 141.619Z" fill="#B4B7C5"/>
<path d="M182.406 135.714L182.416 137.163L-186.567 237.69L-186.577 236.248L182.406 135.714Z" fill="#B4B7C5"/>
<path d="M182.368 129.954L182.377 131.41L-186.606 231.93L-186.616 230.488L182.368 129.954Z" fill="#B4B7C5"/>
<path d="M182.328 124.139L182.338 125.595L-186.645 226.115L-186.655 224.673L182.328 124.139Z" fill="#B4B7C5"/>
<path d="M182.29 118.407L182.299 119.855L-186.684 220.383L-186.694 218.941L182.29 118.407Z" fill="#B4B7C5"/>
<path d="M182.251 112.647L182.26 114.096L-186.723 214.616L-186.733 213.181L182.251 112.647Z" fill="#B4B7C5"/>
<path d="M182.212 106.887L182.222 108.343L-186.762 208.863L-186.771 207.421L182.212 106.887Z" fill="#B4B7C5"/>
<path d="M182.172 101.072L182.182 102.521L-186.801 203.048L-186.811 201.606L182.172 101.072Z" fill="#B4B7C5"/>
<path d="M182.134 95.3396L182.144 96.7882L-186.84 197.315L-186.849 195.874L182.134 95.3396Z" fill="#B4B7C5"/>
<path d="M182.094 89.4279L182.104 90.8765L-186.88 191.404L-186.889 189.962L182.094 89.4279Z" fill="#B4B7C5"/>
<path d="M182.055 83.668L182.065 85.1235L-186.918 185.651L-186.928 184.202L182.055 83.668Z" fill="#B4B7C5"/>
<path d="M182.016 77.8529L182.025 79.3085L-186.958 179.829L-186.968 178.387L182.016 77.8529Z" fill="#B4B7C5"/>
<path d="M181.977 72.1206L181.987 73.5692L-186.997 174.096L-187.006 172.655L181.977 72.1206Z" fill="#B4B7C5"/>
<path d="M181.938 66.3746L181.948 67.83L-187.035 168.35L-187.045 166.909L181.938 66.3746Z" fill="#B4B7C5"/>
<path d="M181.899 60.6216L181.909 62.0701L-187.074 162.597L-187.084 161.156L181.899 60.6216Z" fill="#B4B7C5"/>
<path d="M181.86 54.8064L181.87 56.255L-187.113 156.782L-187.123 155.34L181.86 54.8064Z" fill="#B4B7C5"/>
<path d="M181.821 49.0672L181.831 50.5227L-187.152 151.05L-187.162 149.608L181.821 49.0672Z" fill="#B4B7C5"/>
<path d="M181.781 43.1625L181.791 44.6111L-187.192 145.138L-187.202 143.696L181.781 43.1625Z" fill="#B4B7C5"/>
<path d="M181.743 37.4026L181.752 38.8581L-187.231 139.378L-187.241 137.937L181.743 37.4026Z" fill="#B4B7C5"/>
<path d="M181.703 31.5875L181.713 33.043L-187.27 133.563L-187.28 132.122L181.703 31.5875Z" fill="#B4B7C5"/>
<path d="M181.665 25.8552L181.674 27.3038L-187.309 127.831L-187.319 126.389L181.665 25.8552Z" fill="#B4B7C5"/>
<path d="M181.626 20.0883L181.635 21.5439L-187.348 122.064L-187.358 120.622L181.626 20.0883Z" fill="#B4B7C5"/>
<path d="M181.587 14.3354L181.596 15.784L-187.387 116.311L-187.397 114.869L181.587 14.3354Z" fill="#B4B7C5"/>
<path d="M181.547 8.52029L181.557 9.96881L-187.426 110.496L-187.436 109.054L181.547 8.52029Z" fill="#B4B7C5"/>
<path d="M181.509 2.78102L181.519 4.23657L-187.465 104.757L-187.474 103.322L181.509 2.78102Z" fill="#B4B7C5"/>
<path d="M181.469 -3.12374L181.479 -1.67515L-187.505 98.852L-187.514 97.4103L181.469 -3.12374Z" fill="#B4B7C5"/>
<path d="M181.43 -8.88356L181.44 -7.42809L-187.544 93.0922L-187.553 91.6505L181.43 -8.88356Z" fill="#B4B7C5"/>
<path d="M181.391 -14.6987L181.4 -13.2501L-187.583 87.2771L-187.593 85.8354L181.391 -14.6987Z" fill="#B4B7C5"/>
<path d="M54.0824 62.8374C66.6773 62.8738 78.9226 66.9832 88.9897 74.5519C99.0569 82.1206 106.406 92.7426 109.939 104.832L110.199 105.737C119.19 136.579 102.169 169.217 71.3209 178.215L66.7586 179.682L61.1434 151.747L61.9647 149.36C76.8519 145.022 85.5554 129.047 81.2247 114.181L80.958 113.276C79.9271 109.734 78.2085 106.43 75.9004 103.553C73.5923 100.676 70.7399 98.2821 67.5061 96.5078C64.2724 94.7335 60.7208 93.6138 57.0541 93.2127C53.3875 92.8116 49.6778 93.1369 46.1369 94.17L13.597 103.66L5.17424 74.6854L37.7141 65.1957C43.0314 63.6404 48.5423 62.8464 54.0824 62.8374Z" fill="#464C61"/>
<path d="M4.40211 23.124C4.40073 14.7191 6.89188 6.50255 11.5605 -0.486427C16.2292 -7.47541 22.8655 -12.9229 30.6304 -16.14C38.3952 -19.357 46.9397 -20.1991 55.1831 -18.5597C63.4265 -16.9204 70.9987 -12.8732 76.9418 -6.93002C82.885 -0.986877 86.9322 6.58527 88.5715 14.8287C90.2109 23.0722 89.3688 31.6166 86.1518 39.3815C82.9347 47.1463 77.4872 53.7827 70.4982 58.4513C63.5093 63.12 55.2928 65.6111 46.8879 65.6097C35.6205 65.6079 24.8152 61.1311 16.848 53.1639C8.88074 45.1966 4.40398 34.3913 4.40211 23.124Z" fill="#25242F"/>
<path d="M45.2665 3.83592H48.3408C59.6834 3.83592 65.6565 13.6133 63.1718 22.0291C61.0661 29.2586 55.8791 39.6607 55.6826 40.0889L52.3837 37.3234C53.5769 34.7825 56.6512 27.0757 56.6512 22.0291C56.6475 19.8261 55.7707 17.7145 54.213 16.1568C52.6553 14.5991 50.5437 13.7223 48.3408 13.7186H45.2665C43.0635 13.7223 40.9519 14.5991 39.3942 16.1568C37.8365 17.7145 36.9597 19.8261 36.956 22.0291C36.956 27.0195 39.911 34.8106 41.0481 37.3866L37.693 40.0187C37.4965 39.5905 32.4218 29.1533 30.4424 22.0291C28.0911 13.501 33.0886 3.83592 45.2665 3.83592Z" fill="#878DA3"/>
<path d="M32.3024 41.963H42.0798V36.418H32.3024V41.963Z" fill="white"/>
<path d="M51.5273 41.9629H61.3047V36.4179H51.5273V41.9629Z" fill="white"/>
<path d="M38.8441 9.26858C38.8441 8.85211 38.9676 8.44499 39.1989 8.09872C39.4303 7.75244 39.7592 7.48255 40.1439 7.32318C40.5287 7.1638 40.9521 7.1221 41.3605 7.20335C41.769 7.2846 42.1442 7.48515 42.4387 7.77964C42.7332 8.07413 42.9337 8.44932 43.015 8.85778C43.0962 9.26625 43.0545 9.68964 42.8951 10.0744C42.7358 10.4592 42.4659 10.788 42.1196 11.0194C41.7733 11.2508 41.3662 11.3743 40.9497 11.3743C40.3913 11.3743 39.8557 11.1524 39.4608 10.7575C39.0659 10.3626 38.8441 9.82704 38.8441 9.26858Z" fill="white"/>
<path d="M32.7095 16.2455C32.7095 15.9065 32.8101 15.5751 32.9986 15.2933C33.1871 15.0115 33.455 14.792 33.7684 14.6626C34.0817 14.5332 34.4264 14.4997 34.7588 14.5663C35.0912 14.633 35.3964 14.7968 35.6356 15.037C35.8749 15.2772 36.0374 15.583 36.1027 15.9157C36.168 16.2484 36.1331 16.593 36.0024 16.9058C35.8717 17.2186 35.6511 17.4856 35.3685 17.6729C35.0859 17.8602 34.7541 17.9595 34.4151 17.9581C33.9621 17.9563 33.5283 17.775 33.2086 17.454C32.889 17.1331 32.7095 16.6985 32.7095 16.2455Z" fill="white"/>
<path d="M33.0605 24.7734C33.0591 24.5299 33.1301 24.2914 33.2645 24.0883C33.399 23.8853 33.5907 23.7267 33.8155 23.6329C34.0402 23.5391 34.2878 23.5142 34.5267 23.5613C34.7656 23.6085 34.9851 23.7256 35.1573 23.8978C35.3295 24.07 35.4467 24.2895 35.4938 24.5285C35.541 24.7674 35.5161 25.015 35.4223 25.2397C35.3284 25.4644 35.1699 25.6562 34.9668 25.7906C34.7637 25.9251 34.5253 25.9961 34.2818 25.9947C33.9579 25.9947 33.6472 25.866 33.4182 25.637C33.1891 25.408 33.0605 25.0973 33.0605 24.7734Z" fill="white"/>
<path d="M54.77 9.26858C54.77 8.85211 54.6465 8.44499 54.4152 8.09872C54.1838 7.75244 53.8549 7.48255 53.4702 7.32318C53.0854 7.1638 52.662 7.1221 52.2535 7.20335C51.8451 7.2846 51.4699 7.48515 51.1754 7.77964C50.8809 8.07413 50.6804 8.44932 50.5991 8.85778C50.5179 9.26625 50.5596 9.68964 50.7189 10.0744C50.8783 10.4592 51.1482 10.788 51.4945 11.0194C51.8408 11.2508 52.2479 11.3743 52.6643 11.3743C53.2228 11.3743 53.7584 11.1524 54.1533 10.7575C54.5482 10.3626 54.77 9.82704 54.77 9.26858Z" fill="white"/>
<path d="M60.9048 16.2455C60.9048 15.9067 60.8043 15.5756 60.6162 15.294C60.428 15.0123 60.1605 14.7928 59.8476 14.6632C59.5346 14.5336 59.1903 14.4997 58.8581 14.5657C58.5258 14.6318 58.2207 14.7949 57.9812 15.0344C57.7417 15.274 57.5785 15.5791 57.5125 15.9114C57.4464 16.2436 57.4803 16.5879 57.6099 16.9009C57.7395 17.2138 57.959 17.4813 58.2407 17.6695C58.5223 17.8577 58.8534 17.9581 59.1922 17.9581C59.6464 17.9581 60.082 17.7777 60.4032 17.4565C60.7243 17.1353 60.9048 16.6997 60.9048 16.2455Z" fill="white"/>
<path d="M60.5536 24.7734C60.5564 24.5308 60.4872 24.2928 60.3548 24.0895C60.2225 23.8862 60.0328 23.7266 59.8099 23.6309C59.5869 23.5352 59.3406 23.5076 59.102 23.5517C58.8634 23.5959 58.6433 23.7097 58.4693 23.8788C58.2953 24.0479 58.1753 24.2647 58.1244 24.5019C58.0735 24.7392 58.094 24.9861 58.1833 25.2117C58.2726 25.4373 58.4267 25.6314 58.6262 25.7695C58.8257 25.9076 59.0616 25.9835 59.3042 25.9877C59.4664 25.9914 59.6276 25.9628 59.7786 25.9036C59.9296 25.8443 60.0672 25.7556 60.1835 25.6426C60.2999 25.5295 60.3925 25.3944 60.456 25.2452C60.5196 25.096 60.5527 24.9356 60.5536 24.7734Z" fill="white"/>
<path d="M45.4629 51.9579C45.4629 51.5856 45.6108 51.2286 45.8741 50.9653C46.1373 50.702 46.4944 50.5541 46.8667 50.5541C47.239 50.5541 47.5961 50.702 47.8593 50.9653C48.1226 51.2286 48.2705 51.5856 48.2705 51.9579V59.9876C48.2705 60.3599 48.1226 60.717 47.8593 60.9803C47.5961 61.2435 47.239 61.3914 46.8667 61.3914C46.4944 61.3914 46.1373 61.2435 45.8741 60.9803C45.6108 60.717 45.4629 60.3599 45.4629 59.9876V51.9579Z" fill="white"/>
<path d="M66.3234 44.5108C66.1875 44.3799 66.0795 44.2228 66.0057 44.0492C65.9318 43.8755 65.8938 43.6888 65.8938 43.5001C65.8938 43.3114 65.9318 43.1246 66.0057 42.9509C66.0795 42.7773 66.1875 42.6203 66.3234 42.4893C66.4542 42.3546 66.6108 42.2474 66.7838 42.1742C66.9568 42.1011 67.1428 42.0634 67.3306 42.0634C67.5185 42.0634 67.7044 42.1011 67.8774 42.1742C68.0504 42.2474 68.207 42.3546 68.3378 42.4893L74.0162 48.1677C74.151 48.2985 74.2581 48.4551 74.3313 48.6281C74.4044 48.8011 74.4421 48.9871 74.4421 49.1749C74.4421 49.3628 74.4044 49.5487 74.3313 49.7217C74.2581 49.8947 74.151 50.0513 74.0162 50.1821C73.8853 50.3169 73.7288 50.4241 73.5557 50.4972C73.3827 50.5704 73.1968 50.6081 73.009 50.6081C72.8211 50.6081 72.6352 50.5704 72.4622 50.4972C72.2891 50.4241 72.1326 50.3169 72.0017 50.1821L66.3234 44.5108Z" fill="white"/>
<path d="M75.7779 24.4998C75.4056 24.4998 75.0486 24.3519 74.7853 24.0886C74.522 23.8253 74.3741 23.4683 74.3741 23.096C74.3741 22.7236 74.522 22.3666 74.7853 22.1033C75.0486 21.8401 75.4056 21.6922 75.7779 21.6922H83.8076C84.1799 21.6922 84.537 21.8401 84.8003 22.1033C85.0635 22.3666 85.2114 22.7236 85.2114 23.096C85.2114 23.4683 85.0635 23.8253 84.8003 24.0886C84.537 24.3519 84.1799 24.4998 83.8076 24.4998H75.7779Z" fill="white"/>
<path d="M68.3237 3.65348C68.1928 3.78827 68.0362 3.89543 67.8632 3.9686C67.6902 4.04177 67.5043 4.07947 67.3164 4.07947C67.1286 4.07947 66.9426 4.04177 66.7696 3.9686C66.5966 3.89543 66.4401 3.78827 66.3092 3.65348C66.1744 3.52264 66.0673 3.36607 65.9941 3.19306C65.9209 3.02005 65.8832 2.83411 65.8832 2.64627C65.8832 2.45842 65.9209 2.27248 65.9941 2.09947C66.0673 1.92646 66.1744 1.76989 66.3092 1.63905L71.9876 -4.03929C72.1184 -4.17407 72.275 -4.28121 72.448 -4.35438C72.621 -4.42755 72.8069 -4.46525 72.9948 -4.46525C73.1826 -4.46525 73.3686 -4.42755 73.5416 -4.35438C73.7146 -4.28121 73.8712 -4.17407 74.002 -4.03929C74.1368 -3.90845 74.2439 -3.75188 74.3171 -3.57887C74.3903 -3.40585 74.428 -3.21992 74.428 -3.03207C74.428 -2.84422 74.3903 -2.65829 74.3171 -2.48528C74.2439 -2.31227 74.1368 -2.1557 74.002 -2.02485L68.3237 3.65348Z" fill="white"/>
<path d="M27.4734 1.63905C27.6082 1.7699 27.7154 1.92647 27.7885 2.09948C27.8617 2.27249 27.8994 2.45842 27.8994 2.64627C27.8994 2.83412 27.8617 3.02005 27.7885 3.19306C27.7154 3.36607 27.6082 3.52264 27.4734 3.65349C27.3426 3.78827 27.186 3.89543 27.013 3.9686C26.84 4.04177 26.6541 4.07947 26.4662 4.07947C26.2784 4.07947 26.0924 4.04177 25.9194 3.9686C25.7464 3.89543 25.5899 3.78827 25.459 3.65349L19.7807 -2.02484C19.6459 -2.15569 19.5388 -2.31225 19.4656 -2.48527C19.3924 -2.65828 19.3547 -2.84421 19.3547 -3.03206C19.3547 -3.2199 19.3924 -3.40584 19.4656 -3.57885C19.5388 -3.75186 19.6459 -3.90843 19.7807 -4.03928C19.9115 -4.17406 20.0681 -4.2812 20.2411 -4.35437C20.4141 -4.42753 20.6001 -4.46524 20.7879 -4.46524C20.9758 -4.46524 21.1617 -4.42753 21.3347 -4.35437C21.5077 -4.2812 21.6643 -4.17406 21.7951 -4.03928L27.4734 1.63905Z" fill="white"/>
<path d="M18.0049 21.65C18.3772 21.65 18.7343 21.7979 18.9975 22.0612C19.2608 22.3244 19.4087 22.6815 19.4087 23.0538C19.4087 23.4261 19.2608 23.7832 18.9975 24.0464C18.7343 24.3097 18.3772 24.4576 18.0049 24.4576H9.97522C9.60291 24.4576 9.24585 24.3097 8.98259 24.0464C8.71932 23.7832 8.57143 23.4261 8.57143 23.0538C8.57143 22.6815 8.71932 22.3244 8.98259 22.0612C9.24585 21.7979 9.60291 21.65 9.97522 21.65H18.0049Z" fill="white"/>
<path d="M25.459 42.4893C25.5899 42.3545 25.7464 42.2474 25.9195 42.1742C26.0925 42.101 26.2784 42.0633 26.4663 42.0633C26.6541 42.0633 26.84 42.101 27.0131 42.1742C27.1861 42.2474 27.3426 42.3545 27.4735 42.4893C27.6093 42.6203 27.7174 42.7773 27.7912 42.9509C27.865 43.1246 27.9031 43.3113 27.9031 43.5C27.9031 43.6887 27.865 43.8755 27.7912 44.0491C27.7174 44.2228 27.6093 44.3798 27.4735 44.5108L21.8022 50.1821C21.6712 50.318 21.5142 50.426 21.3405 50.4998C21.1669 50.5737 20.9801 50.6117 20.7914 50.6117C20.6027 50.6117 20.416 50.5737 20.2423 50.4998C20.0686 50.426 19.9116 50.318 19.7807 50.1821C19.6459 50.0512 19.5388 49.8947 19.4656 49.7217C19.3924 49.5487 19.3547 49.3627 19.3547 49.1749C19.3547 48.987 19.3924 48.8011 19.4656 48.6281C19.5388 48.4551 19.6459 48.2985 19.7807 48.1677L25.459 42.4893Z" fill="white"/>
<path d="M11.7861 66.6978C7.80459 65.168 3.67357 64.0599 -0.539134 63.3919L-0.539134 88.0495L11.7861 66.6978Z" fill="black"/>
<path d="M28.3718 76.2928C23.3826 72.2416 17.7851 69.0034 11.786 66.6978L1.2576 84.891C7.49198 86.7122 13.1972 90.0053 17.8925 94.4929L28.3718 76.2928Z" fill="#464C61"/>
<path d="M-10.1271 177.092C-20.6647 177.091 -30.9654 173.965 -39.7264 168.109C-48.4875 162.254 -55.3156 153.932 -59.3472 144.196C-63.3789 134.46 -64.433 123.747 -62.3764 113.412C-60.3197 103.077 -55.2446 93.5841 -47.7929 86.1333C-40.3411 78.6826 -30.8474 73.6087 -20.5121 71.5535C-10.1768 69.4982 0.5359 70.5537 10.2713 74.5866C20.0067 78.6195 28.3276 85.4487 34.1819 94.2105C40.0362 102.972 43.1609 113.273 43.1609 123.811C43.1442 137.937 37.5253 151.479 27.5368 161.468C17.5483 171.456 4.0058 177.075 -10.12 177.092H-10.1271ZM-10.1271 184.967C1.97048 184.969 13.7967 181.383 23.856 174.662C33.9154 167.942 41.7559 158.39 46.3861 147.214C51.0162 136.037 52.2281 123.739 49.8683 111.873C47.5085 100.008 41.6831 89.1094 33.1289 80.5552C24.5746 72.0009 13.6758 66.1755 1.81059 63.8158C-10.0546 61.456 -22.353 62.6678 -33.5294 67.298C-44.7058 71.9282 -54.2582 79.7687 -60.9783 89.828C-67.6985 99.8873 -71.2847 111.714 -71.2833 123.811C-71.2833 140.031 -64.84 155.586 -53.371 167.055C-41.902 178.524 -26.3467 184.967 -10.1271 184.967Z" fill="#25242F"/>
<path d="M72.7386 76.1242C72.2739 76.0417 71.8521 75.8008 71.5449 75.4424C71.2377 75.084 71.0642 74.6304 71.0537 74.1585C71.0432 73.6866 71.1965 73.2257 71.4875 72.854C71.7784 72.4824 72.1891 72.223 72.6497 72.1199C73.1103 72.0169 73.5924 72.0765 74.014 72.2887C74.4356 72.5009 74.7707 72.8526 74.9623 73.2839C75.1539 73.7153 75.1903 74.1997 75.0651 74.6548C74.9399 75.1099 74.661 75.5076 74.2758 75.7803L76.7956 75.1135C76.7956 75.0012 76.7956 74.8959 76.8377 74.7906C76.9942 73.9197 77.3209 73.0882 77.799 72.3437C78.2772 71.5991 78.8974 70.9562 79.6243 70.4516C80.3512 69.947 81.1705 69.5907 82.0352 69.403C82.8999 69.2154 83.7932 69.2001 84.6638 69.358C86.3465 69.6434 87.8546 70.5659 88.8752 71.9339L94.364 70.481L74.1424 66.8382C73.9813 67.7382 73.4713 68.5381 72.7233 69.0639C71.9754 69.5897 71.05 69.7988 70.1486 69.6457L68.7518 77.2262L72.893 76.1383L72.7386 76.1242Z" fill="#B4B7C5"/>
<path d="M66.0426 80.1811L66.6463 82.4834L69.131 91.966L68.3659 92.6047L69.7697 94.2612L71.2928 96.0931L77.5537 103.603L77.1256 104.516L79.0768 105.428L81.2317 106.446L90.0896 110.615V111.619H92.2374H94.6238L108.95 111.668L109.069 78.8475H99.6283L101.306 69.5685L69.0187 63.7497L66.4848 77.8579L65.5092 78.1106L66.0426 80.1811ZM70.991 90.4218L69.0327 82.9887C69.9029 82.736 70.6416 82.1566 71.0943 81.3716C71.5469 80.5867 71.6784 79.6571 71.4613 78.7773L91.3249 73.5342L86.9662 77.163C85.8098 76.5468 84.4988 76.2815 83.1939 76.3996C81.889 76.5177 80.6469 77.0141 79.62 77.8278C78.5931 78.6416 77.826 79.7374 77.4128 80.9808C76.9997 82.2242 76.9584 83.5612 77.294 84.8277C77.294 84.933 77.3572 85.0312 77.3923 85.1365L75.3849 86.807L74.311 87.7055L70.991 90.4218ZM85.5694 72.7972L81.358 73.9202C81.4354 73.5247 81.6117 73.1553 81.8704 72.8463C82.1551 72.5257 82.5177 72.2839 82.9232 72.1444C83.1317 72.0719 83.3488 72.0271 83.569 72.0111L83.8006 70.7336L84.4323 70.8459L85.0008 70.9442L84.7692 72.2076C85.0755 72.3439 85.3485 72.5451 85.5694 72.7972ZM80.972 80.9251C81.0886 80.5103 81.3112 80.133 81.6177 79.8302C81.7768 79.6755 81.9563 79.5432 82.1511 79.4371L81.8142 78.1737L82.4389 78.0123L82.9934 77.8649L83.3233 79.1072C83.676 79.0877 84.0287 79.1477 84.3551 79.2827L80.9579 82.0903C80.8688 81.7064 80.8736 81.3067 80.972 80.9251ZM80.972 96.2897L80.3613 97.5812L78.5364 101.463L73.6231 95.5527C74.311 94.953 74.7382 94.109 74.8142 93.1996C74.8902 92.2902 74.609 91.387 74.0302 90.6815L89.8229 77.528L87.3803 82.6588C86.0722 82.5897 84.7723 82.9038 83.6401 83.5625C82.5079 84.2212 81.5924 85.196 81.006 86.3673C80.4196 87.5386 80.1877 88.8556 80.3388 90.1568C80.4898 91.458 81.0172 92.6868 81.8563 93.6926C81.9265 93.7769 82.0038 93.8541 82.0739 93.9313L80.972 96.2897ZM83.583 88.6179C83.5121 88.1907 83.5557 87.7524 83.7094 87.3475C83.7869 87.1409 83.8907 86.9451 84.0182 86.7649L83.1689 85.7682L83.6672 85.3541L84.1094 84.9891L84.9307 85.9718C85.2423 85.8046 85.588 85.7109 85.9414 85.6981L84.0603 89.6988C83.8227 89.381 83.6661 89.01 83.6041 88.6179H83.583ZM90.1177 95.2508C89.7579 95.0701 89.4491 94.8023 89.2192 94.4718C88.9756 94.1157 88.8303 93.7017 88.7981 93.2715C88.7664 93.0527 88.7664 92.8305 88.7981 92.6117L87.6189 92.0572L87.8927 91.4746L88.1383 90.9552L89.2964 91.5027C89.5155 91.2297 89.7908 91.007 90.1036 90.85L90.1177 95.2508ZM90.1177 87.4668C88.904 87.9586 87.8598 88.7934 87.113 89.8692C86.3662 90.945 85.9491 92.215 85.9126 93.5241C85.8761 94.8331 86.2219 96.1245 86.9076 97.2401C87.5933 98.3558 88.5893 99.2475 89.7737 99.8062L90.0755 99.9255V103.94V108.222L83.1198 104.951C83.4826 104.12 83.5099 103.181 83.1959 102.331C82.8819 101.48 82.2509 100.784 81.4352 100.389L90.1879 81.7955L90.1177 87.4668ZM103.454 80.9953C103.472 81.9043 103.842 82.7707 104.486 83.4122C105.13 84.0537 105.998 84.4203 106.907 84.4346L106.823 106.06C105.918 106.083 105.056 106.456 104.419 107.099C103.782 107.743 103.419 108.608 103.405 109.513H95.6837C95.6674 108.602 95.2971 107.733 94.6513 107.09C94.0055 106.446 93.1347 106.08 92.2234 106.067L92.2935 84.4346C93.2171 84.4347 94.1034 84.0707 94.7603 83.4217C95.4173 82.7726 95.7919 81.8907 95.803 80.9673L103.454 80.9953ZM68.752 77.2262L70.1136 69.6597C71.015 69.8128 71.9404 69.6037 72.6884 69.0779C73.4363 68.5521 73.9464 67.7521 74.1074 66.8521L94.329 70.4809L88.8402 71.9339C87.8197 70.5659 86.3115 69.6434 84.6288 69.3579C82.8779 69.0534 81.0776 69.4536 79.6206 70.4714C78.1637 71.4891 77.1684 73.0418 76.8518 74.7906C76.8518 74.8959 76.8518 75.0011 76.8097 75.1134L74.2899 75.7803L72.9353 76.1382L68.7941 77.2262H68.752Z" fill="#464C61"/>
<path d="M100.506 87.7125V83.9995C98.3037 83.9361 96.2133 83.0168 94.6782 81.4369C93.1432 79.857 92.2845 77.741 92.2845 75.5381C92.2845 73.3353 93.1432 71.2193 94.6782 69.6394C96.2133 68.0595 98.3037 67.1402 100.506 67.0768V63.3637C97.3274 63.4401 94.305 64.7562 92.0841 67.031C89.8633 69.3059 88.6201 72.359 88.6201 75.5381C88.6201 78.7173 89.8633 81.7704 92.0841 84.0452C94.305 86.32 97.3274 87.6362 100.506 87.7125Z" fill="#F0F0F0"/>
<path d="M65.1021 68.5298L54.9526 58.3804L58.3358 68.5298H65.1021Z" fill="#B4B7C5"/>
<path d="M58.3357 68.5298L54.9525 58.3804L51.5764 68.5298H58.3357Z" fill="#B4B7C5"/>
<path d="M51.5765 68.5298L54.9526 58.3804L44.8032 68.5298H51.5765Z" fill="#464C61"/>
<path d="M83.2599 49.5013C83.3297 49.4308 83.4128 49.3749 83.5044 49.3368C83.596 49.2986 83.6942 49.2789 83.7934 49.2789C83.8926 49.2789 83.9908 49.2986 84.0823 49.3368C84.1739 49.3749 84.257 49.4308 84.3268 49.5013C84.4678 49.6444 84.5469 49.8373 84.5469 50.0383C84.5469 50.2392 84.4678 50.4321 84.3268 50.5752L81.3227 53.5793C81.1796 53.7203 80.9867 53.7994 80.7857 53.7994C80.5848 53.7994 80.3919 53.7203 80.2488 53.5793C80.1783 53.5095 80.1224 53.4264 80.0842 53.3348C80.0461 53.2433 80.0264 53.1451 80.0264 53.0459C80.0264 52.9467 80.0461 52.8485 80.0842 52.7569C80.1224 52.6653 80.1783 52.5823 80.2488 52.5124L83.2599 49.5013Z" fill="white"/>
<path d="M89.8159 39.7028H95.5855C92.8481 35.8494 90.7283 32.0241 90.7283 29.0059C90.7283 19.5444 98.1053 14.8627 107.419 14.5118C104.647 11.1918 99.9232 9.59851 94.5537 9.59851C86.0186 9.59851 79.112 13.6414 79.112 22.1765C79.105 27.0406 85.4922 34.3403 89.8159 39.7028Z" fill="#F0F0F0"/>
<path d="M84.1865 45.3812L83.8286 45.7391C84.1682 45.7565 84.5004 45.8448 84.8038 45.9983C85.1072 46.1518 85.3752 46.3672 85.5903 46.6305C85.8161 46.9286 86.1079 47.1704 86.4428 47.3368C86.7777 47.5032 87.1466 47.5898 87.5205 47.5898C87.8945 47.5898 88.2634 47.5032 88.5983 47.3368C88.9331 47.1704 89.2249 46.9286 89.4507 46.6305C89.6389 46.3786 89.8822 46.173 90.162 46.0295C90.4418 45.8859 90.7507 45.8082 91.0651 45.8023C91.2357 45.7999 91.4057 45.8212 91.5705 45.8655L92.132 46.1322C92.3238 46.2827 92.5044 46.4469 92.6724 46.6235C92.8983 46.9216 93.19 47.1633 93.5249 47.3298C93.8598 47.4962 94.2287 47.5828 94.6027 47.5828C94.9766 47.5828 95.3455 47.4962 95.6804 47.3298C96.0153 47.1633 96.3071 46.9216 96.5329 46.6235C96.7211 46.3716 96.9644 46.166 97.2441 46.0224C97.5239 45.8789 97.8328 45.8012 98.1472 45.7953C98.3201 45.7933 98.4924 45.8146 98.6596 45.8585L99.3054 46.1954C99.4598 46.3217 99.6072 46.4691 99.7546 46.6165C99.9811 46.9147 100.274 47.1564 100.609 47.3228C100.944 47.4892 101.314 47.5758 101.688 47.5758C102.063 47.5758 102.432 47.4892 102.768 47.3228C103.103 47.1564 103.395 46.9147 103.622 46.6165C103.889 46.3205 104.202 46.0692 104.549 45.8725H104.598C104.818 45.7713 105.057 45.7164 105.3 45.7111L105.187 45.5917L104.97 45.3741L99.3124 39.7028H89.8368L84.1865 45.3812Z" fill="#F0F0F0"/>
<path d="M87.5978 39.5134C87.5978 39.1578 87.739 38.8169 87.9904 38.5654C88.2419 38.314 88.5829 38.1728 88.9384 38.1728H100.014C100.37 38.1728 100.711 38.314 100.962 38.5654C101.214 38.8169 101.355 39.1578 101.355 39.5134C101.356 39.6897 101.322 39.8645 101.255 40.0275C101.188 40.1906 101.089 40.3387 100.964 40.4634C100.84 40.5881 100.692 40.6868 100.528 40.7538C100.365 40.8209 100.191 40.8549 100.014 40.854H88.9244C88.7481 40.8549 88.5733 40.8209 88.4102 40.7538C88.2472 40.6868 88.099 40.5881 87.9743 40.4634C87.8497 40.3387 87.751 40.1906 87.6839 40.0275C87.6169 39.8645 87.5828 39.6897 87.5838 39.5134H87.5978Z" fill="#B4B7C5"/>
<path d="M91.4652 -4.14456C91.8777 -3.73007 92.1581 -3.20249 92.2706 -2.62859C92.3832 -2.0547 92.3229 -1.4603 92.0974 -0.920681C91.8719 -0.381064 91.4914 0.0795152 91.004 0.40274C90.5166 0.725966 89.9443 0.897291 89.3595 0.895039V2.18652C90.4857 2.18652 91.5658 1.73913 92.3622 0.942763C93.1586 0.146397 93.606 -0.9337 93.606 -2.05993C93.606 -3.18616 93.1586 -4.26628 92.3622 -5.06265C91.5658 -5.85902 90.4857 -6.30641 89.3595 -6.30641V-5.0079C89.7502 -5.01071 90.1375 -4.93582 90.499 -4.78761C90.8605 -4.63941 91.1889 -4.42082 91.4652 -4.14456Z" fill="#F0F0F0"/>
<path d="M89.3806 2.18652V0.89503C88.9809 0.914527 88.5814 0.852634 88.2063 0.713108C87.8313 0.573582 87.4885 0.359322 87.1987 0.0833335C86.9089 -0.192655 86.6782 -0.52462 86.5206 -0.892441C86.3629 -1.26026 86.2817 -1.65626 86.2817 -2.05644C86.2817 -2.45661 86.3629 -2.85263 86.5206 -3.22045C86.6782 -3.58827 86.9089 -3.92024 87.1987 -4.19623C87.4885 -4.47221 87.8313 -4.68647 88.2063 -4.826C88.5814 -4.96553 88.9809 -5.02742 89.3806 -5.00792V-6.29941C88.2544 -6.29941 87.1743 -5.85201 86.3779 -5.05565C85.5815 -4.25928 85.1341 -3.17918 85.1341 -2.05294C85.1341 -0.926709 85.5815 0.153412 86.3779 0.94978C87.1743 1.74615 88.2544 2.19354 89.3806 2.19354V2.18652Z" fill="#F0F0F0"/>
<path d="M87.2889 0.0176708C87.702 0.431316 88.2285 0.713137 88.8018 0.827465C89.3752 0.941794 89.9695 0.883482 90.5097 0.659937C91.0499 0.436392 91.5116 0.0576443 91.8364 -0.428386C92.1613 -0.914416 92.3347 -1.48588 92.3347 -2.07049C92.3347 -2.65509 92.1613 -3.22656 91.8364 -3.71259C91.5116 -4.19862 91.0499 -4.57737 90.5097 -4.80091C89.9695 -5.02446 89.3752 -5.08275 88.8018 -4.96842C88.2285 -4.85409 87.702 -4.57229 87.2889 -4.15865C87.0141 -3.88477 86.796 -3.55932 86.6472 -3.20099C86.4984 -2.84266 86.4218 -2.45848 86.4218 -2.07049C86.4218 -1.68249 86.4984 -1.2983 86.6472 -0.939967C86.796 -0.581635 87.0141 -0.256207 87.2889 0.0176708Z" fill="#F0F0F0"/>
<path d="M88.5384 -1.98977C88.7154 -1.86069 88.9122 -1.76115 89.121 -1.69498L89.2894 -1.63882L89.3807 -1.60373C89.4844 -1.56649 89.5798 -1.50926 89.6614 -1.43529C89.6966 -1.39917 89.7241 -1.35629 89.7422 -1.30923C89.7603 -1.26217 89.7687 -1.21192 89.7667 -1.16154C89.7693 -1.10896 89.7614 -1.0564 89.7433 -1.00697C89.7252 -0.957536 89.6974 -0.912232 89.6614 -0.873758C89.6268 -0.836236 89.5843 -0.806747 89.537 -0.787349C89.4897 -0.767951 89.4388 -0.759111 89.3877 -0.761452C89.3351 -0.758838 89.2826 -0.766822 89.2331 -0.784907C89.1837 -0.802993 89.1384 -0.830829 89.0999 -0.866754C89.0186 -0.943793 88.9708 -1.04961 88.9666 -1.16154H88.2647C88.2747 -0.963513 88.3325 -0.770863 88.4331 -0.60003C88.5273 -0.434355 88.6659 -0.298238 88.8332 -0.206971C88.9175 -0.162839 89.0072 -0.129799 89.0999 -0.108696V0.551086H89.7036V-0.108696C89.7929 -0.136486 89.8798 -0.171699 89.9633 -0.213976C90.1313 -0.309793 90.2716 -0.447667 90.3704 -0.614061C90.4741 -0.77499 90.5279 -0.963077 90.5248 -1.15453C90.5229 -1.3359 90.4772 -1.5141 90.3914 -1.67393C90.3043 -1.83133 90.1787 -1.96411 90.0264 -2.05996C89.9247 -2.12107 89.8164 -2.17053 89.7036 -2.20737L89.5491 -2.25649L89.4228 -2.30563C89.2921 -2.34965 89.169 -2.41357 89.0578 -2.49513C89.002 -2.54566 88.9575 -2.60743 88.9272 -2.67639C88.897 -2.74534 88.8817 -2.81992 88.8823 -2.89522C88.8805 -2.96187 88.8927 -3.02816 88.9181 -3.08982C88.9435 -3.15147 88.9815 -3.20713 89.0297 -3.25319C89.0782 -3.29966 89.1354 -3.33602 89.1981 -3.36012C89.2608 -3.38422 89.3276 -3.39558 89.3947 -3.39356C89.5215 -3.39811 89.645 -3.35275 89.7387 -3.26722C89.8353 -3.17291 89.8908 -3.04428 89.8931 -2.90927H90.623C90.6217 -3.05597 90.5931 -3.20113 90.5388 -3.33741C90.4795 -3.47493 90.3963 -3.60086 90.2932 -3.70942C90.1203 -3.88413 89.9011 -4.00588 89.6614 -4.06036V-4.69909H89.0578V-4.04633C88.9507 -4.01823 88.8471 -3.97819 88.749 -3.927C88.5611 -3.81769 88.4051 -3.66098 88.2967 -3.47253C88.1884 -3.28408 88.1313 -3.0705 88.1313 -2.8531C88.1252 -2.68714 88.159 -2.52214 88.2298 -2.37192C88.3007 -2.22171 88.4065 -2.09065 88.5384 -1.98977Z" fill="#F0F0F0"/>
<path d="M69.9872 63.1391C70.7653 63.9185 71.2951 64.911 71.5096 65.9912C71.7241 67.0715 71.6138 68.191 71.1925 69.2086C70.7712 70.2262 70.0578 71.0962 69.1425 71.7086C68.2271 72.3211 67.1509 72.6486 66.0495 72.6498V75.1205C68.1754 75.1205 70.2142 74.276 71.7174 72.7727C73.2207 71.2695 74.0652 69.2307 74.0652 67.1048C74.0652 64.9789 73.2207 62.9401 71.7174 61.4369C70.2142 59.9337 68.1754 59.0892 66.0495 59.0892V61.5388C66.7788 61.5335 67.5021 61.6721 68.1778 61.9467C68.8534 62.2213 69.4683 62.6265 69.9872 63.1391Z" fill="#F0F0F0"/>
<path d="M66.0496 75.1205V72.6779C65.3015 72.7044 64.5558 72.58 63.8569 72.3121C63.158 72.0442 62.5202 71.6382 61.9816 71.1184C61.443 70.5986 61.0146 69.9756 60.7221 69.2867C60.4295 68.5977 60.2787 67.8568 60.2787 67.1083C60.2787 66.3598 60.4295 65.619 60.7221 64.93C61.0146 64.2411 61.443 63.6181 61.9816 63.0983C62.5202 62.5785 63.158 62.1725 63.8569 61.9046C64.5558 61.6366 65.3015 61.5122 66.0496 61.5388V59.0892C63.9237 59.0892 61.8848 59.9337 60.3816 61.4369C58.8784 62.9401 58.0339 64.9789 58.0339 67.1048C58.0339 69.2307 58.8784 71.2695 60.3816 72.7727C61.8848 74.276 63.9237 75.1205 66.0496 75.1205Z" fill="#F0F0F0"/>
<path d="M62.1118 71.0144C62.8905 71.7923 63.8823 72.3219 64.9618 72.5363C66.0414 72.7506 67.1603 72.6401 68.177 72.2186C69.1938 71.7972 70.0628 71.0838 70.6741 70.1685C71.2855 69.2533 71.6118 68.1774 71.6118 67.0768C71.6118 65.9761 71.2855 64.9002 70.6741 63.985C70.0628 63.0697 69.1938 62.3563 68.177 61.9349C67.1603 61.5135 66.0414 61.4029 64.9618 61.6173C63.8823 61.8316 62.8905 62.3612 62.1118 63.1391C61.5928 63.6551 61.1808 64.2686 60.8997 64.9444C60.6186 65.6202 60.4739 66.3449 60.4739 67.0768C60.4739 67.8087 60.6186 68.5334 60.8997 69.2091C61.1808 69.8849 61.5928 70.4984 62.1118 71.0144Z" fill="#F0F0F0"/>
<path d="M64.4562 67.2102C64.7944 67.4522 65.1687 67.6393 65.5652 67.7647L65.8741 67.87L66.0495 67.9401C66.2478 68.0075 66.4313 68.1124 66.59 68.249C66.6564 68.3176 66.708 68.3991 66.7418 68.4884C66.7756 68.5777 66.7908 68.673 66.7865 68.7684C66.7914 68.8681 66.7766 68.9678 66.7429 69.0617C66.7091 69.1557 66.6572 69.2421 66.59 69.3159C66.5225 69.3848 66.4416 69.439 66.3522 69.4752C66.2629 69.5115 66.167 69.5289 66.0706 69.5264C65.8713 69.5289 65.6783 69.4562 65.5301 69.3229C65.3779 69.1773 65.2874 68.9788 65.2774 68.7684H63.8737C63.8902 69.1435 63.9961 69.5093 64.1825 69.8353C64.3681 70.1352 64.6328 70.3781 64.9476 70.5372C65.1005 70.6271 65.2661 70.6934 65.4389 70.7337V71.9691H66.59V70.7267C66.7558 70.6788 66.9158 70.6129 67.0673 70.5302C67.3894 70.3539 67.6584 70.0945 67.8464 69.7791C68.0233 69.4755 68.1166 69.1304 68.1166 68.7789C68.1166 68.4275 68.0233 68.0824 67.8464 67.7787C67.6717 67.4922 67.431 67.2515 67.1445 67.0768C66.9518 66.966 66.7498 66.872 66.5409 66.7961L66.2531 66.6978L66.0004 66.6136C65.7492 66.5285 65.5125 66.4054 65.2985 66.2486C65.1902 66.155 65.1043 66.0383 65.0472 65.9071C64.9901 65.7759 64.9633 65.6335 64.9686 65.4905C64.9653 65.3665 64.9879 65.2431 65.0351 65.1282C65.0822 65.0134 65.1528 64.9097 65.2423 64.8237C65.3351 64.7344 65.4453 64.6652 65.5661 64.6205C65.6869 64.5758 65.8157 64.5565 65.9442 64.564H65.9934C66.1165 64.5603 66.2391 64.5813 66.3539 64.6258C66.4687 64.6703 66.5734 64.7374 66.6618 64.8232C66.7502 64.909 66.8204 65.0116 66.8684 65.125C66.9163 65.2385 66.941 65.3604 66.9409 65.4835H68.3447C68.3411 65.2068 68.2864 64.9331 68.1833 64.6763C68.0777 64.4119 67.9175 64.1727 67.713 63.9744C67.3941 63.6437 66.9834 63.4163 66.5338 63.3217V62.1074H65.3827V63.3427C65.1807 63.3918 64.9868 63.4698 64.8072 63.5743C64.4506 63.7722 64.1545 64.0633 63.9509 64.4166C63.7451 64.7753 63.6385 65.1823 63.642 65.5958C63.6426 65.9097 63.7165 66.2192 63.8578 66.4995C63.9992 66.7798 64.2041 67.0232 64.4562 67.2102Z" fill="#F0F0F0"/>
<path d="M40.9497 65.2448C40.455 65.0723 39.9992 64.8039 39.6083 64.455C39.2174 64.1061 38.8991 63.6837 38.6716 63.2117C38.4441 62.7398 38.3118 62.2276 38.2824 61.7045C38.253 61.1814 38.327 60.6576 38.5001 60.1631L45.9683 38.7833C46.1408 38.2886 46.4092 37.8328 46.7581 37.4419C47.1069 37.051 47.5294 36.7327 48.0014 36.5052C48.4733 36.2777 48.9855 36.1454 49.5086 36.116C50.0317 36.0866 50.5555 36.1606 51.05 36.3337L88.2505 49.3188C88.7452 49.4914 89.201 49.7598 89.5919 50.1086C89.9828 50.4575 90.3011 50.88 90.5286 51.3519C90.7561 51.8239 90.8883 52.3361 90.9178 52.8592C90.9472 53.3823 90.8732 53.906 90.7001 54.4005L83.246 75.7803C82.8959 76.7799 82.1632 77.5995 81.2089 78.0589C80.2546 78.5183 79.1569 78.5798 78.1572 78.2299L40.9497 65.2448Z" fill="white"/>
<path d="M63.9858 65.0764C59.2831 63.434 57.0932 54.6603 57.0932 54.6603C57.0932 54.6603 64.2666 49.1574 68.9693 50.7999C73.672 52.4423 71.5522 59.7069 66.4775 57.9381C71.5522 59.6788 68.6885 66.6978 63.9858 65.0764Z" fill="#878DA3"/>
<path d="M82.2144 55.6359L86.6223 54.7655C86.7056 54.744 86.7823 54.7022 86.8454 54.6437C86.9086 54.5853 86.9562 54.512 86.984 54.4306C87.0119 54.3492 87.019 54.2621 87.0049 54.1772C86.9908 54.0924 86.9558 54.0123 86.903 53.9443L83.9761 50.5542C83.9192 50.4879 83.8456 50.438 83.7629 50.4096C83.6803 50.3812 83.5915 50.3754 83.5059 50.3927C83.4194 50.4099 83.3389 50.4494 83.2724 50.5073C83.206 50.5651 83.1558 50.6394 83.1268 50.7226L81.6458 54.934C81.6182 55.0176 81.6125 55.1069 81.6294 55.1934C81.6463 55.2798 81.6852 55.3604 81.7424 55.4274C81.7995 55.4945 81.873 55.5456 81.9556 55.576C82.0383 55.6064 82.1274 55.6149 82.2144 55.6008V55.6359Z" fill="#878DA3"/>
<path d="M46.5368 58.8085L42.1359 59.6438C42.053 59.6659 41.9768 59.7079 41.9139 59.7662C41.851 59.8245 41.8033 59.8974 41.7749 59.9783C41.7465 60.0593 41.7384 60.1459 41.7511 60.2307C41.7639 60.3156 41.7972 60.396 41.8481 60.465L44.7751 63.8902C44.834 63.956 44.9089 64.0054 44.9925 64.0336C45.0761 64.0619 45.1656 64.0681 45.2523 64.0517C45.3388 64.0345 45.4193 63.995 45.4858 63.9371C45.5523 63.8793 45.6024 63.805 45.6314 63.7218L47.1053 59.5104C47.1369 59.4276 47.1445 59.3375 47.1271 59.2506C47.1097 59.1637 47.0681 59.0834 47.0071 59.0191C46.9565 58.9433 46.8855 58.8833 46.8023 58.8461C46.7191 58.8088 46.6271 58.7958 46.5368 58.8085Z" fill="#878DA3"/>
<path d="M30.2951 58.7383C30.067 58.2664 29.9341 57.7542 29.9042 57.231C29.8742 56.7078 29.9477 56.1837 30.1205 55.6889C30.2932 55.1941 30.5619 54.7382 30.911 54.3473C31.2601 53.9564 31.6829 53.6382 32.1551 53.4109L52.5452 43.5844C53.0176 43.3561 53.5303 43.2232 54.0541 43.1931C54.5778 43.1631 55.1024 43.2365 55.5978 43.4092C56.0931 43.5819 56.5496 43.8506 56.9412 44.1998C57.3327 44.549 57.6516 44.9719 57.8796 45.4444L75.0059 80.9393C75.234 81.4111 75.3668 81.9233 75.3968 82.4466C75.4268 82.9698 75.3533 83.4938 75.1805 83.9886C75.0077 84.4834 74.7391 84.9393 74.39 85.3302C74.0409 85.7211 73.6181 86.0393 73.1459 86.2667L52.7558 96.0932C51.8025 96.552 50.7062 96.6138 49.7074 96.2651C48.7086 95.9163 47.889 95.1856 47.4284 94.2332L30.2951 58.7383Z" fill="#E2E2E2"/>
<path d="M49.8076 75.4364C50.4319 76.6195 51.4908 77.5143 52.7615 77.9325C54.0322 78.3507 55.4156 78.2596 56.6205 77.6786C57.8254 77.0975 58.7579 76.0716 59.2218 74.8169C59.6857 73.5622 59.6448 72.1764 59.1077 70.9513C59.8883 70.5798 60.5632 70.0184 61.0706 69.3185C61.578 68.6186 61.9016 67.8025 62.0118 66.9451C62.122 66.0877 62.0153 65.2163 61.7014 64.4108C61.3875 63.6053 60.8765 62.8915 60.2152 62.3347C59.5539 61.7779 58.7635 61.396 57.9163 61.2239C57.0691 61.0519 56.1923 61.0951 55.3662 61.3498C54.5401 61.6045 53.7911 62.0624 53.1878 62.6816C52.5846 63.3007 52.1463 64.0614 51.9133 64.8939L51.1272 63.2655C50.9654 62.9304 50.9432 62.5448 51.0656 62.1933C51.188 61.8419 51.445 61.5535 51.7799 61.3914C51.8991 61.3337 51.9904 61.2311 52.0338 61.106C52.0773 60.981 52.0693 60.8438 52.0116 60.7246C51.9539 60.6055 51.8512 60.5141 51.7261 60.4707C51.6011 60.4273 51.4639 60.4353 51.3448 60.493L46.4315 62.8514C46.3645 62.8749 46.3031 62.9123 46.2515 62.9612C46.1999 63.01 46.1592 63.0692 46.132 63.1349C46.1048 63.2005 46.0918 63.2712 46.0938 63.3422C46.0958 63.4132 46.1127 63.4831 46.1435 63.5471C46.1743 63.6111 46.2182 63.668 46.2724 63.7139C46.3267 63.7598 46.39 63.7938 46.4582 63.8136C46.5265 63.8334 46.5981 63.8385 46.6685 63.8288C46.7389 63.819 46.8064 63.7945 46.8667 63.7568C47.201 63.5972 47.5849 63.5763 47.9347 63.6986C48.2844 63.8208 48.5716 64.0764 48.7337 64.4096L49.5198 66.038C48.7256 65.7087 47.8616 65.5833 47.0066 65.6734C46.1515 65.7635 45.3326 66.0662 44.6245 66.5538C43.9164 67.0414 43.3416 67.6985 42.9524 68.4652C42.5633 69.2318 42.3722 70.0837 42.3966 70.9431C42.421 71.8026 42.6601 72.6422 43.0921 73.3856C43.5241 74.129 44.1352 74.7524 44.8699 75.1991C45.6045 75.6458 46.4393 75.9015 47.298 75.9429C48.1568 75.9844 49.0123 75.8103 49.7866 75.4364H49.8076Z" fill="#464C61"/>
<path d="M38.802 58.1346L35.096 55.6148C35.0216 55.5714 34.9377 55.547 34.8516 55.5436C34.7655 55.5402 34.6799 55.558 34.6022 55.5954C34.5246 55.6328 34.4574 55.6887 34.4064 55.7582C34.3555 55.8277 34.3223 55.9086 34.3099 55.9939L33.98 60.4579C33.9736 60.544 33.9897 60.6304 34.0267 60.7085C34.0637 60.7865 34.1204 60.8537 34.1912 60.9032C34.262 60.9528 34.3445 60.983 34.4305 60.9911C34.5165 60.9992 34.6032 60.9847 34.6819 60.9492L38.7389 58.9769C38.8182 58.939 38.8861 58.8808 38.9357 58.8082C38.9852 58.7356 39.0147 58.6512 39.0211 58.5636C39.0275 58.4759 39.0107 58.3881 38.9722 58.3091C38.9337 58.2301 38.875 58.1626 38.802 58.1136V58.1346Z" fill="#464C61"/>
<path d="M26.7223 47.3816C26.895 46.886 27.1635 46.4293 27.5128 46.0376C27.862 45.6459 28.285 45.3268 28.7576 45.0987C29.2302 44.8705 29.7431 44.7378 30.267 44.708C30.791 44.6781 31.3157 44.7519 31.8111 44.925L53.1838 52.3861C53.6785 52.5587 54.1344 52.8271 54.5253 53.1759C54.9161 53.5248 55.2344 53.9473 55.4619 54.4193C55.6894 54.8912 55.8217 55.4034 55.8511 55.9265C55.8806 56.4496 55.8066 56.9734 55.6335 57.4679L42.6484 94.6683C42.4758 95.163 42.2074 95.6189 41.8585 96.0098C41.5097 96.4007 41.0872 96.7189 40.6152 96.9464C40.1433 97.1739 39.6311 97.3062 39.108 97.3356C38.5849 97.3651 38.0611 97.2911 37.5666 97.118L16.1869 89.6638C15.1884 89.3122 14.37 88.5793 13.9109 87.6255C13.4517 86.6717 13.3893 85.5748 13.7372 84.5751L26.7223 47.3816Z" fill="white"/>
<path d="M28.4209 69.1544L31.2776 79.4933C31.3031 79.5687 31.3455 79.6373 31.4017 79.6937C31.4578 79.7501 31.5262 79.7928 31.6015 79.8185C31.6768 79.8443 31.757 79.8525 31.8359 79.8423C31.9149 79.8322 31.9904 79.804 32.0567 79.76L40.7181 73.443C40.8009 73.3845 40.8635 73.3018 40.8974 73.2063C40.9314 73.1108 40.9349 73.0072 40.9076 72.9096L38.0509 62.5777C38.0278 62.5002 37.9874 62.4289 37.9326 62.3693C37.8779 62.3097 37.8104 62.2634 37.7351 62.2338C37.6578 62.2084 37.5755 62.2015 37.4951 62.2137C37.4146 62.2259 37.3381 62.2568 37.2718 62.3039L28.6104 68.621C28.5284 68.6802 28.4664 68.7629 28.4325 68.8582C28.3987 68.9535 28.3946 69.0568 28.4209 69.1544Z" fill="#878DA3"/>
<path d="M33.1657 52.9687L32.3235 48.5608C32.3024 48.4781 32.2612 48.4018 32.2036 48.3388C32.146 48.2757 32.0738 48.2279 31.9933 48.1994C31.9128 48.171 31.8265 48.1628 31.742 48.1756C31.6576 48.1885 31.5777 48.2219 31.5093 48.273L28.1121 51.2069C28.0439 51.2626 27.9922 51.3358 27.9626 51.4187C27.9329 51.5015 27.9264 51.5909 27.9437 51.6772C27.9608 51.7637 28.0003 51.8441 28.0581 51.9106C28.116 51.9771 28.1903 52.0273 28.2735 52.0562L32.4849 53.5302C32.5674 53.5611 32.6567 53.5689 32.7433 53.5528C32.8298 53.5368 32.9104 53.4974 32.9762 53.4389C33.047 53.3847 33.1019 53.3124 33.1353 53.2297C33.1686 53.147 33.1791 53.0569 33.1657 52.9687Z" fill="#878DA3"/>
<path d="M32.3305 36.3197C32.8029 36.0914 33.3156 35.9585 33.8394 35.9284C34.3632 35.8984 34.8877 35.9718 35.3831 36.1446C35.8785 36.3173 36.335 36.5859 36.7265 36.9351C37.118 37.2843 37.4369 37.7072 37.6649 38.1797L47.4915 58.5698C47.7196 59.0417 47.8524 59.5539 47.8824 60.0771C47.9124 60.6004 47.8389 61.1244 47.6661 61.6192C47.4933 62.114 47.2247 62.5699 46.8756 62.9608C46.5265 63.3517 46.1037 63.6699 45.6315 63.8972L10.1717 81.0305C9.21737 81.4896 8.12 81.5516 7.12007 81.2029C6.12014 80.8542 5.29922 80.1234 4.83725 79.1705L-4.9893 58.8155C-5.44759 57.8613 -5.50836 56.7643 -5.15828 55.7654C-4.8082 54.7665 -4.07589 53.9474 -3.12225 53.4881L32.3305 36.3197Z" fill="#E2E2E2"/>
<path d="M13.976 62.367C13.976 62.367 21.732 67.0206 26.2171 64.8517C26.8761 64.5431 27.4343 64.054 27.827 63.4413C28.2197 62.8285 28.4308 62.1171 28.436 61.3894C28.4411 60.6616 28.24 59.9473 27.856 59.329C27.4721 58.7108 26.9208 58.2139 26.2662 57.896L27.0593 57.5099C27.3946 57.3508 27.7792 57.3309 28.129 57.4545C28.4789 57.5782 28.7656 57.8353 28.9264 58.1697C28.991 58.2793 29.0945 58.3605 29.2163 58.3972C29.3381 58.4338 29.4693 58.4231 29.5836 58.3673C29.6979 58.3115 29.787 58.2146 29.833 58.096C29.879 57.9774 29.8786 57.8458 29.8318 57.7275L27.4664 52.8142C27.4005 52.7087 27.298 52.6312 27.1786 52.5966C27.0591 52.5619 26.931 52.5726 26.8189 52.6265C26.7068 52.6803 26.6185 52.7737 26.5709 52.8886C26.5233 53.0036 26.5198 53.132 26.561 53.2494C26.7233 53.5837 26.7465 53.9686 26.6254 54.3199C26.5044 54.6712 26.249 54.9602 25.9153 55.1235L25.1221 55.5025C25.7679 52.7862 22.9392 49.6206 19.6473 51.2139C15.1552 53.4038 13.976 62.367 13.976 62.367ZM23.1007 57.9521C23.0515 57.9521 23.0024 57.9872 22.9462 58.0153C22.9884 58.0153 23.0235 57.9802 23.0726 57.9521H23.1007Z" fill="#464C61"/>
<path d="M32.9412 44.8267L35.44 41.1137C35.4836 41.0398 35.5083 40.9562 35.5118 40.8705C35.5153 40.7847 35.4974 40.6994 35.4599 40.6223C35.4223 40.5451 35.3662 40.4784 35.2966 40.4282C35.227 40.378 35.1461 40.3458 35.061 40.3346L30.5969 40.0047C30.5084 39.9977 30.4197 40.0142 30.3396 40.0523C30.2595 40.0905 30.1909 40.1491 30.1406 40.2223C30.0962 40.2978 30.0728 40.3838 30.0728 40.4715C30.0728 40.5591 30.0962 40.6451 30.1406 40.7206L32.0849 44.7635C32.1253 44.8423 32.1853 44.9095 32.259 44.9586C32.3327 45.0078 32.4177 45.0372 32.5061 45.0442C32.591 45.0475 32.6755 45.0293 32.7515 44.9913C32.8276 44.9532 32.8929 44.8966 32.9412 44.8267Z" fill="#464C61"/>
<path d="M-47.2597 84L-28.9369 78.7487L116.807 32.1739C119.214 31.4841 121.462 30.3267 123.422 28.7678C125.382 27.2088 127.016 25.2789 128.23 23.0882C129.445 20.8975 130.216 18.4889 130.5 16C130.784 13.5111 130.575 10.9906 129.885 8.58241L111.862 13.7502V13.7238L-34.1858 60.3997C-36.5935 61.0899 -38.8417 62.248 -40.8019 63.8077C-42.7621 65.3674 -44.396 67.2983 -45.6101 69.4899C-46.8242 71.6816 -47.5948 74.0911 -47.8778 76.5808C-48.1609 79.0705 -47.9508 81.5915 -47.2597 84Z" fill="#878DA3"/>
<path d="M3.36314 19.8953H16.0885C16.763 19.8953 17.3098 19.3485 17.3098 18.674V5.94862C17.3098 5.27411 16.763 4.7273 16.0885 4.7273H3.36314C2.68864 4.7273 2.14184 5.27411 2.14184 5.94862L2.14184 18.674C2.14184 19.3485 2.68864 19.8953 3.36314 19.8953Z" fill="#878DA3"/>
<path d="M12.467 16.5543C12.4656 16.258 12.5523 15.968 12.716 15.7211C12.8797 15.4741 13.1132 15.2814 13.3866 15.1674C13.6601 15.0534 13.9613 15.0232 14.2519 15.0807C14.5426 15.1381 14.8096 15.2806 15.0191 15.4901C15.2287 15.6997 15.3712 15.9667 15.4286 16.2574C15.4861 16.548 15.4559 16.8492 15.3419 17.1227C15.2279 17.3962 15.0352 17.6296 14.7882 17.7933C14.5413 17.9571 14.2513 18.0437 13.955 18.0423C13.5603 18.0423 13.1819 17.8856 12.9028 17.6065C12.6237 17.3274 12.467 16.949 12.467 16.5543Z" fill="white"/>
<path d="M4.0021 8.08943C4.0021 7.79374 4.08977 7.5047 4.25405 7.25884C4.41833 7.01298 4.65183 6.82135 4.92501 6.70819C5.19819 6.59503 5.49879 6.56542 5.78881 6.62311C6.07882 6.68079 6.3452 6.82319 6.55429 7.03228C6.76338 7.24136 6.90577 7.50776 6.96346 7.79777C7.02115 8.08778 6.99154 8.38838 6.87838 8.66156C6.76522 8.93474 6.5736 9.16823 6.32774 9.33251C6.08188 9.49678 5.79283 9.58447 5.49714 9.58447C5.10062 9.58447 4.72036 9.42695 4.43998 9.14658C4.15961 8.8662 4.0021 8.48594 4.0021 8.08943Z" fill="white"/>
<path d="M6.99193 16.5542C6.99332 16.2582 6.90682 15.9685 6.74339 15.7217C6.57997 15.4749 6.34696 15.2822 6.07391 15.168C5.80086 15.0537 5.50004 15.0231 5.20958 15.08C4.91911 15.1369 4.65207 15.2787 4.44229 15.4875C4.23251 15.6963 4.08943 15.9627 4.03117 16.2529C3.97291 16.5431 4.0021 16.8441 4.11505 17.1177C4.22799 17.3913 4.41961 17.6252 4.66561 17.7898C4.91161 17.9544 5.20093 18.0422 5.49691 18.0422C5.8922 18.0422 6.2714 17.8857 6.55157 17.6068C6.83174 17.328 6.99007 16.9495 6.99193 16.5542Z" fill="white"/>
<path d="M15.4499 8.08948C15.4499 7.79379 15.3622 7.50475 15.198 7.2589C15.0337 7.01304 14.8002 6.8214 14.527 6.70825C14.2538 6.59509 13.9532 6.56548 13.6632 6.62317C13.3732 6.68086 13.1068 6.82325 12.8977 7.03234C12.6887 7.24142 12.5463 7.50782 12.4886 7.79782C12.4309 8.08783 12.4605 8.38843 12.5737 8.66161C12.6868 8.93479 12.8784 9.16828 13.1243 9.33255C13.3702 9.49683 13.6592 9.58452 13.9549 9.58452C14.1515 9.58545 14.3463 9.5474 14.5281 9.4726C14.7099 9.39779 14.8751 9.28772 15.0141 9.1487C15.1531 9.00969 15.2632 8.84451 15.338 8.6627C15.4128 8.4809 15.4509 8.28607 15.4499 8.08948Z" fill="white"/>
<path d="M11.8631 28.3531H24.5885C25.263 28.3531 25.8098 27.8064 25.8098 27.1319V14.4065C25.8098 13.732 25.263 13.1852 24.5885 13.1852H11.8631C11.1886 13.1852 10.6418 13.732 10.6418 14.4065L10.6418 27.1319C10.6418 27.8064 11.1886 28.3531 11.8631 28.3531Z" fill="white"/>
<path d="M20.9457 25.0121C20.9457 24.7161 21.0336 24.4268 21.1982 24.1808C21.3628 23.9348 21.5967 23.7432 21.8703 23.6302C22.1439 23.5173 22.4448 23.4881 22.735 23.5463C23.0252 23.6046 23.2916 23.7477 23.5004 23.9574C23.7092 24.1672 23.851 24.4343 23.9079 24.7248C23.9648 25.0152 23.9342 25.316 23.82 25.5891C23.7057 25.8622 23.513 26.0952 23.2662 26.2586C23.0195 26.422 22.7297 26.5085 22.4337 26.5071C22.2377 26.5071 22.0437 26.4684 21.8627 26.3932C21.6817 26.318 21.5173 26.2077 21.3791 26.0688C21.2408 25.9299 21.1314 25.765 21.057 25.5837C20.9826 25.4023 20.9448 25.2081 20.9457 25.0121Z" fill="#B4B7C5"/>
<path d="M12.488 16.5543C12.4866 16.258 12.5733 15.968 12.737 15.7211C12.9008 15.4741 13.1342 15.2814 13.4076 15.1674C13.6811 15.0534 13.9823 15.0232 14.2729 15.0806C14.5636 15.1381 14.8306 15.2806 15.0401 15.4901C15.2496 15.6996 15.3922 15.9667 15.4496 16.2574C15.5071 16.548 15.4769 16.8492 15.3629 17.1227C15.2489 17.3961 15.0562 17.6296 14.8092 17.7933C14.5623 17.9571 14.2723 18.0437 13.976 18.0423C13.5813 18.0423 13.2029 17.8856 12.9238 17.6065C12.6447 17.3274 12.488 16.949 12.488 16.5543Z" fill="#B4B7C5"/>
<path d="M16.7204 20.7867C16.7204 20.491 16.808 20.202 16.9723 19.9561C17.1366 19.7103 17.3701 19.5186 17.6433 19.4055C17.9165 19.2923 18.2171 19.2627 18.5071 19.3204C18.7971 19.3781 19.0635 19.5205 19.2726 19.7296C19.4816 19.9386 19.624 20.205 19.6817 20.495C19.7394 20.7851 19.7098 21.0857 19.5966 21.3588C19.4835 21.632 19.2919 21.8655 19.046 22.0298C18.8002 22.1941 18.5111 22.2817 18.2154 22.2817C17.8189 22.2817 17.4386 22.1242 17.1582 21.8438C16.8779 21.5635 16.7204 21.1832 16.7204 20.7867Z" fill="#B4B7C5"/>
<path d="M76.4447 39.9345L75.083 39.1975L76.4447 38.4535L77.1887 37.0918L77.9327 38.4535L79.2874 39.1975L77.9327 39.9345L77.1887 41.2961L76.4447 39.9345Z" fill="white"/>
</g>
<mask id="mask1" mask-type="alpha" maskUnits="userSpaceOnUse" x="-18" y="67" width="126" height="90">
<rect x="108" y="156.151" width="126" height="89.1509" transform="rotate(-180 108 156.151)" fill="#C4C4C4"/>
</mask>
<g mask="url(#mask1)">
<path d="M258.11 -147.478H-57.7434L-57.7434 168.375H258.11L258.11 -147.478Z" fill="#69708C"/>
<path d="M-92.4853 -13.358L-92.4951 -14.8066L276.488 -115.334L276.498 -113.892L-92.4853 -13.358Z" fill="#B4B7C5"/>
<path d="M-92.4466 -7.61874L-92.4564 -9.07424L276.527 -109.601L276.537 -108.153L-92.4466 -7.61874Z" fill="#B4B7C5"/>
<path d="M-92.4067 -1.714L-92.4164 -3.1626L276.567 -103.69L276.577 -102.248L-92.4067 -1.714Z" fill="#B4B7C5"/>
<path d="M-92.3678 4.0459L-92.3776 2.59043L276.606 -97.9298L276.615 -96.4881L-92.3678 4.0459Z" fill="#B4B7C5"/>
<path d="M-92.3285 9.86106L-92.3383 8.40554L276.645 -92.1147L276.655 -90.673L-92.3285 9.86106Z" fill="#B4B7C5"/>
<path d="M-92.2898 15.5933L-92.2996 14.1447L276.684 -86.3824L276.693 -84.9407L-92.2898 15.5933Z" fill="#B4B7C5"/>
<path d="M-92.2509 21.3532L-92.2607 19.9046L276.723 -80.6156L276.732 -79.1808L-92.2509 21.3532Z" fill="#B4B7C5"/>
<path d="M-92.212 27.1131L-92.2218 25.6575L276.761 -74.8626L276.771 -73.4209L-92.212 27.1131Z" fill="#B4B7C5"/>
<path d="M-92.1727 32.9282L-92.1825 31.4796L276.801 -69.0475L276.811 -67.6058L-92.1727 32.9282Z" fill="#B4B7C5"/>
<path d="M-92.134 38.6605L-92.1438 37.2119L276.839 -63.3152L276.849 -61.8735L-92.134 38.6605Z" fill="#B4B7C5"/>
<path d="M-92.0941 44.5722L-92.1039 43.1236L276.879 -57.4035L276.889 -55.9618L-92.0941 44.5722Z" fill="#B4B7C5"/>
<path d="M-92.0552 50.3321L-92.065 48.8766L276.918 -51.6505L276.928 -50.2019L-92.0552 50.3321Z" fill="#B4B7C5"/>
<path d="M-92.0159 56.1472L-92.0257 54.6916L276.958 -45.8285L276.967 -44.3868L-92.0159 56.1472Z" fill="#B4B7C5"/>
<path d="M-91.9772 61.8795L-91.987 60.4309L276.996 -40.0962L277.006 -38.6545L-91.9772 61.8795Z" fill="#B4B7C5"/>
<path d="M-91.9384 67.6256L-91.9483 66.1701L277.035 -34.3502L277.045 -32.9084L-91.9384 67.6256Z" fill="#B4B7C5"/>
<path d="M-91.8995 73.3786L-91.9093 71.93L277.074 -28.5971L277.084 -27.1554L-91.8995 73.3786Z" fill="#B4B7C5"/>
<path d="M-91.8603 79.1937L-91.87 77.7451L277.113 -22.782L277.123 -21.3403L-91.8603 79.1937Z" fill="#B4B7C5"/>
<path d="M-91.8215 84.9329L-91.8313 83.4774L277.152 -17.0497L277.162 -15.608L-91.8215 84.9329Z" fill="#B4B7C5"/>
<path d="M-91.7816 90.8376L-91.7914 89.389L277.192 -11.1381L277.202 -9.69636L-91.7816 90.8376Z" fill="#B4B7C5"/>
<path d="M-91.7428 96.5976L-91.7526 95.142L277.231 -5.37817L277.24 -3.93646L-91.7428 96.5976Z" fill="#B4B7C5"/>
<path d="M-91.7035 102.413L-91.7133 100.957L277.27 0.436915L277.28 1.87861L-91.7035 102.413Z" fill="#B4B7C5"/>
<path d="M-91.6648 108.145L-91.6745 106.696L277.309 6.16923L277.319 7.61094L-91.6648 108.145Z" fill="#B4B7C5"/>
<path d="M-91.6258 113.912L-91.6356 112.456L277.348 11.9361L277.357 13.3778L-91.6258 113.912Z" fill="#B4B7C5"/>
<path d="M-91.587 119.665L-91.5967 118.216L277.387 17.689L277.396 19.1307L-91.587 119.665Z" fill="#B4B7C5"/>
<path d="M-91.5477 125.48L-91.5575 124.031L277.426 23.5041L277.436 24.9458L-91.5477 125.48Z" fill="#B4B7C5"/>
<path d="M-91.5089 131.219L-91.5187 129.764L277.465 29.2433L277.474 30.6781L-91.5089 131.219Z" fill="#B4B7C5"/>
<path d="M-91.469 137.124L-91.4788 135.675L277.504 35.1481L277.514 36.5898L-91.469 137.124Z" fill="#B4B7C5"/>
<path d="M-91.4302 142.884L-91.44 141.428L277.543 40.908L277.553 42.3497L-91.4302 142.884Z" fill="#B4B7C5"/>
<path d="M-91.3909 148.699L-91.4007 147.25L277.583 46.7231L277.592 48.1648L-91.3909 148.699Z" fill="#B4B7C5"/>
<path d="M35.9174 71.1628C23.3225 71.1263 11.0772 67.017 1.01002 59.4482C-9.05715 51.8795 -16.4061 41.2575 -19.9395 29.1683L-20.1992 28.2629C-29.1905 -2.57844 -12.1695 -35.2166 18.6788 -44.2149L23.2412 -45.6819L28.8563 -17.7464L28.0351 -15.36C13.1479 -11.0223 4.44438 4.9529 8.77508 19.8191L9.0418 20.7245C10.0726 24.266 11.7912 27.5697 14.0993 30.4468C16.4075 33.3239 19.2599 35.718 22.4936 37.4923C25.7273 39.2666 29.279 40.3863 32.9456 40.7874C36.6123 41.1885 40.322 40.8632 43.8629 39.8301L76.4028 30.3405L84.8255 59.3147L52.2856 68.8044C46.9683 70.3597 41.4575 71.1537 35.9174 71.1628Z" fill="#464C61"/>
<path d="M85.5976 110.876C85.599 119.281 83.1079 127.498 78.4392 134.486C73.7706 141.475 67.1342 146.923 59.3694 150.14C51.6046 153.357 43.0601 154.199 34.8167 152.56C26.5732 150.92 19.0011 146.873 13.0579 140.93C7.11478 134.987 3.06759 127.415 1.42822 119.171C-0.211145 110.928 0.630943 102.383 3.84799 94.6186C7.06504 86.8538 12.5125 80.2174 19.5015 75.5487C26.4905 70.8801 34.707 68.3889 43.1119 68.3903C54.3792 68.3922 65.1846 72.869 73.1518 80.8362C81.119 88.8034 85.5958 99.6087 85.5976 110.876Z" fill="#25242F"/>
<path d="M44.7333 130.164H41.659C30.3164 130.164 24.3432 120.387 26.8279 111.971C28.9336 104.742 34.1206 94.3394 34.3172 93.9113L37.6161 96.6767C36.4228 99.2176 33.3485 106.924 33.3485 111.971C33.3523 114.174 34.229 116.286 35.7867 117.843C37.3444 119.401 39.4561 120.278 41.659 120.282H44.7333C46.9362 120.278 49.0479 119.401 50.6056 117.843C52.1633 116.286 53.04 114.174 53.0437 111.971C53.0437 106.981 50.0888 99.1895 48.9517 96.6136L52.3068 93.9814C52.5033 94.4096 57.578 104.847 59.5573 111.971C61.9087 120.499 56.9112 130.164 44.7333 130.164Z" fill="#878DA3"/>
<path d="M57.6973 92.0371H47.9199V97.5821H57.6973V92.0371Z" fill="white"/>
<path d="M38.4725 92.0372H28.6951V97.5822H38.4725V92.0372Z" fill="white"/>
<path d="M51.1557 124.731C51.1557 125.148 51.0322 125.555 50.8008 125.901C50.5695 126.248 50.2406 126.518 49.8558 126.677C49.4711 126.836 49.0477 126.878 48.6392 126.797C48.2308 126.715 47.8556 126.515 47.5611 126.22C47.2666 125.926 47.066 125.551 46.9848 125.142C46.9035 124.734 46.9452 124.31 47.1046 123.926C47.264 123.541 47.5339 123.212 47.8802 122.981C48.2264 122.749 48.6336 122.626 49.05 122.626C49.6085 122.626 50.1441 122.848 50.539 123.243C50.9338 123.637 51.1557 124.173 51.1557 124.731Z" fill="white"/>
<path d="M57.2902 117.755C57.2902 118.094 57.1896 118.425 57.0011 118.707C56.8126 118.989 56.5447 119.208 56.2314 119.338C55.918 119.467 55.5733 119.5 55.2409 119.434C54.9085 119.367 54.6034 119.203 54.3641 118.963C54.1249 118.723 53.9623 118.417 53.897 118.084C53.8318 117.752 53.8667 117.407 53.9974 117.094C54.1281 116.782 54.3487 116.515 54.6313 116.327C54.9138 116.14 55.2456 116.041 55.5846 116.042C56.0376 116.044 56.4714 116.225 56.7911 116.546C57.1108 116.867 57.2902 117.302 57.2902 117.755Z" fill="white"/>
<path d="M56.9393 109.227C56.9407 109.47 56.8696 109.709 56.7352 109.912C56.6008 110.115 56.409 110.273 56.1843 110.367C55.9595 110.461 55.712 110.486 55.4731 110.439C55.2342 110.392 55.0146 110.275 54.8424 110.102C54.6702 109.93 54.5531 109.711 54.5059 109.472C54.4588 109.233 54.4837 108.985 54.5775 108.76C54.6713 108.536 54.8299 108.344 55.0329 108.209C55.236 108.075 55.4745 108.004 55.718 108.005C56.0419 108.005 56.3525 108.134 56.5816 108.363C56.8106 108.592 56.9393 108.903 56.9393 109.227Z" fill="white"/>
<path d="M35.2297 124.732C35.2297 125.148 35.3532 125.555 35.5846 125.901C35.816 126.248 36.1448 126.518 36.5296 126.677C36.9144 126.836 37.3377 126.878 37.7462 126.797C38.1547 126.716 38.5299 126.515 38.8243 126.22C39.1188 125.926 39.3194 125.551 39.4006 125.142C39.4819 124.734 39.4402 124.31 39.2808 123.926C39.1214 123.541 38.8515 123.212 38.5053 122.981C38.159 122.749 37.7519 122.626 37.3354 122.626C36.777 122.626 36.2414 122.848 35.8465 123.243C35.4516 123.637 35.2297 124.173 35.2297 124.732Z" fill="white"/>
<path d="M29.095 117.755C29.095 118.093 29.1954 118.424 29.3836 118.706C29.5718 118.988 29.8393 119.207 30.1522 119.337C30.4651 119.467 30.8095 119.5 31.1417 119.434C31.4739 119.368 31.7791 119.205 32.0186 118.966C32.2581 118.726 32.4212 118.421 32.4873 118.089C32.5534 117.757 32.5195 117.412 32.3898 117.099C32.2602 116.786 32.0407 116.519 31.7591 116.331C31.4774 116.142 31.1463 116.042 30.8076 116.042C30.3534 116.042 29.9178 116.222 29.5966 116.544C29.2754 116.865 29.095 117.3 29.095 117.755Z" fill="white"/>
<path d="M29.4459 109.227C29.4431 109.469 29.5123 109.707 29.6447 109.911C29.777 110.114 29.9667 110.274 30.1896 110.369C30.4126 110.465 30.6589 110.492 30.8975 110.448C31.1361 110.404 31.3563 110.29 31.5302 110.121C31.7042 109.952 31.8243 109.735 31.8751 109.498C31.926 109.261 31.9055 109.014 31.8162 108.788C31.7269 108.563 31.5728 108.369 31.3733 108.231C31.1738 108.093 30.9379 108.017 30.6953 108.012C30.5331 108.009 30.3719 108.037 30.2209 108.097C30.0699 108.156 29.9323 108.245 29.816 108.358C29.6997 108.471 29.607 108.606 29.5435 108.755C29.48 108.904 29.4468 109.065 29.4459 109.227Z" fill="white"/>
<path d="M44.5368 82.0421C44.5368 82.4144 44.3889 82.7715 44.1257 83.0348C43.8624 83.298 43.5053 83.4459 43.133 83.4459C42.7607 83.4459 42.4037 83.298 42.1404 83.0348C41.8771 82.7715 41.7292 82.4144 41.7292 82.0421V74.0124C41.7292 73.6401 41.8771 73.2831 42.1404 73.0198C42.4037 72.7565 42.7607 72.6086 43.133 72.6086C43.5053 72.6086 43.8624 72.7565 44.1257 73.0198C44.3889 73.2831 44.5368 73.6401 44.5368 74.0124V82.0421Z" fill="white"/>
<path d="M23.6764 89.4893C23.8122 89.6203 23.9203 89.7773 23.9941 89.9509C24.0679 90.1246 24.106 90.3114 24.106 90.5001C24.106 90.6887 24.0679 90.8755 23.9941 91.0492C23.9203 91.2228 23.8122 91.3798 23.6764 91.5108C23.5455 91.6456 23.3889 91.7527 23.2159 91.8259C23.0429 91.8991 22.857 91.9368 22.6691 91.9368C22.4813 91.9368 22.2954 91.8991 22.1223 91.8259C21.9493 91.7527 21.7928 91.6456 21.6619 91.5108L15.9836 85.8324C15.8488 85.7016 15.7417 85.545 15.6685 85.372C15.5953 85.199 15.5576 85.0131 15.5576 84.8252C15.5576 84.6374 15.5953 84.4514 15.6685 84.2784C15.7417 84.1054 15.8488 83.9488 15.9836 83.818C16.1144 83.6832 16.271 83.5761 16.444 83.5029C16.617 83.4297 16.803 83.392 16.9908 83.392C17.1787 83.392 17.3646 83.4297 17.5376 83.5029C17.7106 83.5761 17.8672 83.6832 17.998 83.818L23.6764 89.4893Z" fill="white"/>
<path d="M14.2221 109.5C14.5944 109.5 14.9514 109.648 15.2147 109.911C15.478 110.175 15.6259 110.532 15.6259 110.904C15.6259 111.276 15.478 111.633 15.2147 111.897C14.9514 112.16 14.5944 112.308 14.2221 112.308H6.19237C5.82006 112.308 5.463 112.16 5.19974 111.897C4.93648 111.633 4.78857 111.276 4.78857 110.904C4.78857 110.532 4.93648 110.175 5.19974 109.911C5.463 109.648 5.82006 109.5 6.19237 109.5H14.2221Z" fill="white"/>
<path d="M21.6761 130.347C21.8069 130.212 21.9635 130.105 22.1365 130.032C22.3095 129.958 22.4955 129.921 22.6833 129.921C22.8712 129.921 23.0571 129.958 23.2301 130.032C23.4031 130.105 23.5597 130.212 23.6905 130.347C23.8253 130.477 23.9325 130.634 24.0056 130.807C24.0788 130.98 24.1165 131.166 24.1165 131.354C24.1165 131.542 24.0788 131.728 24.0056 131.901C23.9325 132.074 23.8253 132.23 23.6905 132.361L18.0122 138.039C17.8813 138.174 17.7248 138.281 17.5518 138.355C17.3788 138.428 17.1928 138.465 17.005 138.465C16.8171 138.465 16.6312 138.428 16.4582 138.355C16.2852 138.281 16.1286 138.174 15.9977 138.039C15.863 137.909 15.7558 137.752 15.6826 137.579C15.6095 137.406 15.5718 137.22 15.5718 137.032C15.5718 136.844 15.6095 136.658 15.6826 136.485C15.7558 136.312 15.863 136.156 15.9977 136.025L21.6761 130.347Z" fill="white"/>
<path d="M62.5266 132.361C62.3918 132.23 62.2846 132.074 62.2115 131.901C62.1383 131.728 62.1006 131.542 62.1006 131.354C62.1006 131.166 62.1383 130.98 62.2115 130.807C62.2846 130.634 62.3918 130.477 62.5266 130.347C62.6574 130.212 62.814 130.105 62.987 130.032C63.16 129.958 63.3459 129.921 63.5338 129.921C63.7216 129.921 63.9076 129.958 64.0806 130.032C64.2536 130.105 64.4101 130.212 64.541 130.347L70.2193 136.025C70.3541 136.156 70.4612 136.312 70.5344 136.485C70.6076 136.658 70.6453 136.844 70.6453 137.032C70.6453 137.22 70.6076 137.406 70.5344 137.579C70.4612 137.752 70.3541 137.909 70.2193 138.039C70.0885 138.174 69.9319 138.281 69.7589 138.354C69.5859 138.428 69.3999 138.465 69.2121 138.465C69.0242 138.465 68.8383 138.428 68.6653 138.354C68.4923 138.281 68.3357 138.174 68.2049 138.039L62.5266 132.361Z" fill="white"/>
<path d="M71.9951 112.35C71.6228 112.35 71.2657 112.202 71.0025 111.939C70.7392 111.676 70.5913 111.319 70.5913 110.946C70.5913 110.574 70.7392 110.217 71.0025 109.954C71.2657 109.69 71.6228 109.543 71.9951 109.543H80.0248C80.3971 109.543 80.7542 109.69 81.0174 109.954C81.2807 110.217 81.4286 110.574 81.4286 110.946C81.4286 111.319 81.2807 111.676 81.0174 111.939C80.7542 112.202 80.3971 112.35 80.0248 112.35H71.9951Z" fill="white"/>
<path d="M64.541 91.5108C64.4101 91.6456 64.2536 91.7528 64.0805 91.8259C63.9075 91.8991 63.7216 91.9368 63.5337 91.9368C63.3459 91.9368 63.16 91.8991 62.9869 91.8259C62.8139 91.7528 62.6574 91.6456 62.5265 91.5108C62.3907 91.3799 62.2826 91.2229 62.2088 91.0492C62.135 90.8755 62.0969 90.6888 62.0969 90.5001C62.0969 90.3114 62.135 90.1246 62.2088 89.951C62.2826 89.7773 62.3907 89.6203 62.5265 89.4893L68.1978 83.818C68.3288 83.6822 68.4858 83.5741 68.6595 83.5003C68.8331 83.4265 69.0199 83.3884 69.2086 83.3884C69.3973 83.3884 69.584 83.4265 69.7577 83.5003C69.9314 83.5741 70.0884 83.6822 70.2193 83.818C70.3541 83.9489 70.4612 84.1054 70.5344 84.2785C70.6076 84.4515 70.6453 84.6374 70.6453 84.8253C70.6453 85.0131 70.6076 85.199 70.5344 85.372C70.4612 85.5451 70.3541 85.7016 70.2193 85.8325L64.541 91.5108Z" fill="white"/>
<path d="M78.2136 67.3023C82.1952 68.8322 86.3262 69.9402 90.5389 70.6082V45.9506L78.2136 67.3023Z" fill="black"/>
<path d="M61.6279 57.7074C66.6172 61.7585 72.2147 64.9967 78.2137 67.3023L88.7422 49.1091C82.5078 47.2879 76.8025 43.9948 72.1072 39.5072L61.6279 57.7074Z" fill="#464C61"/>
<path d="M100.127 -43.0919C110.664 -43.0906 120.965 -39.9645 129.726 -34.1091C138.487 -28.2536 145.315 -19.9318 149.347 -10.1959C153.379 -0.459934 154.433 10.2529 152.376 20.5879C150.319 30.9229 145.244 40.416 137.793 47.8668C130.341 55.3176 120.847 60.3914 110.512 62.4467C100.177 64.502 89.4639 63.4464 79.7284 59.4135C69.993 55.3806 61.6721 48.5514 55.8178 39.7896C49.9636 31.0277 46.8389 20.7267 46.8389 10.189C46.8556 -3.93686 52.4745 -17.4794 62.463 -27.4679C72.4514 -37.4564 85.994 -43.0752 100.12 -43.0919H100.127ZM100.127 -50.9672C88.0293 -50.9686 76.203 -47.3825 66.1437 -40.6623C56.0844 -33.9421 48.2439 -24.3898 43.6137 -13.2134C38.9835 -2.03698 37.7717 10.2615 40.1315 22.1266C42.4912 33.9918 48.3166 44.8907 56.8709 53.445C65.4251 61.9992 76.324 67.8246 88.1892 70.1843C100.054 72.5441 112.353 71.3323 123.529 66.7021C134.706 62.072 144.258 54.2314 150.978 44.1721C157.698 34.1128 161.284 22.2865 161.283 10.189C161.283 -6.03064 154.84 -21.586 143.371 -33.055C131.902 -44.524 116.346 -50.9672 100.127 -50.9672Z" fill="#25242F"/>
<path d="M17.2611 57.8759C17.7259 57.9584 18.1477 58.1993 18.4548 58.5577C18.762 58.9161 18.9356 59.3698 18.9461 59.8416C18.9565 60.3135 18.8033 60.7745 18.5123 61.1461C18.2213 61.5177 17.8106 61.7771 17.35 61.8802C16.8894 61.9832 16.4073 61.9236 15.9857 61.7114C15.5641 61.4992 15.2291 61.1475 15.0374 60.7162C14.8458 60.2848 14.8095 59.8004 14.9347 59.3453C15.0598 58.8902 15.3387 58.4925 15.724 58.2198L13.2042 58.8866C13.2042 58.9989 13.2042 59.1042 13.1621 59.2095C13.0056 60.0804 12.6789 60.9119 12.2007 61.6565C11.7226 62.401 11.1023 63.0439 10.3754 63.5485C9.64854 64.0531 8.82929 64.4094 7.96456 64.5971C7.09984 64.7847 6.2066 64.8001 5.33594 64.6422C3.65326 64.3567 2.14512 63.4342 1.12457 62.0662L-4.36426 63.5191L15.8574 67.162C16.0184 66.262 16.5284 65.462 17.2764 64.9362C18.0244 64.4104 18.9498 64.2013 19.8511 64.3544L21.2479 56.7739L17.1067 57.8619L17.2611 57.8759Z" fill="#B4B7C5"/>
<path d="M23.9571 53.8189L23.3535 51.5167L20.8688 42.0341L21.6338 41.3954L20.23 39.7389L18.7069 37.9069L12.446 30.3966L12.8742 29.4842L10.9229 28.5717L8.76809 27.554L-0.0898323 23.3847V22.381H-2.23763H-4.62408L-18.9498 22.3318L-19.0691 55.1525H-9.62859L-11.3061 64.4316L20.9811 70.2503L23.5149 56.1422L24.4906 55.8895L23.9571 53.8189ZM19.0087 43.5783L20.967 51.0113C20.0969 51.264 19.3581 51.8435 18.9055 52.6284C18.4528 53.4134 18.3213 54.343 18.5385 55.2227L-1.32517 60.4659L3.0336 56.8371C4.18992 57.4533 5.50094 57.7186 6.80586 57.6005C8.11077 57.4824 9.35286 56.986 10.3798 56.1722C11.4067 55.3585 12.1737 54.2627 12.5869 53.0193C13.0001 51.7759 13.0414 50.4389 12.7057 49.1724C12.7057 49.0671 12.6426 48.9688 12.6075 48.8635L14.6149 47.193L15.6888 46.2946L19.0087 43.5783ZM4.43038 61.2029L8.64175 60.0798C8.56437 60.4753 8.38809 60.8448 8.12936 61.1537C7.84466 61.4744 7.48202 61.7162 7.07652 61.8556C6.86804 61.9282 6.65094 61.973 6.43078 61.989L6.19915 63.2664L5.56744 63.1541L4.99891 63.0559L5.23054 61.7925C4.9243 61.6561 4.65129 61.455 4.43038 61.2029ZM9.02779 53.0749C8.91113 53.4897 8.6886 53.8671 8.38205 54.1699C8.22297 54.3246 8.0435 54.4568 7.84861 54.5629L8.18552 55.8263L7.56083 55.9878L7.00633 56.1352L6.67644 54.8928C6.32371 54.9123 5.9711 54.8524 5.64465 54.7174L9.04183 51.9098C9.13094 52.2936 9.12612 52.6933 9.02779 53.0749ZM9.02779 37.7104L9.63844 36.4189L11.4634 32.5374L16.3766 38.4474C15.6888 39.0471 15.2616 39.8911 15.1856 40.8005C15.1096 41.7098 15.3908 42.613 15.9695 43.3185L0.176886 56.4721L2.61949 51.3412C3.92757 51.4104 5.22741 51.0963 6.35965 50.4376C7.49188 49.7789 8.40731 48.8041 8.99372 47.6328C9.58013 46.4614 9.81203 45.1444 9.66099 43.8433C9.50995 42.5421 8.98254 41.3133 8.14341 40.3074C8.07322 40.2232 7.996 40.146 7.92581 40.0688L9.02779 37.7104ZM6.41674 45.3821C6.48766 45.8093 6.44407 46.2477 6.2904 46.6525C6.21284 46.8592 6.10904 47.055 5.98157 47.2351L6.83086 48.2318L6.33251 48.646L5.89032 49.0109L5.0691 48.0283C4.7575 48.1955 4.41176 48.2891 4.05837 48.302L5.93945 44.3012C6.17709 44.6191 6.33368 44.9901 6.39568 45.3821H6.41674ZM-0.117908 38.7492C0.241837 38.93 0.550678 39.1978 0.780516 39.5283C1.02413 39.8843 1.16941 40.2984 1.20166 40.7286C1.23334 40.9474 1.23334 41.1695 1.20166 41.3883L2.38084 41.9428L2.1071 42.5254L1.86144 43.0448L0.703308 42.4973C0.484283 42.7704 0.208975 42.993 -0.103868 43.1501L-0.117908 38.7492ZM-0.117908 46.5332C1.0958 46.0414 2.13991 45.2066 2.88672 44.1309C3.63353 43.0551 4.05069 41.785 4.08717 40.476C4.12366 39.1669 3.77789 37.8756 3.09216 36.7599C2.40643 35.6442 1.41045 34.7525 0.226019 34.1939L-0.0757923 34.0746V30.0597V25.7782L6.87999 29.049C6.51713 29.8798 6.48985 30.8188 6.80387 31.6693C7.11789 32.5197 7.74884 33.2157 8.56454 33.6113L-0.188097 52.2046L-0.117908 46.5332ZM-13.4539 53.0047C-13.472 52.0958 -13.8421 51.2294 -14.4862 50.5878C-15.1303 49.9463 -15.9983 49.5798 -16.9073 49.5654L-16.823 27.94C-15.9178 27.9166 -15.0567 27.5441 -14.4196 26.9006C-13.7826 26.257 -13.419 25.3921 -13.4048 24.4867H-5.68394C-5.66762 25.398 -5.29737 26.2672 -4.65155 26.9105C-4.00572 27.5537 -3.13499 27.9204 -2.2236 27.933L-2.29379 49.5654C-3.21731 49.5654 -4.10363 49.9293 -4.76059 50.5784C-5.41755 51.2275 -5.79218 52.1094 -5.80326 53.0328L-13.4539 53.0047ZM21.2478 56.7739L19.8861 64.3403C18.9847 64.1872 18.0594 64.3963 17.3114 64.9222C16.5634 65.448 16.0534 66.2479 15.8923 67.1479L-4.32928 63.5191L1.15954 62.0662C2.1801 63.4342 3.68823 64.3567 5.37091 64.6422C7.12185 64.9467 8.92217 64.5464 10.3791 63.5287C11.836 62.5109 12.8314 60.9583 13.1479 59.2095C13.1479 59.1042 13.1479 58.9989 13.19 58.8866L15.7098 58.2198L17.0645 57.8618L21.2057 56.7739H21.2478Z" fill="#464C61"/>
<path d="M-10.5059 46.2875V50.0006C-8.30395 50.064 -6.21351 50.9833 -4.67847 52.5632C-3.14343 54.143 -2.28472 56.2591 -2.28472 58.4619C-2.28472 60.6647 -3.14343 62.7808 -4.67847 64.3607C-6.21351 65.9406 -8.30395 66.8599 -10.5059 66.9233L-10.5059 70.6363C-7.32762 70.56 -4.30524 69.2438 -2.08439 66.969C0.136467 64.6942 1.37969 61.6411 1.37969 58.4619C1.37969 55.2828 0.136467 52.2297 -2.08439 49.9548C-4.30524 47.68 -7.32762 46.3639 -10.5059 46.2875Z" fill="#F0F0F0"/>
<path d="M24.8977 65.4703L35.0471 75.6198L31.664 65.4703H24.8977Z" fill="#B4B7C5"/>
<path d="M31.6641 65.4703L35.0472 75.6198L38.4234 65.4703H31.6641Z" fill="#B4B7C5"/>
<path d="M38.4232 65.4703L35.0471 75.6198L45.1965 65.4703H38.4232Z" fill="#464C61"/>
<path d="M6.73984 84.4988C6.67001 84.5693 6.58692 84.6252 6.49536 84.6634C6.4038 84.7015 6.30559 84.7212 6.2064 84.7212C6.1072 84.7212 6.00899 84.7015 5.91743 84.6634C5.82587 84.6252 5.74278 84.5693 5.67296 84.4988C5.53193 84.3557 5.45288 84.1628 5.45288 83.9619C5.45288 83.7609 5.53193 83.5681 5.67296 83.4249L8.67707 80.4208C8.8202 80.2798 9.01308 80.2007 9.21402 80.2007C9.41495 80.2007 9.60783 80.2798 9.75097 80.4208C9.82143 80.4906 9.87735 80.5737 9.91551 80.6653C9.95368 80.7568 9.97333 80.8551 9.97333 80.9543C9.97333 81.0535 9.95368 81.1517 9.91551 81.2432C9.87735 81.3348 9.82143 81.4179 9.75097 81.4877L6.73984 84.4988Z" fill="white"/>
<path d="M0.183872 94.2973H-5.58571C-2.84832 98.1507 -0.72859 101.976 -0.72859 104.994C-0.72859 114.456 -8.10552 119.137 -17.4197 119.488C-14.6472 122.808 -9.92343 124.402 -4.55393 124.402C3.98113 124.402 10.8878 120.359 10.8878 111.824C10.8948 106.959 4.50755 99.6598 0.183872 94.2973Z" fill="#F0F0F0"/>
<path d="M5.81324 88.6189L6.1712 88.261C5.83159 88.2436 5.49937 88.1553 5.19595 88.0018C4.89252 87.8483 4.6246 87.6329 4.40944 87.3696C4.18363 87.0715 3.89184 86.8298 3.55695 86.6633C3.22207 86.4969 2.85319 86.4103 2.47923 86.4103C2.10527 86.4103 1.73639 86.4969 1.4015 86.6633C1.06662 86.8298 0.774832 87.0715 0.549015 87.3696C0.360821 87.6215 0.117537 87.8271 -0.162252 87.9706C-0.442042 88.1142 -0.75094 88.1919 -1.06535 88.1978C-1.23591 88.2002 -1.40599 88.1789 -1.57071 88.1346L-2.13223 87.8679C-2.32406 87.7175 -2.50469 87.5533 -2.67269 87.3766C-2.89851 87.0785 -3.19029 86.8368 -3.52518 86.6703C-3.86006 86.5039 -4.22894 86.4173 -4.60291 86.4173C-4.97687 86.4173 -5.34575 86.5039 -5.68064 86.6703C-6.01552 86.8368 -6.30731 87.0785 -6.53312 87.3766C-6.72132 87.6285 -6.9646 87.8341 -7.24439 87.9777C-7.52418 88.1212 -7.83307 88.1989 -8.14748 88.2048C-8.32033 88.2068 -8.49267 88.1856 -8.65987 88.1417L-9.30561 87.8047C-9.46003 87.6784 -9.60742 87.531 -9.75482 87.3836C-9.98137 87.0854 -10.2738 86.8437 -10.6092 86.6773C-10.9447 86.5109 -11.3141 86.4243 -11.6886 86.4243C-12.063 86.4243 -12.4324 86.5109 -12.7679 86.6773C-13.1033 86.8437 -13.3957 87.0854 -13.6223 87.3836C-13.8892 87.6797 -14.2021 87.9309 -14.5488 88.1276H-14.5979C-14.8184 88.2288 -15.0573 88.2838 -15.2998 88.2891L-15.1875 88.4084L-14.9699 88.626L-9.31263 94.2973H0.162971L5.81324 88.6189Z" fill="#F0F0F0"/>
<path d="M2.40197 94.4867C2.40197 94.8423 2.26072 95.1833 2.00931 95.4347C1.75789 95.6861 1.4169 95.8273 1.06134 95.8273H-10.0146C-10.3701 95.8273 -10.7111 95.6861 -10.9625 95.4347C-11.214 95.1833 -11.3552 94.8423 -11.3552 94.4867C-11.3561 94.3104 -11.3221 94.1357 -11.2551 93.9726C-11.188 93.8095 -11.0893 93.6614 -10.9646 93.5367C-10.8399 93.412 -10.6918 93.3133 -10.5287 93.2463C-10.3656 93.1792 -10.1909 93.1452 -10.0146 93.1461H1.07538C1.2517 93.1452 1.42644 93.1792 1.58951 93.2463C1.75259 93.3133 1.90074 93.412 2.02542 93.5367C2.15009 93.6614 2.2488 93.8095 2.31585 93.9726C2.38289 94.1357 2.41693 94.3104 2.416 94.4867H2.40197Z" fill="#B4B7C5"/>
<path d="M-1.46541 138.145C-1.87799 137.73 -2.1583 137.203 -2.27085 136.629C-2.3834 136.055 -2.32312 135.46 -2.09765 134.921C-1.87218 134.381 -1.49167 133.921 -1.00428 133.597C-0.516889 133.274 0.0554543 133.103 0.640278 133.105V131.814C-0.485957 131.814 -1.56607 132.261 -2.36244 133.057C-3.15881 133.854 -3.6062 134.934 -3.6062 136.06C-3.6062 137.186 -3.15881 138.266 -2.36244 139.063C-1.56607 139.859 -0.485957 140.307 0.640278 140.307V139.008C0.249596 139.011 -0.13775 138.936 -0.499239 138.788C-0.860728 138.64 -1.18915 138.421 -1.46541 138.145Z" fill="#F0F0F0"/>
<path d="M0.619141 131.814L0.619141 133.105C1.01884 133.086 1.41834 133.147 1.79341 133.287C2.16847 133.427 2.51129 133.641 2.80107 133.917C3.09085 134.193 3.32155 134.525 3.47918 134.893C3.63682 135.26 3.7181 135.656 3.7181 136.057C3.7181 136.457 3.63682 136.853 3.47918 137.221C3.32155 137.588 3.09085 137.92 2.80107 138.196C2.51129 138.472 2.16847 138.687 1.79341 138.826C1.41834 138.966 1.01884 139.028 0.619141 139.008L0.619141 140.3C1.74538 140.3 2.82548 139.852 3.62185 139.056C4.41822 138.259 4.86562 137.179 4.86562 136.053C4.86562 134.927 4.41822 133.847 3.62185 133.05C2.82548 132.254 1.74538 131.807 0.619141 131.807V131.814Z" fill="#F0F0F0"/>
<path d="M2.71085 133.982C2.29774 133.569 1.77122 133.287 1.19791 133.173C0.624593 133.058 0.0302522 133.117 -0.509922 133.34C-1.0501 133.564 -1.51183 133.942 -1.83669 134.429C-2.16156 134.915 -2.33496 135.486 -2.33496 136.071C-2.33496 136.655 -2.16156 137.227 -1.83669 137.713C-1.51183 138.199 -1.0501 138.577 -0.509922 138.801C0.0302522 139.025 0.624593 139.083 1.19791 138.969C1.77122 138.854 2.29774 138.572 2.71085 138.159C2.98568 137.885 3.20374 137.559 3.35253 137.201C3.50132 136.843 3.57791 136.459 3.57791 136.071C3.57791 135.683 3.50132 135.298 3.35253 134.94C3.20374 134.582 2.98568 134.256 2.71085 133.982Z" fill="#F0F0F0"/>
<path d="M1.46134 135.99C1.28434 135.861 1.0876 135.761 0.878763 135.695L0.71031 135.639L0.619066 135.604C0.515362 135.567 0.419973 135.509 0.338307 135.435C0.303123 135.399 0.275646 135.356 0.257547 135.309C0.239448 135.262 0.231105 135.212 0.233021 135.162C0.230407 135.109 0.23838 135.057 0.256466 135.007C0.274551 134.958 0.302382 134.912 0.338307 134.874C0.373005 134.836 0.415481 134.807 0.462763 134.787C0.510045 134.768 0.560992 134.759 0.612045 134.762C0.664619 134.759 0.717184 134.767 0.766618 134.785C0.816052 134.803 0.86135 134.831 0.899824 134.867C0.981125 134.944 1.029 135.05 1.03318 135.162H1.73508C1.72507 134.964 1.66727 134.771 1.56662 134.6C1.47241 134.434 1.33386 134.298 1.16654 134.207C1.08225 134.163 0.9926 134.13 0.899824 134.109V133.449H0.296195L0.296195 134.109C0.206843 134.137 0.119971 134.172 0.0364916 134.214C-0.131594 134.31 -0.271883 134.448 -0.370609 134.614C-0.47437 134.775 -0.528106 134.963 -0.525026 135.155C-0.523167 135.336 -0.477408 135.514 -0.391665 135.674C-0.304501 135.831 -0.178943 135.964 -0.0266763 136.06C0.075067 136.121 0.183374 136.171 0.296195 136.207L0.450612 136.257L0.576948 136.306C0.707633 136.35 0.830746 136.414 0.941936 136.495C0.997765 136.546 1.04226 136.608 1.07251 136.677C1.10275 136.745 1.11805 136.82 1.11741 136.895C1.11921 136.962 1.10702 137.028 1.08163 137.09C1.05625 137.152 1.01822 137.207 0.970013 137.253C0.921551 137.3 0.864312 137.336 0.801645 137.36C0.738978 137.384 0.672137 137.396 0.605025 137.394C0.47826 137.398 0.354772 137.353 0.261098 137.267C0.164469 137.173 0.108975 137.044 0.10668 136.909H-0.623291C-0.621933 137.056 -0.593372 137.201 -0.539062 137.338C-0.479741 137.475 -0.396574 137.601 -0.2934 137.71C-0.120517 137.884 0.0986329 138.006 0.338307 138.06L0.338307 138.699H0.941936L0.941936 138.046C1.04902 138.018 1.15261 137.978 1.25077 137.927C1.43869 137.818 1.59462 137.661 1.70301 137.473C1.8114 137.284 1.86844 137.071 1.86844 136.853C1.87453 136.687 1.84075 136.522 1.76992 136.372C1.69908 136.222 1.59326 136.091 1.46134 135.99Z" fill="#F0F0F0"/>
<path d="M20.0126 70.861C19.2344 70.0816 18.7047 69.0891 18.4901 68.0089C18.2756 66.9286 18.386 65.809 18.8073 64.7914C19.2286 63.7739 19.9419 62.9039 20.8573 62.2914C21.7726 61.679 22.8489 61.3515 23.9502 61.3502V58.8796C21.8244 58.8796 19.7855 59.7241 18.2823 61.2273C16.7791 62.7305 15.9346 64.7694 15.9346 66.8952C15.9346 69.0211 16.7791 71.0599 18.2823 72.5632C19.7855 74.0664 21.8244 74.9109 23.9502 74.9109V72.4613C23.2209 72.4666 22.4977 72.328 21.822 72.0534C21.1463 71.7788 20.5314 71.3736 20.0126 70.861Z" fill="#F0F0F0"/>
<path d="M23.9502 58.8796V61.3222C24.6982 61.2956 25.444 61.42 26.1429 61.688C26.8418 61.9559 27.4796 62.3619 28.0182 62.8817C28.5567 63.4015 28.9851 64.0244 29.2777 64.7134C29.5702 65.4024 29.721 66.1432 29.721 66.8917C29.721 67.6402 29.5702 68.3811 29.2777 69.07C28.9851 69.759 28.5567 70.382 28.0182 70.9018C27.4796 71.4216 26.8418 71.8276 26.1429 72.0955C25.444 72.3634 24.6982 72.4878 23.9502 72.4613L23.9502 74.9109C26.0761 74.9109 28.1149 74.0664 29.6181 72.5632C31.1214 71.0599 31.9659 69.0211 31.9659 66.8952C31.9659 64.7694 31.1214 62.7305 29.6181 61.2273C28.1149 59.7241 26.0761 58.8796 23.9502 58.8796Z" fill="#F0F0F0"/>
<path d="M27.8879 62.9857C27.1093 62.2078 26.1175 61.6782 25.0379 61.4639C23.9584 61.2495 22.8395 61.3601 21.8227 61.7815C20.806 62.2029 19.937 62.9164 19.3256 63.8316C18.7143 64.7468 18.3879 65.8227 18.3879 66.9234C18.3879 68.024 18.7143 69.0999 19.3256 70.0152C19.937 70.9304 20.806 71.6438 21.8227 72.0652C22.8395 72.4867 23.9584 72.5972 25.0379 72.3828C26.1175 72.1685 27.1093 71.6389 27.8879 70.861C28.407 70.345 28.8189 69.7315 29.1001 69.0557C29.3812 68.38 29.5259 67.6553 29.5259 66.9234C29.5259 66.1914 29.3812 65.4668 29.1001 64.791C28.8189 64.1152 28.407 63.5017 27.8879 62.9857Z" fill="#F0F0F0"/>
<path d="M25.5435 66.7899C25.2053 66.5479 24.8311 66.3608 24.4345 66.2354L24.1257 66.1301L23.9502 66.06C23.752 65.9926 23.5685 65.8877 23.4098 65.7511C23.3434 65.6825 23.2917 65.601 23.2579 65.5117C23.2242 65.4224 23.2089 65.3271 23.2132 65.2317C23.2083 65.132 23.2232 65.0323 23.2569 64.9384C23.2906 64.8444 23.3426 64.7581 23.4098 64.6842C23.4772 64.6153 23.5582 64.5611 23.6475 64.5249C23.7369 64.4886 23.8328 64.4712 23.9292 64.4737C24.1285 64.4712 24.3215 64.5439 24.4696 64.6772C24.6219 64.8228 24.7123 65.0213 24.7223 65.2317H26.1261C26.1096 64.8566 26.0037 64.4908 25.8173 64.1648C25.6317 63.8649 25.367 63.622 25.0522 63.4629C24.8993 63.373 24.7336 63.3067 24.5609 63.2664V62.0311H23.4098V63.2734C23.244 63.3213 23.0839 63.3872 22.9325 63.47C22.6104 63.6463 22.3414 63.9056 22.1534 64.221C21.9764 64.5246 21.8832 64.8698 21.8832 65.2212C21.8832 65.5726 21.9764 65.9178 22.1534 66.2214C22.3281 66.508 22.5687 66.7486 22.8553 66.9233C23.048 67.0341 23.25 67.1281 23.4589 67.204L23.7467 67.3023L23.9994 67.3865C24.2506 67.4717 24.4873 67.5948 24.7013 67.7515C24.8095 67.8451 24.8954 67.9618 24.9525 68.093C25.0096 68.2242 25.0365 68.3666 25.0311 68.5096C25.0345 68.6337 25.0118 68.7571 24.9647 68.8719C24.9175 68.9867 24.8469 69.0904 24.7574 69.1764C24.6647 69.2658 24.5544 69.335 24.4336 69.3797C24.3128 69.4244 24.1841 69.4436 24.0555 69.4361H24.0064C23.8833 69.4399 23.7607 69.4188 23.6459 69.3743C23.5311 69.3298 23.4264 69.2627 23.338 69.1769C23.2496 69.0912 23.1794 68.9885 23.1314 68.8751C23.0834 68.7617 23.0588 68.6398 23.0588 68.5166H21.655C21.6587 68.7933 21.7134 69.067 21.8165 69.3238C21.922 69.5883 22.0823 69.8275 22.2867 70.0257C22.6056 70.3564 23.0164 70.5838 23.4659 70.6784V71.8927H24.617V70.6574C24.819 70.6084 25.0129 70.5303 25.1926 70.4258C25.5492 70.228 25.8452 69.9368 26.0489 69.5835C26.2546 69.2248 26.3612 68.8178 26.3577 68.4043C26.3572 68.0904 26.2833 67.7809 26.1419 67.5006C26.0006 67.2203 25.7956 66.977 25.5435 66.7899Z" fill="#F0F0F0"/>
<path d="M49.0501 68.7553C49.5447 68.9279 50.0006 69.1963 50.3915 69.5451C50.7824 69.894 51.1007 70.3165 51.3282 70.7884C51.5557 71.2604 51.6879 71.7725 51.7173 72.2956C51.7468 72.8187 51.6728 73.3425 51.4997 73.837L44.0315 95.2168C43.8589 95.7115 43.5905 96.1673 43.2417 96.5582C42.8928 96.9491 42.4703 97.2674 41.9984 97.4949C41.5264 97.7224 41.0142 97.8547 40.4911 97.8841C39.968 97.9135 39.4443 97.8396 38.9498 97.6664L1.74927 84.6813C1.25458 84.5088 0.798755 84.2404 0.40786 83.8915C0.0169646 83.5427 -0.301335 83.1202 -0.528839 82.6482C-0.756343 82.1762 -0.888594 81.6641 -0.918022 81.141C-0.947451 80.6179 -0.873484 80.0941 -0.70035 79.5996L6.75379 58.2198C7.10383 57.2202 7.83658 56.4006 8.79089 55.9412C9.74519 55.4818 10.8429 55.4203 11.8425 55.7702L49.0501 68.7553Z" fill="white"/>
<path d="M26.0137 68.9237C30.7164 70.5662 32.9063 79.3398 32.9063 79.3398C32.9063 79.3398 25.733 84.8427 21.0303 83.2003C16.3276 81.5578 18.4473 74.2932 23.522 76.062C18.4473 74.3213 21.311 67.3023 26.0137 68.9237Z" fill="#878DA3"/>
<path d="M7.78563 78.3643L3.37773 79.2346C3.2944 79.2561 3.21772 79.2979 3.15458 79.3564C3.09143 79.4148 3.0438 79.4881 3.01597 79.5695C2.98813 79.6509 2.98096 79.738 2.9951 79.8229C3.00924 79.9078 3.04424 79.9878 3.09697 80.0558L6.02387 83.4459C6.08081 83.5122 6.15441 83.5621 6.23707 83.5905C6.31974 83.6189 6.40848 83.6247 6.49414 83.6074C6.5806 83.5902 6.66107 83.5507 6.72756 83.4929C6.79405 83.435 6.84424 83.3608 6.87316 83.2775L8.35416 79.0661C8.38184 78.9825 8.38751 78.8932 8.3706 78.8068C8.35369 78.7203 8.31479 78.6397 8.25764 78.5727C8.20049 78.5057 8.12703 78.4545 8.04435 78.4241C7.96167 78.3938 7.87257 78.3852 7.78563 78.3993V78.3643Z" fill="#878DA3"/>
<path d="M43.4629 75.1916L47.8638 74.3563C47.9467 74.3342 48.0229 74.2922 48.0858 74.2339C48.1488 74.1756 48.1965 74.1028 48.2249 74.0218C48.2532 73.9409 48.2614 73.8542 48.2486 73.7694C48.2359 73.6846 48.2025 73.6041 48.1516 73.5351L45.2247 70.1099C45.1658 70.0442 45.0909 69.9948 45.0073 69.9665C44.9237 69.9382 44.8341 69.932 44.7474 69.9485C44.661 69.9656 44.5805 70.0051 44.514 70.063C44.4475 70.1208 44.3973 70.1951 44.3684 70.2784L42.8944 74.4897C42.8628 74.5725 42.8553 74.6626 42.8727 74.7495C42.89 74.8365 42.9316 74.9167 42.9927 74.981C43.0433 75.0568 43.1143 75.1168 43.1975 75.154C43.2807 75.1913 43.3727 75.2043 43.4629 75.1916Z" fill="#878DA3"/>
<path d="M59.7049 75.2618C59.933 75.7337 60.0659 76.2459 60.0958 76.7691C60.1258 77.2924 60.0523 77.8164 59.8795 78.3112C59.7068 78.806 59.4381 79.2619 59.089 79.6528C58.7399 80.0437 58.3171 80.3619 57.8449 80.5892L37.4548 90.4158C36.9824 90.644 36.4697 90.777 35.9459 90.807C35.4222 90.8371 34.8976 90.7636 34.4022 90.5909C33.9069 90.4182 33.4504 90.1495 33.0588 89.8003C32.6673 89.4511 32.3484 89.0282 32.1204 88.5557L14.9941 53.0608C14.766 52.589 14.6332 52.0768 14.6032 51.5536C14.5732 51.0303 14.6467 50.5063 14.8195 50.0115C14.9923 49.5167 15.2609 49.0608 15.61 48.6699C15.9591 48.279 16.3819 47.9608 16.8541 47.7335L37.2442 37.9069C38.1975 37.4481 39.2938 37.3863 40.2926 37.7351C41.2914 38.0838 42.111 38.8145 42.5716 39.7669L59.7049 75.2618Z" fill="#E2E2E2"/>
<path d="M40.1921 58.5637C39.5678 57.3806 38.5089 56.4858 37.2382 56.0676C35.9676 55.6494 34.5842 55.7405 33.3793 56.3216C32.1743 56.9027 31.2418 57.9285 30.7779 59.1832C30.314 60.4379 30.3549 61.8237 30.892 63.0488C30.1114 63.4203 29.4365 63.9817 28.9291 64.6816C28.4218 65.3815 28.0982 66.1976 27.988 67.055C27.8777 67.9124 27.9845 68.7838 28.2984 69.5893C28.6122 70.3948 29.1232 71.1086 29.7845 71.6654C30.4458 72.2222 31.2363 72.6041 32.0835 72.7762C32.9306 72.9483 33.8074 72.905 34.6336 72.6503C35.4597 72.3957 36.2087 71.9378 36.8119 71.3186C37.4152 70.6994 37.8534 69.9387 38.0865 69.1062L38.8726 70.7346C39.0344 71.0697 39.0565 71.4554 38.9341 71.8068C38.8117 72.1582 38.5548 72.4466 38.2198 72.6087C38.1007 72.6664 38.0093 72.7691 37.9659 72.8941C37.9225 73.0192 37.9305 73.1564 37.9882 73.2755C38.0459 73.3946 38.1486 73.486 38.2736 73.5294C38.3987 73.5728 38.5359 73.5648 38.655 73.5071L43.5683 71.1487C43.6353 71.1252 43.6966 71.0878 43.7482 71.0389C43.7998 70.9901 43.8406 70.9309 43.8677 70.8652C43.8949 70.7996 43.9079 70.7289 43.906 70.6579C43.904 70.5869 43.8871 70.5171 43.8563 70.453C43.8255 70.389 43.7816 70.3321 43.7273 70.2862C43.6731 70.2403 43.6098 70.2063 43.5415 70.1866C43.4733 70.1668 43.4017 70.1616 43.3313 70.1714C43.2609 70.1811 43.1934 70.2057 43.1331 70.2433C42.7987 70.4029 42.4148 70.4238 42.0651 70.3016C41.7154 70.1793 41.4281 69.9237 41.266 69.5905L40.4799 67.9621C41.2741 68.2915 42.1381 68.4168 42.9932 68.3267C43.8482 68.2366 44.6671 67.934 45.3752 67.4463C46.0834 66.9587 46.6582 66.3016 47.0473 65.535C47.4365 64.7683 47.6276 63.9164 47.6032 63.057C47.5788 62.1975 47.3397 61.3579 46.9077 60.6145C46.4757 59.8712 45.8645 59.2477 45.1299 58.801C44.3953 58.3544 43.5605 58.0987 42.7017 58.0572C41.8429 58.0158 40.9874 58.1899 40.2132 58.5637H40.1921Z" fill="#464C61"/>
<path d="M51.1977 75.8655L54.9037 78.3853C54.9781 78.4287 55.0621 78.4532 55.1482 78.4565C55.2343 78.4599 55.3199 78.4421 55.3975 78.4047C55.4751 78.3673 55.5424 78.3114 55.5933 78.2419C55.6443 78.1724 55.6774 78.0915 55.6898 78.0063L56.0197 73.5423C56.0262 73.4561 56.0101 73.3697 55.973 73.2916C55.936 73.2136 55.8793 73.1465 55.8085 73.0969C55.7378 73.0474 55.6553 73.0171 55.5693 73.009C55.4832 73.0009 55.3966 73.0154 55.3178 73.0509L51.2609 75.0232C51.1816 75.0611 51.1137 75.1193 51.0641 75.1919C51.0145 75.2645 50.985 75.3489 50.9786 75.4365C50.9722 75.5242 50.9891 75.612 51.0276 75.691C51.0661 75.7701 51.1247 75.8375 51.1977 75.8866V75.8655Z" fill="#464C61"/>
<path d="M63.2774 86.6185C63.1048 87.1141 62.8362 87.5708 62.487 87.9625C62.1378 88.3542 61.7148 88.6733 61.2422 88.9014C60.7696 89.1296 60.2567 89.2624 59.7327 89.2922C59.2088 89.322 58.6841 89.2482 58.1887 89.0751L36.8159 81.614C36.3212 81.4414 35.8654 81.173 35.4745 80.8242C35.0836 80.4753 34.7653 80.0528 34.5378 79.5809C34.3103 79.1089 34.1781 78.5967 34.1486 78.0736C34.1192 77.5505 34.1932 77.0268 34.3663 76.5323L47.3514 39.3318C47.524 38.8371 47.7924 38.3813 48.1412 37.9904C48.4901 37.5995 48.9126 37.2812 49.3845 37.0537C49.8565 36.8262 50.3686 36.6939 50.8917 36.6645C51.4149 36.6351 51.9386 36.709 52.4331 36.8822L73.8129 44.3363C74.8113 44.6879 75.6298 45.4209 76.0889 46.3746C76.548 47.3284 76.6105 48.4253 76.2625 49.425L63.2774 86.6185Z" fill="white"/>
<path d="M61.5789 64.8457L58.7221 54.5068C58.6967 54.4314 58.6542 54.3628 58.5981 54.3065C58.5419 54.2501 58.4736 54.2073 58.3983 54.1816C58.323 54.1558 58.2428 54.1477 58.1638 54.1578C58.0849 54.1679 58.0094 54.1961 57.943 54.2401L49.2816 60.5571C49.1989 60.6156 49.1363 60.6983 49.1023 60.7938C49.0684 60.8893 49.0648 60.9929 49.0921 61.0905L51.9488 71.4224C51.972 71.5 52.0124 71.5712 52.0671 71.6308C52.1218 71.6904 52.1894 71.7367 52.2647 71.7663C52.342 71.7918 52.4242 71.7987 52.5047 71.7865C52.5851 71.7743 52.6616 71.7434 52.7279 71.6962L61.3893 65.3791C61.4713 65.3199 61.5334 65.2372 61.5672 65.1419C61.6011 65.0466 61.6051 64.9433 61.5789 64.8457Z" fill="#878DA3"/>
<path d="M56.834 81.0314L57.6763 85.4393C57.6974 85.5221 57.7385 85.5983 57.7961 85.6613C57.8537 85.7244 57.926 85.7723 58.0065 85.8007C58.087 85.8292 58.1733 85.8373 58.2577 85.8245C58.3421 85.8117 58.4221 85.7782 58.4905 85.7271L61.8877 82.7932C61.9558 82.7375 62.0075 82.6643 62.0372 82.5815C62.0669 82.4986 62.0734 82.4092 62.0561 82.3229C62.0389 82.2365 61.9995 82.156 61.9416 82.0895C61.8837 82.023 61.8095 81.9728 61.7262 81.9439L57.5148 80.4699C57.4324 80.439 57.3431 80.4312 57.2565 80.4473C57.1699 80.4634 57.0894 80.5027 57.0235 80.5612C56.9527 80.6154 56.8978 80.6877 56.8645 80.7704C56.8312 80.8531 56.8206 80.9433 56.834 81.0314Z" fill="#878DA3"/>
<path d="M57.6692 97.6804C57.1968 97.9087 56.6841 98.0416 56.1604 98.0717C55.6366 98.1017 55.112 98.0283 54.6167 97.8556C54.1213 97.6828 53.6648 97.4142 53.2733 97.065C52.8817 96.7158 52.5628 96.2929 52.3348 95.8204L42.5083 75.4303C42.2802 74.9584 42.1473 74.4462 42.1174 73.923C42.0874 73.3998 42.1609 72.8758 42.3337 72.3809C42.5064 71.8861 42.775 71.4302 43.1242 71.0394C43.4733 70.6485 43.8961 70.3302 44.3683 70.1029L79.8281 52.9696C80.7824 52.5106 81.8798 52.4486 82.8797 52.7972C83.8796 53.1459 84.7005 53.8768 85.1625 54.8297L94.9891 75.1847C95.4473 76.1388 95.5081 77.2358 95.158 78.2347C94.808 79.2337 94.0756 80.0527 93.122 80.512L57.6692 97.6804Z" fill="#E2E2E2"/>
<path d="M76.024 71.6331C76.024 71.6331 68.268 66.9795 63.7829 69.1484C63.1239 69.4571 62.5657 69.9461 62.173 70.5588C61.7803 71.1716 61.5692 71.883 61.564 72.6108C61.5589 73.3385 61.76 74.0529 62.144 74.6711C62.5279 75.2893 63.0792 75.7862 63.7338 76.1042L62.9407 76.4902C62.6054 76.6493 62.2208 76.6692 61.871 76.5456C61.5211 76.422 61.2344 76.1648 61.0736 75.8304C61.009 75.7208 60.9055 75.6396 60.7837 75.603C60.6619 75.5663 60.5307 75.577 60.4164 75.6328C60.3021 75.6886 60.213 75.7855 60.167 75.9041C60.121 76.0227 60.1214 76.1543 60.1682 76.2726L62.5336 81.1859C62.5995 81.2914 62.702 81.3689 62.8214 81.4035C62.9409 81.4382 63.069 81.4276 63.1811 81.3737C63.2932 81.3198 63.3815 81.2264 63.4291 81.1115C63.4767 80.9965 63.4802 80.8681 63.439 80.7507C63.2767 80.4165 63.2535 80.0315 63.3746 79.6802C63.4956 79.3289 63.751 79.04 64.0847 78.8766L64.8779 78.4976C64.2321 81.214 67.0608 84.3795 70.3527 82.7862C74.8448 80.5963 76.024 71.6331 76.024 71.6331ZM66.8993 76.048C66.9485 76.048 66.9976 76.0129 67.0538 75.9848C67.0116 75.9848 66.9765 76.0199 66.9274 76.048H66.8993Z" fill="#464C61"/>
<path d="M57.0588 89.1735L54.56 92.8865C54.5164 92.9604 54.4917 93.0439 54.4882 93.1297C54.4847 93.2154 54.5026 93.3007 54.5401 93.3779C54.5777 93.455 54.6338 93.5217 54.7034 93.5719C54.773 93.6221 54.8539 93.6543 54.939 93.6655L59.4031 93.9954C59.4916 94.0024 59.5803 93.986 59.6604 93.9478C59.7405 93.9096 59.8091 93.851 59.8594 93.7778C59.9038 93.7023 59.9272 93.6163 59.9272 93.5287C59.9272 93.441 59.9038 93.355 59.8594 93.2795L57.9151 89.2366C57.8747 89.1578 57.8147 89.0906 57.741 89.0415C57.6673 88.9924 57.5823 88.9629 57.4939 88.9559C57.409 88.9526 57.3245 88.9708 57.2485 89.0089C57.1724 89.0469 57.1071 89.1035 57.0588 89.1735Z" fill="#464C61"/>
<path d="M137.26 50L118.937 55.2513L-33.8853 107.594C-36.2924 108.284 -38.5401 109.441 -40.5001 111C-42.4601 112.559 -44.094 114.489 -45.3084 116.68C-46.5229 118.87 -47.2941 121.279 -47.5781 123.768C-47.8621 126.257 -47.6533 128.777 -46.9635 131.185L-28.9397 126.018V126.044L124.186 73.6003C126.593 72.9101 128.842 71.752 130.802 70.1923C132.762 68.6326 134.396 66.7017 135.61 64.5101C136.824 62.3184 137.595 59.9089 137.878 57.4192C138.161 54.9295 137.951 52.4085 137.26 50Z" fill="#878DA3"/>
<path d="M86.6366 114.105H73.9112C73.2367 114.105 72.6899 114.652 72.6899 115.326V128.051C72.6899 128.726 73.2367 129.273 73.9112 129.273H86.6366C87.3111 129.273 87.8579 128.726 87.8579 128.051V115.326C87.8579 114.652 87.3111 114.105 86.6366 114.105Z" fill="#878DA3"/>
<path d="M77.533 117.446C77.5344 117.742 77.4477 118.032 77.284 118.279C77.1203 118.526 76.8868 118.719 76.6134 118.833C76.3399 118.947 76.0387 118.977 75.7481 118.919C75.4574 118.862 75.1904 118.719 74.9809 118.51C74.7713 118.3 74.6288 118.033 74.5714 117.743C74.5139 117.452 74.5441 117.151 74.6581 116.877C74.7721 116.604 74.9648 116.371 75.2118 116.207C75.4587 116.043 75.7487 115.956 76.045 115.958C76.4397 115.958 76.8181 116.115 77.0972 116.394C77.3763 116.673 77.533 117.051 77.533 117.446Z" fill="white"/>
<path d="M85.9979 125.911C85.9979 126.206 85.9102 126.495 85.7459 126.741C85.5817 126.987 85.3482 127.179 85.075 127.292C84.8018 127.405 84.5012 127.435 84.2112 127.377C83.9212 127.319 83.6548 127.177 83.4457 126.968C83.2366 126.759 83.0942 126.492 83.0365 126.202C82.9789 125.912 83.0085 125.612 83.1216 125.339C83.2348 125.065 83.4264 124.832 83.6723 124.668C83.9181 124.503 84.2072 124.416 84.5029 124.416C84.8994 124.416 85.2796 124.573 85.56 124.854C85.8404 125.134 85.9979 125.514 85.9979 125.911Z" fill="white"/>
<path d="M83.0078 117.446C83.0064 117.742 83.0929 118.032 83.2564 118.278C83.4198 118.525 83.6528 118.718 83.9258 118.832C84.1989 118.946 84.4997 118.977 84.7902 118.92C85.0806 118.863 85.3477 118.721 85.5575 118.513C85.7673 118.304 85.9103 118.037 85.9686 117.747C86.0268 117.457 85.9977 117.156 85.8847 116.882C85.7718 116.609 85.5801 116.375 85.3341 116.21C85.0881 116.046 84.7988 115.958 84.5028 115.958C84.1076 115.958 83.7284 116.114 83.4482 116.393C83.168 116.672 83.0097 117.051 83.0078 117.446Z" fill="white"/>
<path d="M74.5498 125.911C74.5498 126.206 74.6375 126.495 74.8018 126.741C74.9661 126.987 75.1996 127.179 75.4727 127.292C75.7459 127.405 76.0465 127.435 76.3365 127.377C76.6265 127.319 76.8929 127.177 77.102 126.968C77.3111 126.759 77.4535 126.492 77.5112 126.202C77.5689 125.912 77.5393 125.612 77.4261 125.339C77.3129 125.065 77.1213 124.832 76.8755 124.668C76.6296 124.503 76.3406 124.416 76.0449 124.416C75.8483 124.415 75.6534 124.453 75.4716 124.528C75.2898 124.602 75.1246 124.712 74.9856 124.851C74.8466 124.99 74.7365 125.156 74.6617 125.337C74.5869 125.519 74.5489 125.714 74.5498 125.911Z" fill="white"/>
<path d="M78.1366 105.647H65.4112C64.7367 105.647 64.1899 106.194 64.1899 106.868V119.594C64.1899 120.268 64.7367 120.815 65.4112 120.815H78.1366C78.8111 120.815 79.3579 120.268 79.3579 119.594V106.868C79.3579 106.194 78.8111 105.647 78.1366 105.647Z" fill="white"/>
<path d="M69.054 108.988C69.054 109.284 68.9662 109.573 68.8016 109.819C68.637 110.065 68.4031 110.257 68.1295 110.37C67.8559 110.483 67.5549 110.512 67.2647 110.454C66.9745 110.395 66.7082 110.252 66.4994 110.043C66.2906 109.833 66.1487 109.566 66.0918 109.275C66.035 108.985 66.0656 108.684 66.1798 108.411C66.294 108.138 66.4867 107.905 66.7335 107.741C66.9803 107.578 67.27 107.492 67.566 107.493C67.762 107.493 67.9561 107.532 68.1371 107.607C68.3181 107.682 68.4824 107.792 68.6207 107.931C68.7589 108.07 68.8684 108.235 68.9428 108.416C69.0171 108.598 69.0549 108.792 69.054 108.988Z" fill="#B4B7C5"/>
<path d="M77.5118 117.446C77.5132 117.742 77.4265 118.032 77.2627 118.279C77.099 118.526 76.8656 118.719 76.5921 118.833C76.3186 118.947 76.0175 118.977 75.7268 118.919C75.4361 118.862 75.1691 118.719 74.9596 118.51C74.7501 118.3 74.6076 118.033 74.5501 117.743C74.4927 117.452 74.5229 117.151 74.6369 116.877C74.7509 116.604 74.9436 116.37 75.1905 116.207C75.4375 116.043 75.7275 115.956 76.0238 115.958C76.4184 115.958 76.7969 116.114 77.076 116.394C77.355 116.673 77.5118 117.051 77.5118 117.446Z" fill="#B4B7C5"/>
<path d="M73.2794 113.213C73.2794 113.509 73.1917 113.798 73.0274 114.044C72.8632 114.29 72.6297 114.481 72.3565 114.595C72.0833 114.708 71.7827 114.737 71.4927 114.68C71.2027 114.622 70.9363 114.48 70.7272 114.271C70.5181 114.061 70.3757 113.795 70.318 113.505C70.2603 113.215 70.29 112.914 70.4031 112.641C70.5163 112.368 70.7079 112.135 70.9537 111.97C71.1996 111.806 71.4887 111.718 71.7843 111.718C72.1809 111.718 72.5611 111.876 72.8415 112.156C73.1219 112.437 73.2794 112.817 73.2794 113.213Z" fill="#B4B7C5"/>
<path d="M13.5551 94.0657L14.9168 94.8026L13.5551 95.5467L12.8111 96.9083L12.0671 95.5467L10.7124 94.8026L12.0671 94.0657L12.8111 92.704L13.5551 94.0657Z" fill="white"/>
</g>
</g>
</g>
<defs>
<filter id="filter0_ddddd" x="-55.0796" y="-32.5221" width="200.159" height="252.461" filterUnits="userSpaceOnUse" color-interpolation-filters="sRGB">
<feFlood flood-opacity="0" result="BackgroundImageFix"/>
<feColorMatrix in="SourceAlpha" type="matrix" values="0 0 0 0 0 0 0 0 0 0 0 0 0 0 0 0 0 0 127 0"/>
<feOffset dy="0.656361"/>
<feGaussianBlur stdDeviation="1.22804"/>
<feColorMatrix type="matrix" values="0 0 0 0 0.145098 0 0 0 0 0.141176 0 0 0 0 0.184314 0 0 0 0.06 0"/>
<feBlend mode="normal" in2="BackgroundImageFix" result="effect1_dropShadow"/>
<feColorMatrix in="SourceAlpha" type="matrix" values="0 0 0 0 0 0 0 0 0 0 0 0 0 0 0 0 0 0 127 0"/>
<feOffset dy="2.01732"/>
<feGaussianBlur stdDeviation="2.95114"/>
<feColorMatrix type="matrix" values="0 0 0 0 0.145098 0 0 0 0 0.141176 0 0 0 0 0.184314 0 0 0 0.06 0"/>
<feBlend mode="normal" in2="effect1_dropShadow" result="effect2_dropShadow"/>
<feColorMatrix in="SourceAlpha" type="matrix" values="0 0 0 0 0 0 0 0 0 0 0 0 0 0 0 0 0 0 127 0"/>
<feOffset dy="4.85705"/>
<feGaussianBlur stdDeviation="5.55673"/>
<feColorMatrix type="matrix" values="0 0 0 0 0.145098 0 0 0 0 0.141176 0 0 0 0 0.184314 0 0 0 0.0381001 0"/>
<feBlend mode="normal" in2="effect2_dropShadow" result="effect3_dropShadow"/>
<feColorMatrix in="SourceAlpha" type="matrix" values="0 0 0 0 0 0 0 0 0 0 0 0 0 0 0 0 0 0 127 0"/>
<feOffset dy="11.0494"/>
<feGaussianBlur stdDeviation="9.91226"/>
<feColorMatrix type="matrix" values="0 0 0 0 0.145098 0 0 0 0 0.141176 0 0 0 0 0.184314 0 0 0 0.0431408 0"/>
<feBlend mode="normal" in2="effect3_dropShadow" result="effect4_dropShadow"/>
<feColorMatrix in="SourceAlpha" type="matrix" values="0 0 0 0 0 0 0 0 0 0 0 0 0 0 0 0 0 0 127 0"/>
<feOffset dy="26.7084"/>
<feGaussianBlur stdDeviation="18.5398"/>
<feColorMatrix type="matrix" values="0 0 0 0 0.145098 0 0 0 0 0.141176 0 0 0 0 0.184314 0 0 0 0.0521092 0"/>
<feBlend mode="normal" in2="effect4_dropShadow" result="effect5_dropShadow"/>
<feBlend mode="normal" in="SourceGraphic" in2="effect5_dropShadow" result="shape"/>
</filter>
<clipPath id="clip0">
<rect width="90" height="134" fill="white"/>
</clipPath>
</defs>
</svg>
