<svg width="1440" height="800" viewBox="0 0 1440 800" fill="none" xmlns="http://www.w3.org/2000/svg">
<g clip-path="url(#clip0)">
<rect width="1440" height="800" fill="#25242F"/>
<rect width="1440" height="800" fill="url(#paint0_radial)"/>
<ellipse cx="720" cy="834" rx="1391" ry="835" fill="#EA748D"/>
<ellipse cx="720" cy="834" rx="813" ry="488" fill="#F9E28E"/>
<ellipse cx="720" cy="834" rx="520" ry="312" fill="#25242F"/>
<g filter="url(#filter0_ddddd)">
<path d="M1008.72 82.3396C1012.89 98.2166 1003.29 114.445 987.415 118.618C971.538 122.791 955.396 113.329 951.223 97.4516C947.05 81.5746 956.538 65.321 972.414 61.1479C988.291 56.9749 1004.55 66.4627 1008.72 82.3396Z" fill="white"/>
<path d="M979.828 119.624L979.97 89.8956L964.983 115.57C969.486 118.193 974.617 119.594 979.828 119.624Z" fill="#E383A5"/>
<path d="M954.158 104.635L979.97 89.8956L950.243 89.7537C950.214 94.8053 951.473 99.9321 954.158 104.635V104.635Z" fill="#E383A5"/>
<path d="M954.296 74.9085L979.97 89.8955L965.232 64.0829C960.529 66.768 956.839 70.5433 954.296 74.9085V74.9085Z" fill="#E383A5"/>
<path d="M980.112 60.1676L980.11 60.6431L979.97 89.8955L994.957 64.2213C990.454 61.5984 985.324 60.1973 980.112 60.1676V60.1676Z" fill="#E383A5"/>
<path d="M979.97 89.8955L994.709 115.708C999.412 113.023 1003.1 109.248 1005.64 104.882L979.97 89.8955Z" fill="#E383A5"/>
<path d="M1005.78 75.1565L979.97 89.8954L1009.7 90.0375C1009.73 84.9857 1008.47 79.859 1005.78 75.1565V75.1565Z" fill="#E383A5"/>
<path d="M986.158 113.438C999.16 110.02 1006.93 96.7098 1003.51 83.7079C1000.09 70.706 986.784 62.9362 973.783 66.3536C960.781 69.7709 953.011 83.0814 956.428 96.0833C959.846 109.085 973.156 116.855 986.158 113.438Z" fill="#E383A5"/>
<path d="M985.297 110.162C996.46 107.228 1003.13 95.8009 1000.2 84.6384C997.262 73.4759 985.835 66.8053 974.672 69.7392C963.51 72.6731 956.839 84.1005 959.773 95.263C962.707 106.426 974.135 113.096 985.297 110.162Z" fill="#E383A5"/>
<path d="M984.39 106.711C993.647 104.278 999.179 94.802 996.746 85.5453C994.313 76.2886 984.836 70.7569 975.58 73.1899C966.323 75.6229 960.791 85.0992 963.224 94.3559C965.657 103.613 975.134 109.144 984.39 106.711Z" fill="white"/>
<circle opacity="0.1" cx="980.036" cy="89.9356" r="20.0306" transform="rotate(-14.7263 980.036 89.9356)" stroke="black" stroke-width="1.74179"/>
<circle cx="980.036" cy="89.9356" r="20.0306" transform="rotate(-14.7263 980.036 89.9356)" stroke="white" stroke-width="1.74179" stroke-dasharray="6.97 6.97"/>
<path d="M980.688 93.9713L981.175 95.8243L972.483 98.109L972.097 96.6434L975.612 90.9653C976.007 90.3211 976.245 89.7902 976.327 89.3723C976.418 88.9403 976.415 88.539 976.317 88.1684C976.173 87.6181 975.877 87.2457 975.429 87.0511C974.982 86.8565 974.399 86.8537 973.68 87.0426C972.478 87.3584 971.665 88.0104 971.241 88.9985L969.398 88.2222C969.696 87.4835 970.188 86.8438 970.874 86.3032C971.569 85.7485 972.399 85.3442 973.365 85.0903C974.645 84.7538 975.747 84.7884 976.67 85.1941C977.593 85.5999 978.192 86.3249 978.466 87.3694C978.635 88.0095 978.658 88.6458 978.536 89.2781C978.414 89.9105 978.066 90.6864 977.491 91.6059L975.129 95.4324L980.688 93.9713Z" fill="#25242F"/>
<path d="M984.229 87.2956C985.891 86.8588 987.206 86.8612 988.175 87.303C989.14 87.7336 989.769 88.5048 990.061 89.6166C990.247 90.3241 990.242 91.01 990.044 91.6743C989.846 92.3385 989.444 92.9306 988.836 93.4505C988.228 93.9705 987.413 94.3647 986.391 94.6334C985.549 94.8547 984.704 94.9508 983.856 94.9216C983.005 94.8812 982.254 94.7184 981.602 94.4333L982.082 92.4884C982.614 92.7326 983.212 92.8818 983.874 92.9357C984.545 92.9755 985.206 92.9098 985.857 92.7386C986.632 92.535 987.197 92.2183 987.553 91.7888C987.916 91.345 988.024 90.8424 987.877 90.2808C987.717 89.6744 987.356 89.283 986.794 89.1067C986.239 88.9162 985.384 88.973 984.227 89.2771L981.38 90.0253L980.3 83.4477L987.223 81.6279L987.706 83.4641L982.635 84.7968L983.1 87.5923L984.229 87.2956Z" fill="#25242F"/>
</g>
<g filter="url(#filter1_ddddd)">
<path d="M360.368 119.616C371.602 140.289 364.057 166.01 343.384 177.244C322.712 188.478 296.741 180.971 285.507 160.299C274.273 139.627 281.924 113.762 302.596 102.528C323.268 91.2934 349.134 98.9442 360.368 119.616Z" fill="white"/>
<path d="M332.9 181.383L322.937 139.958L310.852 180.814C318.016 182.926 325.636 183.123 332.9 181.383Z" fill="#25242F"/>
<path d="M292.047 169.294L322.937 139.958L281.512 149.92C283.198 156.961 286.703 163.666 292.047 169.294V169.294Z" fill="#25242F"/>
<path d="M282.081 127.872L322.937 139.958L293.602 109.068C287.974 114.412 284.128 120.928 282.081 127.872V127.872Z" fill="#25242F"/>
<path d="M312.976 98.5326L313.135 99.1952L322.938 139.958L335.023 99.1015C327.859 96.9897 320.239 96.793 312.976 98.5326V98.5326Z" fill="#25242F"/>
<path d="M322.938 139.958L352.274 170.848C357.901 165.504 361.747 158.988 363.794 152.043L322.938 139.958Z" fill="#25242F"/>
<path d="M353.828 110.622L322.938 139.958L364.363 129.996C362.677 122.955 359.172 116.249 353.828 110.622V110.622Z" fill="#25242F"/>
<path d="M339.595 170.61C356.524 161.41 362.79 140.229 353.59 123.3C344.39 106.371 323.208 100.106 306.279 109.306C289.351 118.505 283.085 139.687 292.285 156.616C301.485 173.544 322.666 179.81 339.595 170.61Z" fill="#25242F"/>
<path d="M337.278 166.346C351.812 158.447 357.191 140.262 349.292 125.728C341.394 111.195 323.209 105.816 308.675 113.714C294.141 121.612 288.762 139.797 296.661 154.331C304.559 168.865 322.744 174.244 337.278 166.346Z" fill="#25242F"/>
<path d="M334.836 161.853C346.888 155.303 351.349 140.223 344.799 128.17C338.249 116.118 323.169 111.657 311.117 118.207C299.064 124.757 294.604 139.837 301.153 151.889C307.703 163.942 322.783 168.402 334.836 161.853Z" fill="white"/>
<circle opacity="0.1" cx="323.043" cy="139.991" r="28.7077" transform="rotate(-28.5217 323.043 139.991)" stroke="#25242F" stroke-width="2.49632"/>
<circle cx="323.043" cy="139.991" r="28.7077" transform="rotate(-28.5217 323.043 139.991)" stroke="white" stroke-width="2.49632" stroke-dasharray="9.99 9.99"/>
<path d="M308.327 138.975L315.669 152.487L313.16 153.85L306.961 142.443L304.104 143.995L302.961 141.892L308.327 138.975Z" fill="#25242F"/>
<path d="M324.09 148.16C323.009 148.748 321.898 149.002 320.755 148.923C319.605 148.831 318.502 148.397 317.447 147.62C316.384 146.831 315.461 145.716 314.678 144.274C313.895 142.833 313.465 141.459 313.387 140.151C313.303 138.83 313.538 137.668 314.094 136.666C314.642 135.652 315.457 134.85 316.538 134.263C317.619 133.676 318.734 133.428 319.884 133.52C321.04 133.591 322.149 134.022 323.212 134.812C324.267 135.588 325.186 136.697 325.97 138.138C326.753 139.579 327.187 140.96 327.271 142.281C327.348 143.589 327.106 144.754 326.545 145.776C325.989 146.778 325.171 147.573 324.09 148.16ZM322.905 145.979C323.87 145.455 324.413 144.643 324.532 143.545C324.665 142.439 324.301 141.095 323.441 139.512C322.581 137.93 321.651 136.893 320.651 136.403C319.664 135.906 318.688 135.92 317.723 136.444C316.771 136.962 316.229 137.773 316.096 138.879C315.976 139.977 316.347 141.318 317.207 142.9C318.067 144.483 318.99 145.523 319.977 146.02C320.977 146.51 321.953 146.497 322.905 145.979Z" fill="#25242F"/>
<path d="M337.077 141.102C335.997 141.69 334.885 141.944 333.742 141.865C332.592 141.773 331.489 141.339 330.434 140.563C329.371 139.773 328.448 138.658 327.665 137.217C326.882 135.776 326.452 134.401 326.374 133.093C326.29 131.772 326.525 130.611 327.081 129.609C327.629 128.594 328.444 127.793 329.525 127.205C330.606 126.618 331.721 126.37 332.871 126.462C334.027 126.534 335.136 126.964 336.199 127.754C337.254 128.53 338.173 129.639 338.957 131.08C339.74 132.522 340.174 133.903 340.258 135.224C340.336 136.532 340.094 137.696 339.532 138.718C338.977 139.72 338.158 140.515 337.077 141.102ZM335.892 138.921C336.857 138.397 337.4 137.585 337.519 136.487C337.652 135.381 337.288 134.037 336.428 132.455C335.568 130.872 334.638 129.835 333.638 129.345C332.651 128.848 331.675 128.862 330.71 129.386C329.758 129.904 329.216 130.715 329.083 131.821C328.963 132.919 329.334 134.26 330.194 135.843C331.054 137.425 331.977 138.465 332.964 138.962C333.964 139.452 334.94 139.439 335.892 138.921Z" fill="#25242F"/>
</g>
<g filter="url(#filter2_ddddd)">
<path d="M1393.17 259.437C1386.23 283.357 1361.07 296.996 1337.15 290.059C1313.23 283.121 1299.61 258.235 1306.55 234.314C1313.49 210.394 1338.5 196.627 1362.42 203.564C1386.34 210.502 1400.11 235.517 1393.17 259.437Z" fill="white"/>
<path d="M1326.51 285.466L1349.86 246.876L1310.35 268.622C1314.17 275.545 1319.75 281.367 1326.51 285.466Z" fill="#746CAD"/>
<path d="M1304.77 245.952L1349.86 246.876L1311.27 223.529C1307.3 230.083 1304.94 237.738 1304.77 245.952V245.952Z" fill="#746CAD"/>
<path d="M1328.11 207.362L1349.86 246.876L1350.78 201.789C1342.57 201.621 1334.82 203.66 1328.11 207.362V207.362Z" fill="#746CAD"/>
<path d="M1373.21 208.286L1372.83 208.903L1349.86 246.876L1389.37 225.129C1385.56 218.206 1379.97 212.384 1373.21 208.286V208.286Z" fill="#746CAD"/>
<path d="M1349.86 246.875L1348.94 291.962C1357.15 292.131 1364.9 290.091 1371.61 286.389L1349.86 246.875Z" fill="#746CAD"/>
<path d="M1394.95 247.799L1349.86 246.876L1388.45 270.222C1392.42 263.668 1394.78 256.013 1394.95 247.799V247.799Z" fill="#746CAD"/>
<path d="M1339.57 282.344C1359.16 288.025 1379.65 276.751 1385.33 257.162C1391.01 237.573 1379.74 217.088 1360.15 211.407C1340.56 205.726 1320.07 217 1314.39 236.589C1308.71 256.178 1319.99 276.663 1339.57 282.344Z" fill="white"/>
<path d="M1341 277.409C1357.82 282.287 1375.41 272.607 1380.29 255.79C1385.16 238.972 1375.49 221.385 1358.67 216.508C1341.85 211.63 1324.26 221.31 1319.39 238.127C1314.51 254.945 1324.19 272.532 1341 277.409Z" fill="white"/>
<circle opacity="0.1" cx="1349.91" cy="246.979" r="30.3896" transform="rotate(16.1732 1349.91 246.979)" stroke="black" stroke-width="2.64257"/>
<circle cx="1349.91" cy="246.979" r="30.3896" transform="rotate(16.1732 1349.91 246.979)" stroke="#746CAD" stroke-width="2.64257" stroke-dasharray="10.57 10.57"/>
<path d="M1346.18 235.555L1341.03 253.321L1337.73 252.364L1342.08 237.364L1338.33 236.275L1339.13 233.508L1346.18 235.555Z" fill="#25242F"/>
<path d="M1351.89 256.746C1350.47 256.334 1349.31 255.61 1348.39 254.576C1347.49 253.524 1346.91 252.22 1346.67 250.663C1346.43 249.089 1346.58 247.355 1347.13 245.46C1347.68 243.565 1348.48 242.025 1349.52 240.841C1350.56 239.64 1351.75 238.846 1353.07 238.46C1354.4 238.056 1355.77 238.06 1357.19 238.472C1358.61 238.885 1359.78 239.616 1360.68 240.668C1361.61 241.707 1362.19 243.014 1362.43 244.588C1362.68 246.145 1362.53 247.871 1361.98 249.766C1361.43 251.661 1360.63 253.209 1359.59 254.41C1358.55 255.594 1357.35 256.385 1356.01 256.784C1354.69 257.171 1353.31 257.158 1351.89 256.746ZM1352.72 253.878C1353.99 254.246 1355.14 254.011 1356.18 253.173C1357.22 252.34 1358.05 250.883 1358.65 248.802C1359.26 246.72 1359.34 245.047 1358.9 243.782C1358.48 242.522 1357.63 241.708 1356.36 241.34C1355.11 240.977 1353.96 241.212 1352.91 242.045C1351.88 242.883 1351.06 244.343 1350.46 246.424C1349.85 248.505 1349.76 250.176 1350.19 251.436C1350.63 252.701 1351.47 253.515 1352.72 253.878Z" fill="#25242F"/>
</g>
<g filter="url(#filter3_ddddd)">
<rect x="414" y="445.758" width="141.397" height="200.091" rx="5.33575" transform="rotate(-25 414 445.758)" fill="white"/>
<g clip-path="url(#clip1)">
<path d="M543.98 498.961C537.901 494.934 532.525 495.963 529.086 497.536C526.155 498.879 523.649 501.066 521.851 503.861L520.445 506.031L517.884 505.713C514.582 505.294 511.298 505.803 508.383 507.19C504.968 508.813 500.725 512.27 499.902 519.515C499.239 525.356 501.679 530.78 506.596 534.395C510.399 537.191 514.98 538.702 519.41 540.164C520.191 540.421 520.928 540.664 521.666 540.916C524.431 541.859 527.19 542.726 529.858 543.564C532.508 544.396 535.248 545.257 537.977 546.188L539.397 546.672L539.938 545.273C540.979 542.584 542.081 539.932 543.147 537.367C544.22 534.785 545.33 532.114 546.384 529.39C546.666 528.663 546.953 527.942 547.258 527.178C548.986 522.845 550.773 518.364 551.076 513.654C551.467 507.563 548.88 502.208 543.98 498.961Z" fill="#DD7678"/>
</g>
<path d="M454.85 464.499L445.541 468.84L445.715 474.004L442.151 475.666L441.847 453.142L445.252 451.554L462.338 466.253L458.721 467.94L454.85 464.499ZM452.441 462.319L445.135 455.818L445.446 465.581L452.441 462.319Z" fill="#25242F"/>
<g clip-path="url(#clip2)">
<path d="M471.257 482.961C468.217 480.948 465.53 481.462 463.81 482.248C462.344 482.92 461.092 484.013 460.193 485.411L459.49 486.496L458.209 486.337C456.558 486.127 454.916 486.382 453.458 487.075C451.751 487.887 449.629 489.615 449.218 493.238C448.886 496.158 450.106 498.87 452.565 500.678C454.466 502.076 456.757 502.832 458.972 503.562C459.362 503.691 459.731 503.813 460.1 503.938C461.482 504.41 462.862 504.843 464.196 505.262C465.521 505.678 466.891 506.109 468.255 506.574L468.965 506.817L469.236 506.117C469.757 504.772 470.308 503.446 470.84 502.164C471.377 500.873 471.932 499.538 472.459 498.175C472.6 497.812 472.744 497.451 472.896 497.07C473.76 494.903 474.654 492.663 474.805 490.307C475 487.262 473.707 484.584 471.257 482.961Z" fill="#DD7678"/>
</g>
</g>
<g filter="url(#filter4_ddddd)">
<rect x="567.099" y="381.797" width="141.397" height="200.091" rx="5.33575" transform="rotate(-10 567.099 381.797)" fill="white"/>
<g clip-path="url(#clip3)">
<path d="M680.199 482.109C677.566 479.379 674.069 477.883 670.351 477.898C670.131 477.898 669.911 477.905 669.692 477.916C670.103 476.157 670.155 474.334 669.839 472.536C668.51 465.004 661.058 459.999 653.227 461.38C645.396 462.761 640.105 470.013 641.433 477.545C641.75 479.343 642.423 481.037 643.411 482.55C643.201 482.614 642.992 482.684 642.786 482.758C639.287 484.016 636.512 486.618 634.971 490.084C633.441 493.526 633.315 497.411 634.614 501.024C635.913 504.636 638.486 507.551 641.858 509.23C645.253 510.92 649.049 511.158 652.548 509.9C653.736 509.473 654.849 508.883 655.862 508.151C655.712 509.324 655.426 510.027 655.124 510.33L654.552 510.905L655.308 515.194L669.677 512.66L668.92 508.372L668.186 508.027C667.799 507.846 667.289 507.282 666.747 506.232C667.949 506.573 669.197 506.746 670.46 506.741C674.178 506.727 677.664 505.205 680.276 502.456C682.87 499.725 684.291 496.106 684.276 492.267C684.262 488.428 682.814 484.82 680.199 482.109Z" fill="#25242F"/>
</g>
<path d="M601.706 410.473L591.591 412.256L590.422 417.29L586.55 417.973L592.086 396.137L595.786 395.484L608.485 414.105L604.555 414.798L601.706 410.473ZM599.944 407.744L594.569 399.573L592.343 409.084L599.944 407.744Z" fill="#25242F"/>
<g clip-path="url(#clip4)">
<path d="M613.435 440.192C612.119 438.827 610.37 438.08 608.511 438.087C608.401 438.087 608.291 438.09 608.182 438.096C608.387 437.216 608.414 436.305 608.255 435.406C607.591 431.64 603.865 429.138 599.949 429.828C596.034 430.518 593.388 434.144 594.052 437.91C594.211 438.809 594.547 439.656 595.042 440.413C594.936 440.445 594.832 440.48 594.729 440.517C592.979 441.146 591.592 442.447 590.822 444.18C590.057 445.901 589.993 447.843 590.643 449.65C591.293 451.456 592.579 452.913 594.265 453.753C595.962 454.598 597.86 454.717 599.61 454.088C600.204 453.874 600.761 453.579 601.267 453.213C601.192 453.8 601.049 454.152 600.898 454.303L600.612 454.591L600.99 456.735L608.174 455.468L607.796 453.324L607.429 453.151C607.235 453.061 606.981 452.779 606.71 452.254C607.311 452.424 607.935 452.511 608.566 452.508C610.425 452.501 612.168 451.74 613.474 450.366C614.771 449 615.481 447.191 615.474 445.271C615.467 443.352 614.743 441.548 613.435 440.192Z" fill="#25242F"/>
</g>
</g>
<g filter="url(#filter5_ddddd)">
<rect x="739.745" y="357" width="141.397" height="200.091" rx="5.33575" transform="rotate(10 739.745 357)" fill="white"/>
<g clip-path="url(#clip5)">
<path d="M793.46 461.241L768.694 483.965L784.195 513.788L808.96 491.065L793.46 461.241Z" fill="#DD7678"/>
</g>
<path d="M762.458 395.783L752.343 393.999L749.523 398.329L745.65 397.647L758.321 379.021L762.021 379.673L767.586 401.514L763.656 400.821L762.458 395.783ZM761.735 392.616L759.48 383.099L754.134 391.275L761.735 392.616Z" fill="#25242F"/>
<g clip-path="url(#clip6)">
<path d="M754.187 413.369L741.804 424.731L749.555 439.643L761.938 428.281L754.187 413.369Z" fill="#DD7678"/>
</g>
</g>
<g filter="url(#filter6_ddddd)">
<rect x="898.562" y="389" width="141.397" height="200.091" rx="5.33575" transform="rotate(25 898.562 389)" fill="white"/>
<g clip-path="url(#clip7)">
<path d="M934.606 535.088C934.318 530.595 932.616 526.328 930.97 522.201C930.681 521.475 930.407 520.79 930.14 520.099C929.136 517.507 928.081 514.967 927.06 512.51C926.046 510.071 924.999 507.549 924.009 504.993L923.467 503.592L922.045 504.077C919.451 504.962 916.845 505.781 914.326 506.572C911.788 507.369 909.164 508.193 906.533 509.091C905.832 509.33 905.131 509.561 904.389 509.806C900.169 511.198 895.806 512.637 892.179 515.304C887.48 518.759 885.148 523.943 885.782 529.527C886.568 536.453 890.626 539.758 893.892 541.31C895.591 542.117 897.432 542.615 899.327 542.788C898.284 544.094 897.454 544.682 896.942 544.773L896.143 544.916L894.301 548.866L907.532 555.035L909.374 551.086L908.97 550.382C908.711 549.931 908.628 548.917 908.957 547.279C910.308 548.62 911.874 549.712 913.583 550.493C916.872 551.996 922.011 552.981 927.822 549.131C932.508 546.027 934.98 540.909 934.606 535.088Z" fill="#25242F"/>
</g>
<path d="M910.463 432.34L901.154 427.999L897.31 431.452L893.746 429.79L910.806 415.079L914.21 416.666L913.933 439.204L910.316 437.517L910.463 432.34ZM910.585 429.094L910.869 419.318L903.59 425.832L910.585 429.094Z" fill="#25242F"/>
<g clip-path="url(#clip8)">
<path d="M903.492 462.934C903.348 460.688 902.497 458.555 901.674 456.491C901.529 456.128 901.392 455.785 901.259 455.44C900.757 454.144 900.229 452.874 899.719 451.646C899.212 450.426 898.688 449.165 898.193 447.887L897.922 447.187L897.212 447.429C895.914 447.872 894.611 448.281 893.352 448.677C892.083 449.075 890.771 449.487 889.455 449.936C889.105 450.056 888.754 450.171 888.383 450.293C886.274 450.989 884.092 451.709 882.279 453.042C879.929 454.77 878.763 457.362 879.08 460.154C879.473 463.617 881.502 465.27 883.135 466.046C883.984 466.449 884.905 466.698 885.853 466.785C885.331 467.438 884.916 467.732 884.66 467.777L884.26 467.849L883.339 469.823L889.955 472.908L890.876 470.934L890.674 470.582C890.544 470.356 890.503 469.849 890.668 469.03C891.343 469.701 892.126 470.247 892.98 470.637C894.625 471.389 897.195 471.881 900.1 469.956C902.443 468.404 903.679 465.845 903.492 462.934Z" fill="#25242F"/>
</g>
</g>
<mask id="path-62-outside-1" maskUnits="userSpaceOnUse" x="350.224" y="163.648" width="728" height="86" fill="black">
<rect fill="white" x="350.224" y="163.648" width="728" height="86"/>
<path d="M412.769 204.924C417.27 206.499 420.797 208.975 423.347 212.351C425.898 215.652 427.174 219.666 427.174 224.393C427.174 231.295 424.398 236.622 418.846 240.373C413.294 244.124 405.266 246 394.763 246H352.224V167.224H392.512C402.565 167.224 410.218 169.099 415.47 172.851C420.722 176.527 423.347 181.516 423.347 187.818C423.347 191.569 422.41 194.945 420.534 197.946C418.733 200.872 416.145 203.198 412.769 204.924ZM374.281 183.317V198.509H389.586C397.089 198.509 400.84 195.958 400.84 190.857C400.84 185.83 397.089 183.317 389.586 183.317H374.281ZM392.962 229.907C400.765 229.907 404.666 227.244 404.666 221.917C404.666 216.59 400.765 213.927 392.962 213.927H374.281V229.907H392.962Z"/>
<path d="M438.715 167.224H460.997V228.332H498.585V246H438.715V167.224Z"/>
<path d="M561.062 230.695H527.751L521.561 246H498.828L533.603 167.224H555.547L590.434 246H567.251L561.062 230.695ZM554.535 214.264L544.406 189.056L534.278 214.264H554.535Z"/>
<path d="M634.928 247.576C626.675 247.576 619.247 245.85 612.645 242.399C606.118 238.873 600.979 233.996 597.228 227.769C593.476 221.542 591.601 214.49 591.601 206.612C591.601 198.734 593.476 191.682 597.228 185.455C600.979 179.228 606.118 174.389 612.645 170.937C619.247 167.411 626.675 165.648 634.928 165.648C642.13 165.648 648.62 166.924 654.397 169.474C660.174 172.025 664.975 175.702 668.801 180.503L654.622 193.332C649.52 187.18 643.331 184.104 636.053 184.104C631.777 184.104 627.95 185.042 624.574 186.918C621.273 188.793 618.685 191.457 616.809 194.908C615.009 198.284 614.108 202.185 614.108 206.612C614.108 211.038 615.009 214.977 616.809 218.428C618.685 221.804 621.273 224.43 624.574 226.306C627.95 228.182 631.777 229.119 636.053 229.119C643.331 229.119 649.52 226.043 654.622 219.891L668.801 232.721C664.975 237.522 660.174 241.198 654.397 243.749C648.62 246.3 642.13 247.576 634.928 247.576Z"/>
<path d="M709.122 217.415L700.794 226.306V246H678.736V167.224H700.794V199.972L731.292 167.224H755.825L723.639 202.11L757.513 246H731.629L709.122 217.415Z"/>
<path d="M780.578 247.576C774.801 247.576 769.549 246.6 764.822 244.65C760.096 242.624 756.232 239.735 753.231 235.984L765.385 221.579C769.587 227.056 774.126 229.795 779.002 229.795C782.228 229.795 784.667 228.819 786.317 226.869C788.043 224.918 788.905 222.067 788.905 218.316V184.442H761.671V167.224H810.963V216.965C810.963 227.169 808.374 234.821 803.198 239.923C798.096 245.025 790.556 247.576 780.578 247.576Z"/>
<path d="M877.134 230.695H843.823L837.633 246H814.901L849.675 167.224H871.62L906.506 246H883.324L877.134 230.695ZM870.607 214.264L860.478 189.056L850.35 214.264H870.607Z"/>
<path d="M951 247.576C942.747 247.576 935.32 245.85 928.718 242.399C922.19 238.873 917.051 233.996 913.3 227.769C909.549 221.542 907.673 214.49 907.673 206.612C907.673 198.734 909.549 191.682 913.3 185.455C917.051 179.228 922.19 174.389 928.718 170.937C935.32 167.411 942.747 165.648 951 165.648C958.202 165.648 964.692 166.924 970.469 169.474C976.246 172.025 981.048 175.702 984.874 180.503L970.694 193.332C965.592 187.18 959.403 184.104 952.125 184.104C947.849 184.104 944.023 185.042 940.647 186.918C937.346 188.793 934.757 191.457 932.881 194.908C931.081 198.284 930.181 202.185 930.181 206.612C930.181 211.038 931.081 214.977 932.881 218.428C934.757 221.804 937.346 224.43 940.647 226.306C944.023 228.182 947.849 229.119 952.125 229.119C959.403 229.119 965.592 226.043 970.694 219.891L984.874 232.721C981.048 237.522 976.246 241.198 970.469 243.749C964.692 246.3 958.202 247.576 951 247.576Z"/>
<path d="M1025.19 217.415L1016.87 226.306V246H994.809V167.224H1016.87V199.972L1047.36 167.224H1071.9L1039.71 202.11L1073.59 246H1047.7L1025.19 217.415Z"/>
</mask>
<path d="M412.769 204.924C417.27 206.499 420.797 208.975 423.347 212.351C425.898 215.652 427.174 219.666 427.174 224.393C427.174 231.295 424.398 236.622 418.846 240.373C413.294 244.124 405.266 246 394.763 246H352.224V167.224H392.512C402.565 167.224 410.218 169.099 415.47 172.851C420.722 176.527 423.347 181.516 423.347 187.818C423.347 191.569 422.41 194.945 420.534 197.946C418.733 200.872 416.145 203.198 412.769 204.924ZM374.281 183.317V198.509H389.586C397.089 198.509 400.84 195.958 400.84 190.857C400.84 185.83 397.089 183.317 389.586 183.317H374.281ZM392.962 229.907C400.765 229.907 404.666 227.244 404.666 221.917C404.666 216.59 400.765 213.927 392.962 213.927H374.281V229.907H392.962Z" fill="#25242F"/>
<path d="M438.715 167.224H460.997V228.332H498.585V246H438.715V167.224Z" fill="#25242F"/>
<path d="M561.062 230.695H527.751L521.561 246H498.828L533.603 167.224H555.547L590.434 246H567.251L561.062 230.695ZM554.535 214.264L544.406 189.056L534.278 214.264H554.535Z" fill="#25242F"/>
<path d="M634.928 247.576C626.675 247.576 619.247 245.85 612.645 242.399C606.118 238.873 600.979 233.996 597.228 227.769C593.476 221.542 591.601 214.49 591.601 206.612C591.601 198.734 593.476 191.682 597.228 185.455C600.979 179.228 606.118 174.389 612.645 170.937C619.247 167.411 626.675 165.648 634.928 165.648C642.13 165.648 648.62 166.924 654.397 169.474C660.174 172.025 664.975 175.702 668.801 180.503L654.622 193.332C649.52 187.18 643.331 184.104 636.053 184.104C631.777 184.104 627.95 185.042 624.574 186.918C621.273 188.793 618.685 191.457 616.809 194.908C615.009 198.284 614.108 202.185 614.108 206.612C614.108 211.038 615.009 214.977 616.809 218.428C618.685 221.804 621.273 224.43 624.574 226.306C627.95 228.182 631.777 229.119 636.053 229.119C643.331 229.119 649.52 226.043 654.622 219.891L668.801 232.721C664.975 237.522 660.174 241.198 654.397 243.749C648.62 246.3 642.13 247.576 634.928 247.576Z" fill="#25242F"/>
<path d="M709.122 217.415L700.794 226.306V246H678.736V167.224H700.794V199.972L731.292 167.224H755.825L723.639 202.11L757.513 246H731.629L709.122 217.415Z" fill="#25242F"/>
<path d="M780.578 247.576C774.801 247.576 769.549 246.6 764.822 244.65C760.096 242.624 756.232 239.735 753.231 235.984L765.385 221.579C769.587 227.056 774.126 229.795 779.002 229.795C782.228 229.795 784.667 228.819 786.317 226.869C788.043 224.918 788.905 222.067 788.905 218.316V184.442H761.671V167.224H810.963V216.965C810.963 227.169 808.374 234.821 803.198 239.923C798.096 245.025 790.556 247.576 780.578 247.576Z" fill="#25242F"/>
<path d="M877.134 230.695H843.823L837.633 246H814.901L849.675 167.224H871.62L906.506 246H883.324L877.134 230.695ZM870.607 214.264L860.478 189.056L850.35 214.264H870.607Z" fill="#25242F"/>
<path d="M951 247.576C942.747 247.576 935.32 245.85 928.718 242.399C922.19 238.873 917.051 233.996 913.3 227.769C909.549 221.542 907.673 214.49 907.673 206.612C907.673 198.734 909.549 191.682 913.3 185.455C917.051 179.228 922.19 174.389 928.718 170.937C935.32 167.411 942.747 165.648 951 165.648C958.202 165.648 964.692 166.924 970.469 169.474C976.246 172.025 981.048 175.702 984.874 180.503L970.694 193.332C965.592 187.18 959.403 184.104 952.125 184.104C947.849 184.104 944.023 185.042 940.647 186.918C937.346 188.793 934.757 191.457 932.881 194.908C931.081 198.284 930.181 202.185 930.181 206.612C930.181 211.038 931.081 214.977 932.881 218.428C934.757 221.804 937.346 224.43 940.647 226.306C944.023 228.182 947.849 229.119 952.125 229.119C959.403 229.119 965.592 226.043 970.694 219.891L984.874 232.721C981.048 237.522 976.246 241.198 970.469 243.749C964.692 246.3 958.202 247.576 951 247.576Z" fill="#25242F"/>
<path d="M1025.19 217.415L1016.87 226.306V246H994.809V167.224H1016.87V199.972L1047.36 167.224H1071.9L1039.71 202.11L1073.59 246H1047.7L1025.19 217.415Z" fill="#25242F"/>
<path d="M412.769 204.924C417.27 206.499 420.797 208.975 423.347 212.351C425.898 215.652 427.174 219.666 427.174 224.393C427.174 231.295 424.398 236.622 418.846 240.373C413.294 244.124 405.266 246 394.763 246H352.224V167.224H392.512C402.565 167.224 410.218 169.099 415.47 172.851C420.722 176.527 423.347 181.516 423.347 187.818C423.347 191.569 422.41 194.945 420.534 197.946C418.733 200.872 416.145 203.198 412.769 204.924ZM374.281 183.317V198.509H389.586C397.089 198.509 400.84 195.958 400.84 190.857C400.84 185.83 397.089 183.317 389.586 183.317H374.281ZM392.962 229.907C400.765 229.907 404.666 227.244 404.666 221.917C404.666 216.59 400.765 213.927 392.962 213.927H374.281V229.907H392.962Z" stroke="#25242F" stroke-width="4" mask="url(#path-62-outside-1)"/>
<path d="M438.715 167.224H460.997V228.332H498.585V246H438.715V167.224Z" stroke="#25242F" stroke-width="4" mask="url(#path-62-outside-1)"/>
<path d="M561.062 230.695H527.751L521.561 246H498.828L533.603 167.224H555.547L590.434 246H567.251L561.062 230.695ZM554.535 214.264L544.406 189.056L534.278 214.264H554.535Z" stroke="#25242F" stroke-width="4" mask="url(#path-62-outside-1)"/>
<path d="M634.928 247.576C626.675 247.576 619.247 245.85 612.645 242.399C606.118 238.873 600.979 233.996 597.228 227.769C593.476 221.542 591.601 214.49 591.601 206.612C591.601 198.734 593.476 191.682 597.228 185.455C600.979 179.228 606.118 174.389 612.645 170.937C619.247 167.411 626.675 165.648 634.928 165.648C642.13 165.648 648.62 166.924 654.397 169.474C660.174 172.025 664.975 175.702 668.801 180.503L654.622 193.332C649.52 187.18 643.331 184.104 636.053 184.104C631.777 184.104 627.95 185.042 624.574 186.918C621.273 188.793 618.685 191.457 616.809 194.908C615.009 198.284 614.108 202.185 614.108 206.612C614.108 211.038 615.009 214.977 616.809 218.428C618.685 221.804 621.273 224.43 624.574 226.306C627.95 228.182 631.777 229.119 636.053 229.119C643.331 229.119 649.52 226.043 654.622 219.891L668.801 232.721C664.975 237.522 660.174 241.198 654.397 243.749C648.62 246.3 642.13 247.576 634.928 247.576Z" stroke="#25242F" stroke-width="4" mask="url(#path-62-outside-1)"/>
<path d="M709.122 217.415L700.794 226.306V246H678.736V167.224H700.794V199.972L731.292 167.224H755.825L723.639 202.11L757.513 246H731.629L709.122 217.415Z" stroke="#25242F" stroke-width="4" mask="url(#path-62-outside-1)"/>
<path d="M780.578 247.576C774.801 247.576 769.549 246.6 764.822 244.65C760.096 242.624 756.232 239.735 753.231 235.984L765.385 221.579C769.587 227.056 774.126 229.795 779.002 229.795C782.228 229.795 784.667 228.819 786.317 226.869C788.043 224.918 788.905 222.067 788.905 218.316V184.442H761.671V167.224H810.963V216.965C810.963 227.169 808.374 234.821 803.198 239.923C798.096 245.025 790.556 247.576 780.578 247.576Z" stroke="#25242F" stroke-width="4" mask="url(#path-62-outside-1)"/>
<path d="M877.134 230.695H843.823L837.633 246H814.901L849.675 167.224H871.62L906.506 246H883.324L877.134 230.695ZM870.607 214.264L860.478 189.056L850.35 214.264H870.607Z" stroke="#25242F" stroke-width="4" mask="url(#path-62-outside-1)"/>
<path d="M951 247.576C942.747 247.576 935.32 245.85 928.718 242.399C922.19 238.873 917.051 233.996 913.3 227.769C909.549 221.542 907.673 214.49 907.673 206.612C907.673 198.734 909.549 191.682 913.3 185.455C917.051 179.228 922.19 174.389 928.718 170.937C935.32 167.411 942.747 165.648 951 165.648C958.202 165.648 964.692 166.924 970.469 169.474C976.246 172.025 981.048 175.702 984.874 180.503L970.694 193.332C965.592 187.18 959.403 184.104 952.125 184.104C947.849 184.104 944.023 185.042 940.647 186.918C937.346 188.793 934.757 191.457 932.881 194.908C931.081 198.284 930.181 202.185 930.181 206.612C930.181 211.038 931.081 214.977 932.881 218.428C934.757 221.804 937.346 224.43 940.647 226.306C944.023 228.182 947.849 229.119 952.125 229.119C959.403 229.119 965.592 226.043 970.694 219.891L984.874 232.721C981.048 237.522 976.246 241.198 970.469 243.749C964.692 246.3 958.202 247.576 951 247.576Z" stroke="#25242F" stroke-width="4" mask="url(#path-62-outside-1)"/>
<path d="M1025.19 217.415L1016.87 226.306V246H994.809V167.224H1016.87V199.972L1047.36 167.224H1071.9L1039.71 202.11L1073.59 246H1047.7L1025.19 217.415Z" stroke="#25242F" stroke-width="4" mask="url(#path-62-outside-1)"/>
<path d="M404.769 196.924C409.27 198.499 412.797 200.975 415.347 204.351C417.898 207.652 419.174 211.666 419.174 216.393C419.174 223.295 416.398 228.622 410.846 232.373C405.294 236.124 397.266 238 386.763 238H344.224V159.224H384.512C394.565 159.224 402.218 161.099 407.47 164.851C412.722 168.527 415.347 173.516 415.347 179.818C415.347 183.569 414.41 186.945 412.534 189.946C410.733 192.872 408.145 195.198 404.769 196.924ZM366.281 175.317V190.509H381.586C389.089 190.509 392.84 187.958 392.84 182.857C392.84 177.83 389.089 175.317 381.586 175.317H366.281ZM384.962 221.907C392.765 221.907 396.666 219.244 396.666 213.917C396.666 208.59 392.765 205.927 384.962 205.927H366.281V221.907H384.962Z" fill="url(#paint1_linear)"/>
<path d="M430.715 159.224H452.997V220.332H490.585V238H430.715V159.224Z" fill="url(#paint2_linear)"/>
<path d="M553.062 222.695H519.751L513.561 238H490.828L525.603 159.224H547.547L582.434 238H559.251L553.062 222.695ZM546.535 206.264L536.406 181.056L526.278 206.264H546.535Z" fill="url(#paint3_linear)"/>
<path d="M626.928 239.576C618.675 239.576 611.247 237.85 604.645 234.399C598.118 230.873 592.979 225.996 589.228 219.769C585.476 213.542 583.601 206.49 583.601 198.612C583.601 190.734 585.476 183.682 589.228 177.455C592.979 171.228 598.118 166.389 604.645 162.937C611.247 159.411 618.675 157.648 626.928 157.648C634.13 157.648 640.62 158.924 646.397 161.474C652.174 164.025 656.975 167.702 660.801 172.503L646.622 185.332C641.52 179.18 635.331 176.104 628.053 176.104C623.777 176.104 619.95 177.042 616.574 178.918C613.273 180.793 610.685 183.457 608.809 186.908C607.009 190.284 606.108 194.185 606.108 198.612C606.108 203.038 607.009 206.977 608.809 210.428C610.685 213.804 613.273 216.43 616.574 218.306C619.95 220.182 623.777 221.119 628.053 221.119C635.331 221.119 641.52 218.043 646.622 211.891L660.801 224.721C656.975 229.522 652.174 233.198 646.397 235.749C640.62 238.3 634.13 239.576 626.928 239.576Z" fill="url(#paint4_linear)"/>
<path d="M701.122 209.415L692.794 218.306V238H670.736V159.224H692.794V191.972L723.292 159.224H747.825L715.639 194.11L749.513 238H723.629L701.122 209.415Z" fill="url(#paint5_linear)"/>
<path d="M772.578 239.576C766.801 239.576 761.549 238.6 756.822 236.65C752.096 234.624 748.232 231.735 745.231 227.984L757.385 213.579C761.587 219.056 766.126 221.795 771.002 221.795C774.228 221.795 776.667 220.819 778.317 218.869C780.043 216.918 780.905 214.067 780.905 210.316V176.442H753.671V159.224H802.963V208.965C802.963 219.169 800.374 226.821 795.198 231.923C790.096 237.025 782.556 239.576 772.578 239.576Z" fill="url(#paint6_linear)"/>
<path d="M869.134 222.695H835.823L829.633 238H806.901L841.675 159.224H863.62L898.506 238H875.324L869.134 222.695ZM862.607 206.264L852.478 181.056L842.35 206.264H862.607Z" fill="url(#paint7_linear)"/>
<path d="M943 239.576C934.747 239.576 927.32 237.85 920.718 234.399C914.19 230.873 909.051 225.996 905.3 219.769C901.549 213.542 899.673 206.49 899.673 198.612C899.673 190.734 901.549 183.682 905.3 177.455C909.051 171.228 914.19 166.389 920.718 162.937C927.32 159.411 934.747 157.648 943 157.648C950.202 157.648 956.692 158.924 962.469 161.474C968.246 164.025 973.048 167.702 976.874 172.503L962.694 185.332C957.592 179.18 951.403 176.104 944.125 176.104C939.849 176.104 936.023 177.042 932.647 178.918C929.346 180.793 926.757 183.457 924.881 186.908C923.081 190.284 922.181 194.185 922.181 198.612C922.181 203.038 923.081 206.977 924.881 210.428C926.757 213.804 929.346 216.43 932.647 218.306C936.023 220.182 939.849 221.119 944.125 221.119C951.403 221.119 957.592 218.043 962.694 211.891L976.874 224.721C973.048 229.522 968.246 233.198 962.469 235.749C956.692 238.3 950.202 239.576 943 239.576Z" fill="url(#paint8_linear)"/>
<path d="M1017.19 209.415L1008.87 218.306V238H986.809V159.224H1008.87V191.972L1039.36 159.224H1063.9L1031.71 194.11L1065.59 238H1039.7L1017.19 209.415Z" fill="url(#paint9_linear)"/>
<path d="M537.48 304.222C534.914 304.222 532.595 303.655 530.522 302.52C528.475 301.385 526.859 299.818 525.674 297.819C524.515 295.796 523.935 293.539 523.935 291.047C523.935 288.555 524.515 286.309 525.674 284.311C526.859 282.288 528.487 280.709 530.559 279.574C532.632 278.439 534.951 277.871 537.517 277.871C539.442 277.871 541.218 278.192 542.847 278.834C544.475 279.475 545.857 280.413 546.992 281.646L545.252 283.386C543.229 281.338 540.675 280.314 537.591 280.314C535.543 280.314 533.681 280.783 532.003 281.72C530.325 282.658 529.005 283.941 528.043 285.569C527.105 287.198 526.636 289.023 526.636 291.047C526.636 293.07 527.105 294.896 528.043 296.524C529.005 298.152 530.325 299.435 532.003 300.373C533.681 301.311 535.543 301.779 537.591 301.779C540.7 301.779 543.254 300.743 545.252 298.671L546.992 300.41C545.857 301.644 544.463 302.594 542.81 303.26C541.181 303.901 539.405 304.222 537.48 304.222Z" fill="#F9E28E"/>
<path d="M569.164 304.222C566.598 304.222 564.266 303.655 562.169 302.52C560.097 301.36 558.468 299.781 557.284 297.782C556.124 295.784 555.545 293.539 555.545 291.047C555.545 288.555 556.124 286.309 557.284 284.311C558.468 282.312 560.097 280.746 562.169 279.611C564.266 278.451 566.598 277.871 569.164 277.871C571.73 277.871 574.037 278.439 576.085 279.574C578.157 280.709 579.786 282.288 580.97 284.311C582.154 286.309 582.746 288.555 582.746 291.047C582.746 293.539 582.154 295.796 580.97 297.819C579.786 299.818 578.157 301.385 576.085 302.52C574.037 303.655 571.73 304.222 569.164 304.222ZM569.164 301.779C571.212 301.779 573.062 301.323 574.715 300.41C576.369 299.472 577.664 298.189 578.601 296.561C579.539 294.908 580.008 293.07 580.008 291.047C580.008 289.023 579.539 287.198 578.601 285.569C577.664 283.916 576.369 282.633 574.715 281.72C573.062 280.783 571.212 280.314 569.164 280.314C567.116 280.314 565.253 280.783 563.576 281.72C561.923 282.633 560.615 283.916 559.653 285.569C558.715 287.198 558.246 289.023 558.246 291.047C558.246 293.07 558.715 294.908 559.653 296.561C560.615 298.189 561.923 299.472 563.576 300.41C565.253 301.323 567.116 301.779 569.164 301.779Z" fill="#F9E28E"/>
<path d="M621.342 278.093V304H618.715V283.275L608.537 300.706H607.242L597.064 283.386V304H594.437V278.093H596.694L607.945 297.301L619.085 278.093H621.342Z" fill="#F9E28E"/>
<path d="M653.654 301.631V304H635.335V278.093H653.099V280.462H638.073V289.677H651.471V292.009H638.073V301.631H653.654Z" fill="#F9E28E"/>
<path d="M697.128 297.079H682.694L679.586 304H676.736L688.579 278.093H691.281L703.124 304H700.237L697.128 297.079ZM696.129 294.859L689.911 280.943L683.694 294.859H696.129Z" fill="#F9E28E"/>
<path d="M734.611 278.093V304H732.353L715.699 282.979V304H712.96V278.093H715.218L731.909 299.115V278.093H734.611Z" fill="#F9E28E"/>
<path d="M748.618 278.093H759.166C761.905 278.093 764.322 278.649 766.42 279.759C768.517 280.844 770.145 282.374 771.305 284.348C772.465 286.297 773.044 288.53 773.044 291.047C773.044 293.563 772.465 295.809 771.305 297.782C770.145 299.732 768.517 301.261 766.42 302.372C764.322 303.457 761.905 304 759.166 304H748.618V278.093ZM759.018 301.631C761.288 301.631 763.274 301.187 764.976 300.299C766.679 299.386 767.999 298.14 768.936 296.561C769.874 294.957 770.343 293.119 770.343 291.047C770.343 288.974 769.874 287.148 768.936 285.569C767.999 283.966 766.679 282.72 764.976 281.831C763.274 280.918 761.288 280.462 759.018 280.462H751.357V301.631H759.018Z" fill="#F9E28E"/>
<path d="M809.68 278.093C812.986 278.093 815.576 278.883 817.452 280.462C819.327 282.041 820.264 284.212 820.264 286.976C820.264 289.739 819.327 291.91 817.452 293.489C815.576 295.044 812.986 295.821 809.68 295.821H802.722V304H799.983V278.093H809.68ZM809.606 293.415C812.172 293.415 814.133 292.86 815.49 291.75C816.847 290.615 817.526 289.023 817.526 286.976C817.526 284.878 816.847 283.275 815.49 282.164C814.133 281.029 812.172 280.462 809.606 280.462H802.722V293.415H809.606Z" fill="#F9E28E"/>
<path d="M831.737 278.093H834.476V301.631H848.984V304H831.737V278.093Z" fill="#F9E28E"/>
<path d="M875.402 297.079H860.968L857.859 304H855.01L866.853 278.093H869.554L881.397 304H878.511L875.402 297.079ZM874.403 294.859L868.185 280.943L861.967 294.859H874.403Z" fill="#F9E28E"/>
<path d="M898.599 295.044V304H895.897V295.044L885.534 278.093H888.458L897.34 292.638L906.223 278.093H908.961L898.599 295.044Z" fill="#F9E28E"/>
<g filter="url(#filter7_ddddd)">
<path d="M1122.93 265.832C1113.6 282.98 1092.17 289.262 1075.02 279.928C1057.87 270.594 1051.5 249.178 1060.84 232.03C1070.17 214.882 1091.64 208.548 1108.79 217.882C1125.93 227.216 1132.27 248.684 1122.93 265.832Z" fill="white"/>
<path d="M1067.52 274.552L1091.89 248.931L1057.98 258.937C1059.73 264.88 1063.03 270.277 1067.52 274.552Z" fill="#77A9B4"/>
<path d="M1057.52 240.642L1091.89 248.931L1066.27 224.567C1062.12 228.917 1059.03 234.382 1057.52 240.642V240.642Z" fill="#77A9B4"/>
<path d="M1081.88 215.021L1091.89 248.931L1100.17 214.566C1093.91 213.056 1087.64 213.315 1081.88 215.021V215.021Z" fill="#77A9B4"/>
<path d="M1116.25 223.311L1115.86 223.721L1091.89 248.931L1125.8 238.926C1124.04 232.983 1120.74 227.586 1116.25 223.311V223.311Z" fill="#77A9B4"/>
<path d="M1091.89 248.931L1083.6 283.297C1089.86 284.807 1096.13 284.548 1101.89 282.842L1091.89 248.931Z" fill="#77A9B4"/>
<path d="M1126.25 257.22L1091.89 248.931L1117.51 273.296C1121.65 268.946 1124.74 263.481 1126.25 257.22V257.22Z" fill="#77A9B4"/>
<path d="M1078.05 274.358C1092.09 282.002 1109.67 276.814 1117.31 262.772C1124.96 248.729 1119.77 231.149 1105.73 223.505C1091.68 215.861 1074.1 221.048 1066.46 235.091C1058.82 249.134 1064 266.714 1078.05 274.358Z" fill="#77A9B4"/>
<path d="M1079.97 270.82C1092.03 277.383 1107.12 272.929 1113.68 260.873C1120.25 248.817 1115.79 233.724 1103.74 227.161C1091.68 220.599 1076.59 225.052 1070.02 237.108C1063.46 249.165 1067.91 264.258 1079.97 270.82Z" fill="#77A9B4"/>
<path d="M1082 267.093C1092 272.535 1104.51 268.842 1109.96 258.844C1115.4 248.847 1111.7 236.33 1101.71 230.888C1091.71 225.446 1079.19 229.139 1073.75 239.137C1068.31 249.135 1072 261.651 1082 267.093Z" fill="white"/>
<circle opacity="0.1" cx="1091.91" cy="249.02" r="23.8223" transform="rotate(28.5608 1091.91 249.02)" stroke="black" stroke-width="2.0715"/>
<circle cx="1091.91" cy="249.02" r="23.8223" transform="rotate(28.5608 1091.91 249.02)" stroke="white" stroke-width="2.0715" stroke-dasharray="8.29 8.29"/>
<path d="M1085.91 242.969C1087.71 243.946 1088.85 245.021 1089.32 246.193C1089.81 247.353 1089.72 248.533 1089.07 249.734C1088.65 250.498 1088.09 251.087 1087.38 251.501C1086.66 251.915 1085.83 252.1 1084.88 252.054C1083.93 252.009 1082.91 251.685 1081.8 251.085C1080.89 250.589 1080.08 249.983 1079.37 249.267C1078.67 248.538 1078.15 247.784 1077.82 247.006L1079.82 245.713C1080.08 246.359 1080.48 246.975 1081.01 247.562C1081.56 248.144 1082.18 248.626 1082.89 249.009C1083.72 249.464 1084.47 249.651 1085.13 249.569C1085.8 249.481 1086.31 249.134 1086.64 248.528C1086.99 247.873 1087 247.24 1086.66 246.628C1086.33 246.011 1085.55 245.363 1084.3 244.683L1081.22 243.009L1085.65 236.434L1093.13 240.504L1092.05 242.487L1086.57 239.506L1084.69 242.305L1085.91 242.969Z" fill="#25242F"/>
<path d="M1093.52 257.462C1092.5 256.908 1091.73 256.158 1091.21 255.213C1090.69 254.255 1090.47 253.16 1090.54 251.927C1090.62 250.681 1091.03 249.379 1091.77 248.021C1092.51 246.662 1093.38 245.617 1094.37 244.886C1095.38 244.142 1096.42 243.733 1097.5 243.659C1098.58 243.574 1099.63 243.808 1100.65 244.363C1101.67 244.917 1102.44 245.673 1102.95 246.631C1103.49 247.582 1103.72 248.681 1103.64 249.926C1103.56 251.16 1103.16 252.456 1102.42 253.814C1101.68 255.173 1100.81 256.224 1099.8 256.968C1098.81 257.699 1097.76 258.105 1096.66 258.184C1095.59 258.258 1094.54 258.017 1093.52 257.462ZM1094.64 255.407C1095.55 255.902 1096.47 255.915 1097.4 255.447C1098.34 254.986 1099.22 254.009 1100.03 252.517C1100.84 251.025 1101.19 249.758 1101.06 248.715C1100.95 247.679 1100.44 246.914 1099.53 246.419C1098.63 245.93 1097.71 245.916 1096.77 246.378C1095.84 246.846 1094.97 247.826 1094.16 249.318C1093.34 250.81 1092.99 252.074 1093.11 253.11C1093.23 254.152 1093.74 254.918 1094.64 255.407Z" fill="#25242F"/>
</g>
<g filter="url(#filter8_ddddd)">
<path d="M205.362 424.164C224.145 453.496 215.352 492.521 186.019 511.304C156.687 530.086 117.924 521.514 99.1413 492.182C80.3587 462.85 88.9108 423.845 118.243 405.063C147.575 386.28 186.58 394.832 205.362 424.164Z" fill="white"/>
<path d="M171.359 518.284L152.252 458.173L138.743 519.784C149.546 522.142 160.818 521.624 171.359 518.284Z" fill="#E383A5"/>
<path d="M109.753 504.769L152.252 458.173L92.1409 477.28C95.3779 487.497 101.264 497.026 109.753 504.769V504.769Z" fill="#E383A5"/>
<path d="M90.6405 444.664L152.252 458.173L105.656 415.674C97.9133 424.163 92.9264 434.192 90.6405 444.664V444.664Z" fill="#E383A5"/>
<path d="M133.145 398.062L133.451 399.023L152.252 458.173L165.76 396.562C154.958 394.204 143.686 394.722 133.145 398.062V398.062Z" fill="#E383A5"/>
<path d="M152.252 458.173L198.848 500.672C206.59 492.183 211.577 482.153 213.863 471.682L152.252 458.173Z" fill="#E383A5"/>
<path d="M194.751 411.577L152.252 458.173L212.363 439.066C209.126 428.848 203.239 419.319 194.751 411.577V411.577Z" fill="#E383A5"/>
<path d="M180.102 501.666C204.123 486.285 211.126 454.343 195.745 430.323C180.363 406.302 148.422 399.299 124.401 414.68C100.381 430.061 93.3772 462.003 108.759 486.023C124.14 510.044 156.081 517.047 180.102 501.666Z" fill="#E383A5"/>
<path d="M176.227 495.615C196.85 482.409 202.862 454.987 189.657 434.364C176.452 413.742 149.029 407.729 128.407 420.935C107.784 434.14 101.772 461.563 114.977 482.185C128.182 502.807 155.605 508.82 176.227 495.615Z" fill="#E383A5"/>
<path d="M172.145 489.239C189.246 478.289 194.232 455.548 183.282 438.447C172.331 421.345 149.59 416.359 132.489 427.31C115.388 438.261 110.401 461.001 121.352 478.103C132.303 495.204 155.044 500.19 172.145 489.239Z" fill="white"/>
<circle opacity="0.1" cx="152.411" cy="458.211" r="42.499" transform="rotate(-32.6331 152.411 458.211)" stroke="black" stroke-width="3.69557"/>
<circle cx="152.411" cy="458.211" r="42.499" transform="rotate(-32.6331 152.411 458.211)" stroke="white" stroke-width="3.69557" stroke-dasharray="14.78 14.78"/>
<path d="M155.46 465.736L157.652 469.16L141.593 479.443L139.859 476.735L143.25 462.979C143.627 461.421 143.763 460.193 143.656 459.296C143.557 458.365 143.289 457.557 142.85 456.872C142.199 455.855 141.359 455.296 140.328 455.195C139.298 455.094 138.119 455.469 136.792 456.319C134.572 457.741 133.355 459.588 133.142 461.859L128.915 461.494C129.035 459.809 129.612 458.196 130.645 456.657C131.685 455.084 133.098 453.726 134.882 452.583C137.247 451.069 139.494 450.42 141.622 450.637C143.751 450.854 145.432 451.927 146.668 453.857C147.425 455.039 147.887 456.309 148.053 457.665C148.22 459.021 148.023 460.815 147.462 463.046L145.19 472.313L155.46 465.736Z" fill="#25242F"/>
<path d="M158.253 449.949C161.324 447.982 163.981 447.129 166.225 447.389C168.455 447.629 170.228 448.775 171.544 450.829C172.381 452.137 172.816 453.525 172.851 454.995C172.885 456.465 172.458 457.923 171.57 459.369C170.683 460.815 169.295 462.143 167.407 463.352C165.851 464.349 164.207 465.094 162.476 465.588C160.731 466.062 159.108 466.223 157.607 466.072L157.306 461.833C158.541 461.979 159.844 461.89 161.217 461.567C162.597 461.21 163.889 460.646 165.093 459.875C166.524 458.958 167.459 457.951 167.896 456.851C168.34 455.718 168.23 454.633 167.566 453.596C166.849 452.475 165.865 451.921 164.614 451.932C163.37 451.909 161.68 452.582 159.543 453.95L154.283 457.318L147.811 444.743L160.602 436.552L162.774 439.945L153.407 445.943L156.168 451.284L158.253 449.949Z" fill="#25242F"/>
</g>
<g filter="url(#filter9_ddddd)">
<path d="M1500.81 572.807C1466.82 631.692 1392.03 651.91 1333.15 617.912C1274.26 583.915 1253.57 508.577 1287.57 449.692C1321.57 390.807 1396.86 370.632 1455.75 404.629C1514.63 438.626 1534.81 513.922 1500.81 572.807Z" fill="white"/>
<path d="M1307.12 598.317L1394.19 511.249L1275.26 543.118C1280.86 563.962 1291.88 583.041 1307.12 598.317Z" fill="#25242F"/>
<path d="M1275.27 479.385L1394.19 511.249L1307.12 424.183C1292.32 438.964 1281.08 457.72 1275.27 479.385V479.385Z" fill="#25242F"/>
<path d="M1362.32 392.313L1394.19 511.249L1426.06 392.33C1404.39 386.525 1382.53 386.879 1362.32 392.313V392.313Z" fill="#25242F"/>
<path d="M1481.26 424.183L1479.87 425.575L1394.19 511.249L1513.13 479.381C1507.52 458.537 1496.51 439.459 1481.26 424.183V424.183Z" fill="#25242F"/>
<path d="M1394.19 511.249L1362.33 630.169C1383.99 635.975 1405.86 635.62 1426.06 630.185L1394.19 511.249Z" fill="#25242F"/>
<path d="M1513.11 543.114L1394.19 511.249L1481.26 598.317C1496.07 583.535 1507.31 564.778 1513.11 543.114V543.114Z" fill="#25242F"/>
<path d="M1343.78 598.563C1392 626.404 1453.66 609.882 1481.51 561.66C1509.35 513.438 1492.82 451.777 1444.6 423.936C1396.38 396.095 1334.72 412.617 1306.88 460.839C1279.04 509.061 1295.56 570.722 1343.78 598.563Z" fill="#25242F"/>
<path d="M1350.8 586.415C1392.2 610.317 1445.13 596.132 1469.03 554.733C1492.94 513.333 1478.75 460.395 1437.35 436.493C1395.95 412.591 1343.02 426.775 1319.11 468.175C1295.21 509.575 1309.4 562.513 1350.8 586.415Z" fill="#25242F"/>
<path d="M1358.18 573.616C1392.52 593.437 1436.42 581.675 1456.24 547.343C1476.06 513.012 1464.29 469.112 1429.96 449.291C1395.63 429.47 1351.73 441.233 1331.91 475.564C1312.09 509.896 1323.85 553.795 1358.18 573.616Z" fill="white"/>
<circle opacity="0.1" cx="1394.27" cy="511.559" r="82.9648" transform="rotate(30 1394.27 511.559)" stroke="#25242F" stroke-width="7.21433"/>
<circle cx="1394.27" cy="511.559" r="82.9648" transform="rotate(30 1394.27 511.559)" stroke="white" stroke-width="7.21433" stroke-dasharray="28.86 28.86"/>
<path d="M1374.1 472.022L1351.88 510.508L1344.73 506.382L1363.49 473.888L1355.36 469.19L1358.82 463.198L1374.1 472.022Z" fill="#25242F"/>
<path d="M1375.25 524.735C1372.17 522.957 1369.87 520.601 1368.34 517.664C1366.83 514.692 1366.23 511.319 1366.56 507.546C1366.9 503.736 1368.25 499.778 1370.62 495.673C1372.99 491.568 1375.73 488.433 1378.84 486.268C1381.97 484.067 1385.19 482.895 1388.49 482.752C1391.82 482.572 1395.03 483.371 1398.11 485.149C1401.18 486.927 1403.48 489.302 1404.99 492.275C1406.56 495.232 1407.17 498.616 1406.83 502.425C1406.5 506.198 1405.16 510.138 1402.79 514.243C1400.42 518.348 1397.67 521.501 1394.54 523.703C1391.43 525.868 1388.2 527.029 1384.83 527.187C1381.52 527.33 1378.33 526.513 1375.25 524.735ZM1378.84 518.522C1381.59 520.109 1384.41 520.222 1387.29 518.859C1390.22 517.518 1392.98 514.593 1395.59 510.084C1398.19 505.576 1399.34 501.72 1399.04 498.516C1398.77 495.334 1397.27 492.949 1394.52 491.362C1391.81 489.796 1388.99 489.684 1386.06 491.025C1383.18 492.388 1380.43 495.323 1377.83 499.831C1375.22 504.34 1374.05 508.185 1374.32 511.368C1374.62 514.571 1376.13 516.956 1378.84 518.522Z" fill="#25242F"/>
<path d="M1412.24 546.093C1409.17 544.316 1406.86 541.959 1405.33 539.023C1403.82 536.05 1403.23 532.677 1403.55 528.904C1403.89 525.094 1405.25 521.137 1407.62 517.031C1409.99 512.926 1412.73 509.791 1415.83 507.626C1418.96 505.425 1422.18 504.253 1425.49 504.11C1428.82 503.931 1432.02 504.73 1435.1 506.507C1438.18 508.285 1440.47 510.66 1441.98 513.633C1443.55 516.59 1444.16 519.974 1443.82 523.784C1443.5 527.557 1442.15 531.496 1439.78 535.601C1437.41 539.706 1434.66 542.86 1431.53 545.061C1428.43 547.226 1425.19 548.387 1421.83 548.546C1418.52 548.688 1415.32 547.871 1412.24 546.093ZM1415.83 539.881C1418.58 541.468 1421.4 541.58 1424.29 540.217C1427.21 538.876 1429.98 535.951 1432.58 531.443C1435.18 526.934 1436.33 523.078 1436.03 519.875C1435.77 516.692 1434.26 514.307 1431.51 512.72C1428.8 511.154 1425.98 511.042 1423.06 512.383C1420.17 513.746 1417.42 516.681 1414.82 521.19C1412.22 525.698 1411.05 529.544 1411.31 532.726C1411.61 535.93 1413.12 538.315 1415.83 539.881Z" fill="#25242F"/>
</g>
</g>
<defs>
<filter id="filter0_ddddd" x="936.463" y="51.5855" width="86.9734" height="86.8492" filterUnits="userSpaceOnUse" color-interpolation-filters="sRGB">
<feFlood flood-opacity="0" result="BackgroundImageFix"/>
<feColorMatrix in="SourceAlpha" type="matrix" values="0 0 0 0 0 0 0 0 0 0 0 0 0 0 0 0 0 0 127 0"/>
<feOffset dy="0.126233"/>
<feGaussianBlur stdDeviation="0.236179"/>
<feColorMatrix type="matrix" values="0 0 0 0 0.145098 0 0 0 0 0.141176 0 0 0 0 0.184314 0 0 0 0.28 0"/>
<feBlend mode="normal" in2="BackgroundImageFix" result="effect1_dropShadow"/>
<feColorMatrix in="SourceAlpha" type="matrix" values="0 0 0 0 0 0 0 0 0 0 0 0 0 0 0 0 0 0 127 0"/>
<feOffset dy="0.387976"/>
<feGaussianBlur stdDeviation="0.567572"/>
<feColorMatrix type="matrix" values="0 0 0 0 0.145098 0 0 0 0 0.141176 0 0 0 0 0.184314 0 0 0 0.06 0"/>
<feBlend mode="normal" in2="effect1_dropShadow" result="effect2_dropShadow"/>
<feColorMatrix in="SourceAlpha" type="matrix" values="0 0 0 0 0 0 0 0 0 0 0 0 0 0 0 0 0 0 127 0"/>
<feOffset dy="0.934121"/>
<feGaussianBlur stdDeviation="1.06869"/>
<feColorMatrix type="matrix" values="0 0 0 0 0.145098 0 0 0 0 0.141176 0 0 0 0 0.184314 0 0 0 0.08 0"/>
<feBlend mode="normal" in2="effect2_dropShadow" result="effect3_dropShadow"/>
<feColorMatrix in="SourceAlpha" type="matrix" values="0 0 0 0 0 0 0 0 0 0 0 0 0 0 0 0 0 0 127 0"/>
<feOffset dy="2.12506"/>
<feGaussianBlur stdDeviation="1.90636"/>
<feColorMatrix type="matrix" values="0 0 0 0 0.145098 0 0 0 0 0.141176 0 0 0 0 0.184314 0 0 0 0.0431408 0"/>
<feBlend mode="normal" in2="effect3_dropShadow" result="effect4_dropShadow"/>
<feColorMatrix in="SourceAlpha" type="matrix" values="0 0 0 0 0 0 0 0 0 0 0 0 0 0 0 0 0 0 127 0"/>
<feOffset dy="5.13664"/>
<feGaussianBlur stdDeviation="3.56563"/>
<feColorMatrix type="matrix" values="0 0 0 0 0.145098 0 0 0 0 0.141176 0 0 0 0 0.184314 0 0 0 0.12 0"/>
<feBlend mode="normal" in2="effect4_dropShadow" result="effect5_dropShadow"/>
<feBlend mode="normal" in="SourceGraphic" in2="effect5_dropShadow" result="shape"/>
</filter>
<filter id="filter1_ddddd" x="254.902" y="79.2688" width="136.1" height="136" filterUnits="userSpaceOnUse" color-interpolation-filters="sRGB">
<feFlood flood-opacity="0" result="BackgroundImageFix"/>
<feColorMatrix in="SourceAlpha" type="matrix" values="0 0 0 0 0 0 0 0 0 0 0 0 0 0 0 0 0 0 127 0"/>
<feOffset dy="0.180916"/>
<feGaussianBlur stdDeviation="0.33849"/>
<feColorMatrix type="matrix" values="0 0 0 0 0.145098 0 0 0 0 0.141176 0 0 0 0 0.184314 0 0 0 0.28 0"/>
<feBlend mode="normal" in2="BackgroundImageFix" result="effect1_dropShadow"/>
<feColorMatrix in="SourceAlpha" type="matrix" values="0 0 0 0 0 0 0 0 0 0 0 0 0 0 0 0 0 0 127 0"/>
<feOffset dy="0.556044"/>
<feGaussianBlur stdDeviation="0.813438"/>
<feColorMatrix type="matrix" values="0 0 0 0 0.145098 0 0 0 0 0.141176 0 0 0 0 0.184314 0 0 0 0.06 0"/>
<feBlend mode="normal" in2="effect1_dropShadow" result="effect2_dropShadow"/>
<feColorMatrix in="SourceAlpha" type="matrix" values="0 0 0 0 0 0 0 0 0 0 0 0 0 0 0 0 0 0 127 0"/>
<feOffset dy="1.33877"/>
<feGaussianBlur stdDeviation="1.53163"/>
<feColorMatrix type="matrix" values="0 0 0 0 0.145098 0 0 0 0 0.141176 0 0 0 0 0.184314 0 0 0 0.08 0"/>
<feBlend mode="normal" in2="effect2_dropShadow" result="effect3_dropShadow"/>
<feColorMatrix in="SourceAlpha" type="matrix" values="0 0 0 0 0 0 0 0 0 0 0 0 0 0 0 0 0 0 127 0"/>
<feOffset dy="3.04562"/>
<feGaussianBlur stdDeviation="2.73217"/>
<feColorMatrix type="matrix" values="0 0 0 0 0.145098 0 0 0 0 0.141176 0 0 0 0 0.184314 0 0 0 0.0431408 0"/>
<feBlend mode="normal" in2="effect3_dropShadow" result="effect4_dropShadow"/>
<feColorMatrix in="SourceAlpha" type="matrix" values="0 0 0 0 0 0 0 0 0 0 0 0 0 0 0 0 0 0 127 0"/>
<feOffset dy="7.36179"/>
<feGaussianBlur stdDeviation="5.11022"/>
<feColorMatrix type="matrix" values="0 0 0 0 0.145098 0 0 0 0 0.141176 0 0 0 0 0.184314 0 0 0 0.12 0"/>
<feBlend mode="normal" in2="effect4_dropShadow" result="effect5_dropShadow"/>
<feBlend mode="normal" in="SourceGraphic" in2="effect5_dropShadow" result="shape"/>
</filter>
<filter id="filter2_ddddd" x="1283.18" y="187.974" width="133.284" height="133.284" filterUnits="userSpaceOnUse" color-interpolation-filters="sRGB">
<feFlood flood-opacity="0" result="BackgroundImageFix"/>
<feColorMatrix in="SourceAlpha" type="matrix" values="0 0 0 0 0 0 0 0 0 0 0 0 0 0 0 0 0 0 127 0"/>
<feOffset dy="0.191516"/>
<feGaussianBlur stdDeviation="0.358321"/>
<feColorMatrix type="matrix" values="0 0 0 0 0.145098 0 0 0 0 0.141176 0 0 0 0 0.184314 0 0 0 0.28 0"/>
<feBlend mode="normal" in2="BackgroundImageFix" result="effect1_dropShadow"/>
<feColorMatrix in="SourceAlpha" type="matrix" values="0 0 0 0 0 0 0 0 0 0 0 0 0 0 0 0 0 0 127 0"/>
<feOffset dy="0.588621"/>
<feGaussianBlur stdDeviation="0.861095"/>
<feColorMatrix type="matrix" values="0 0 0 0 0.145098 0 0 0 0 0.141176 0 0 0 0 0.184314 0 0 0 0.06 0"/>
<feBlend mode="normal" in2="effect1_dropShadow" result="effect2_dropShadow"/>
<feColorMatrix in="SourceAlpha" type="matrix" values="0 0 0 0 0 0 0 0 0 0 0 0 0 0 0 0 0 0 127 0"/>
<feOffset dy="1.41721"/>
<feGaussianBlur stdDeviation="1.62137"/>
<feColorMatrix type="matrix" values="0 0 0 0 0.145098 0 0 0 0 0.141176 0 0 0 0 0.184314 0 0 0 0.08 0"/>
<feBlend mode="normal" in2="effect2_dropShadow" result="effect3_dropShadow"/>
<feColorMatrix in="SourceAlpha" type="matrix" values="0 0 0 0 0 0 0 0 0 0 0 0 0 0 0 0 0 0 127 0"/>
<feOffset dy="3.22405"/>
<feGaussianBlur stdDeviation="2.89224"/>
<feColorMatrix type="matrix" values="0 0 0 0 0.145098 0 0 0 0 0.141176 0 0 0 0 0.184314 0 0 0 0.0431408 0"/>
<feBlend mode="normal" in2="effect3_dropShadow" result="effect4_dropShadow"/>
<feColorMatrix in="SourceAlpha" type="matrix" values="0 0 0 0 0 0 0 0 0 0 0 0 0 0 0 0 0 0 127 0"/>
<feOffset dy="7.79309"/>
<feGaussianBlur stdDeviation="5.40961"/>
<feColorMatrix type="matrix" values="0 0 0 0 0.145098 0 0 0 0 0.141176 0 0 0 0 0.184314 0 0 0 0.12 0"/>
<feBlend mode="normal" in2="effect4_dropShadow" result="effect5_dropShadow"/>
<feBlend mode="normal" in="SourceGraphic" in2="effect5_dropShadow" result="shape"/>
</filter>
<filter id="filter3_ddddd" x="359.386" y="370.725" width="321.94" height="350.329" filterUnits="userSpaceOnUse" color-interpolation-filters="sRGB">
<feFlood flood-opacity="0" result="BackgroundImageFix"/>
<feColorMatrix in="SourceAlpha" type="matrix" values="0 0 0 0 0 0 0 0 0 0 0 0 0 0 0 0 0 0 127 0"/>
<feOffset dy="0.966748"/>
<feGaussianBlur stdDeviation="1.80876"/>
<feColorMatrix type="matrix" values="0 0 0 0 0.145098 0 0 0 0 0.141176 0 0 0 0 0.184314 0 0 0 0.06 0"/>
<feBlend mode="normal" in2="BackgroundImageFix" result="effect1_dropShadow"/>
<feColorMatrix in="SourceAlpha" type="matrix" values="0 0 0 0 0 0 0 0 0 0 0 0 0 0 0 0 0 0 127 0"/>
<feOffset dy="2.97129"/>
<feGaussianBlur stdDeviation="4.34671"/>
<feColorMatrix type="matrix" values="0 0 0 0 0.145098 0 0 0 0 0.141176 0 0 0 0 0.184314 0 0 0 0.06 0"/>
<feBlend mode="normal" in2="effect1_dropShadow" result="effect2_dropShadow"/>
<feColorMatrix in="SourceAlpha" type="matrix" values="0 0 0 0 0 0 0 0 0 0 0 0 0 0 0 0 0 0 127 0"/>
<feOffset dy="7.1539"/>
<feGaussianBlur stdDeviation="8.18446"/>
<feColorMatrix type="matrix" values="0 0 0 0 0.145098 0 0 0 0 0.141176 0 0 0 0 0.184314 0 0 0 0.0381001 0"/>
<feBlend mode="normal" in2="effect2_dropShadow" result="effect3_dropShadow"/>
<feColorMatrix in="SourceAlpha" type="matrix" values="0 0 0 0 0 0 0 0 0 0 0 0 0 0 0 0 0 0 127 0"/>
<feOffset dy="16.2746"/>
<feGaussianBlur stdDeviation="14.5997"/>
<feColorMatrix type="matrix" values="0 0 0 0 0.145098 0 0 0 0 0.141176 0 0 0 0 0.184314 0 0 0 0.0431408 0"/>
<feBlend mode="normal" in2="effect3_dropShadow" result="effect4_dropShadow"/>
<feColorMatrix in="SourceAlpha" type="matrix" values="0 0 0 0 0 0 0 0 0 0 0 0 0 0 0 0 0 0 127 0"/>
<feOffset dy="39.3386"/>
<feGaussianBlur stdDeviation="27.3071"/>
<feColorMatrix type="matrix" values="0 0 0 0 0.145098 0 0 0 0 0.141176 0 0 0 0 0.184314 0 0 0 0.0521092 0"/>
<feBlend mode="normal" in2="effect4_dropShadow" result="effect5_dropShadow"/>
<feBlend mode="normal" in="SourceGraphic" in2="effect5_dropShadow" result="shape"/>
</filter>
<filter id="filter4_ddddd" x="512.485" y="341.968" width="283.223" height="330.833" filterUnits="userSpaceOnUse" color-interpolation-filters="sRGB">
<feFlood flood-opacity="0" result="BackgroundImageFix"/>
<feColorMatrix in="SourceAlpha" type="matrix" values="0 0 0 0 0 0 0 0 0 0 0 0 0 0 0 0 0 0 127 0"/>
<feOffset dy="0.966748"/>
<feGaussianBlur stdDeviation="1.80876"/>
<feColorMatrix type="matrix" values="0 0 0 0 0.145098 0 0 0 0 0.141176 0 0 0 0 0.184314 0 0 0 0.06 0"/>
<feBlend mode="normal" in2="BackgroundImageFix" result="effect1_dropShadow"/>
<feColorMatrix in="SourceAlpha" type="matrix" values="0 0 0 0 0 0 0 0 0 0 0 0 0 0 0 0 0 0 127 0"/>
<feOffset dy="2.97129"/>
<feGaussianBlur stdDeviation="4.34671"/>
<feColorMatrix type="matrix" values="0 0 0 0 0.145098 0 0 0 0 0.141176 0 0 0 0 0.184314 0 0 0 0.06 0"/>
<feBlend mode="normal" in2="effect1_dropShadow" result="effect2_dropShadow"/>
<feColorMatrix in="SourceAlpha" type="matrix" values="0 0 0 0 0 0 0 0 0 0 0 0 0 0 0 0 0 0 127 0"/>
<feOffset dy="7.1539"/>
<feGaussianBlur stdDeviation="8.18446"/>
<feColorMatrix type="matrix" values="0 0 0 0 0.145098 0 0 0 0 0.141176 0 0 0 0 0.184314 0 0 0 0.0381001 0"/>
<feBlend mode="normal" in2="effect2_dropShadow" result="effect3_dropShadow"/>
<feColorMatrix in="SourceAlpha" type="matrix" values="0 0 0 0 0 0 0 0 0 0 0 0 0 0 0 0 0 0 127 0"/>
<feOffset dy="16.2746"/>
<feGaussianBlur stdDeviation="14.5997"/>
<feColorMatrix type="matrix" values="0 0 0 0 0.145098 0 0 0 0 0.141176 0 0 0 0 0.184314 0 0 0 0.0431408 0"/>
<feBlend mode="normal" in2="effect3_dropShadow" result="effect4_dropShadow"/>
<feColorMatrix in="SourceAlpha" type="matrix" values="0 0 0 0 0 0 0 0 0 0 0 0 0 0 0 0 0 0 127 0"/>
<feOffset dy="39.3386"/>
<feGaussianBlur stdDeviation="27.3071"/>
<feColorMatrix type="matrix" values="0 0 0 0 0.145098 0 0 0 0 0.141176 0 0 0 0 0.184314 0 0 0 0.0521092 0"/>
<feBlend mode="normal" in2="effect4_dropShadow" result="effect5_dropShadow"/>
<feBlend mode="normal" in="SourceGraphic" in2="effect5_dropShadow" result="shape"/>
</filter>
<filter id="filter5_ddddd" x="650.386" y="341.724" width="283.223" height="330.833" filterUnits="userSpaceOnUse" color-interpolation-filters="sRGB">
<feFlood flood-opacity="0" result="BackgroundImageFix"/>
<feColorMatrix in="SourceAlpha" type="matrix" values="0 0 0 0 0 0 0 0 0 0 0 0 0 0 0 0 0 0 127 0"/>
<feOffset dy="0.966748"/>
<feGaussianBlur stdDeviation="1.80876"/>
<feColorMatrix type="matrix" values="0 0 0 0 0.145098 0 0 0 0 0.141176 0 0 0 0 0.184314 0 0 0 0.06 0"/>
<feBlend mode="normal" in2="BackgroundImageFix" result="effect1_dropShadow"/>
<feColorMatrix in="SourceAlpha" type="matrix" values="0 0 0 0 0 0 0 0 0 0 0 0 0 0 0 0 0 0 127 0"/>
<feOffset dy="2.97129"/>
<feGaussianBlur stdDeviation="4.34671"/>
<feColorMatrix type="matrix" values="0 0 0 0 0.145098 0 0 0 0 0.141176 0 0 0 0 0.184314 0 0 0 0.06 0"/>
<feBlend mode="normal" in2="effect1_dropShadow" result="effect2_dropShadow"/>
<feColorMatrix in="SourceAlpha" type="matrix" values="0 0 0 0 0 0 0 0 0 0 0 0 0 0 0 0 0 0 127 0"/>
<feOffset dy="7.1539"/>
<feGaussianBlur stdDeviation="8.18446"/>
<feColorMatrix type="matrix" values="0 0 0 0 0.145098 0 0 0 0 0.141176 0 0 0 0 0.184314 0 0 0 0.0381001 0"/>
<feBlend mode="normal" in2="effect2_dropShadow" result="effect3_dropShadow"/>
<feColorMatrix in="SourceAlpha" type="matrix" values="0 0 0 0 0 0 0 0 0 0 0 0 0 0 0 0 0 0 127 0"/>
<feOffset dy="16.2746"/>
<feGaussianBlur stdDeviation="14.5997"/>
<feColorMatrix type="matrix" values="0 0 0 0 0.145098 0 0 0 0 0.141176 0 0 0 0 0.184314 0 0 0 0.0431408 0"/>
<feBlend mode="normal" in2="effect3_dropShadow" result="effect4_dropShadow"/>
<feColorMatrix in="SourceAlpha" type="matrix" values="0 0 0 0 0 0 0 0 0 0 0 0 0 0 0 0 0 0 127 0"/>
<feOffset dy="39.3386"/>
<feGaussianBlur stdDeviation="27.3071"/>
<feColorMatrix type="matrix" values="0 0 0 0 0.145098 0 0 0 0 0.141176 0 0 0 0 0.184314 0 0 0 0.0521092 0"/>
<feBlend mode="normal" in2="effect4_dropShadow" result="effect5_dropShadow"/>
<feBlend mode="normal" in="SourceGraphic" in2="effect5_dropShadow" result="shape"/>
</filter>
<filter id="filter6_ddddd" x="759.386" y="373.724" width="321.94" height="350.329" filterUnits="userSpaceOnUse" color-interpolation-filters="sRGB">
<feFlood flood-opacity="0" result="BackgroundImageFix"/>
<feColorMatrix in="SourceAlpha" type="matrix" values="0 0 0 0 0 0 0 0 0 0 0 0 0 0 0 0 0 0 127 0"/>
<feOffset dy="0.966748"/>
<feGaussianBlur stdDeviation="1.80876"/>
<feColorMatrix type="matrix" values="0 0 0 0 0.145098 0 0 0 0 0.141176 0 0 0 0 0.184314 0 0 0 0.06 0"/>
<feBlend mode="normal" in2="BackgroundImageFix" result="effect1_dropShadow"/>
<feColorMatrix in="SourceAlpha" type="matrix" values="0 0 0 0 0 0 0 0 0 0 0 0 0 0 0 0 0 0 127 0"/>
<feOffset dy="2.97129"/>
<feGaussianBlur stdDeviation="4.34671"/>
<feColorMatrix type="matrix" values="0 0 0 0 0.145098 0 0 0 0 0.141176 0 0 0 0 0.184314 0 0 0 0.06 0"/>
<feBlend mode="normal" in2="effect1_dropShadow" result="effect2_dropShadow"/>
<feColorMatrix in="SourceAlpha" type="matrix" values="0 0 0 0 0 0 0 0 0 0 0 0 0 0 0 0 0 0 127 0"/>
<feOffset dy="7.1539"/>
<feGaussianBlur stdDeviation="8.18446"/>
<feColorMatrix type="matrix" values="0 0 0 0 0.145098 0 0 0 0 0.141176 0 0 0 0 0.184314 0 0 0 0.0381001 0"/>
<feBlend mode="normal" in2="effect2_dropShadow" result="effect3_dropShadow"/>
<feColorMatrix in="SourceAlpha" type="matrix" values="0 0 0 0 0 0 0 0 0 0 0 0 0 0 0 0 0 0 127 0"/>
<feOffset dy="16.2746"/>
<feGaussianBlur stdDeviation="14.5997"/>
<feColorMatrix type="matrix" values="0 0 0 0 0.145098 0 0 0 0 0.141176 0 0 0 0 0.184314 0 0 0 0.0431408 0"/>
<feBlend mode="normal" in2="effect3_dropShadow" result="effect4_dropShadow"/>
<feColorMatrix in="SourceAlpha" type="matrix" values="0 0 0 0 0 0 0 0 0 0 0 0 0 0 0 0 0 0 127 0"/>
<feOffset dy="39.3386"/>
<feGaussianBlur stdDeviation="27.3071"/>
<feColorMatrix type="matrix" values="0 0 0 0 0.145098 0 0 0 0 0.141176 0 0 0 0 0.184314 0 0 0 0.0521092 0"/>
<feBlend mode="normal" in2="effect4_dropShadow" result="effect5_dropShadow"/>
<feBlend mode="normal" in="SourceGraphic" in2="effect5_dropShadow" result="shape"/>
</filter>
<filter id="filter7_ddddd" x="1035.52" y="198.628" width="112.776" height="112.776" filterUnits="userSpaceOnUse" color-interpolation-filters="sRGB">
<feFlood flood-opacity="0" result="BackgroundImageFix"/>
<feColorMatrix in="SourceAlpha" type="matrix" values="0 0 0 0 0 0 0 0 0 0 0 0 0 0 0 0 0 0 127 0"/>
<feOffset dy="0.150129"/>
<feGaussianBlur stdDeviation="0.280887"/>
<feColorMatrix type="matrix" values="0 0 0 0 0.145098 0 0 0 0 0.141176 0 0 0 0 0.184314 0 0 0 0.28 0"/>
<feBlend mode="normal" in2="BackgroundImageFix" result="effect1_dropShadow"/>
<feColorMatrix in="SourceAlpha" type="matrix" values="0 0 0 0 0 0 0 0 0 0 0 0 0 0 0 0 0 0 127 0"/>
<feOffset dy="0.461418"/>
<feGaussianBlur stdDeviation="0.67501"/>
<feColorMatrix type="matrix" values="0 0 0 0 0.145098 0 0 0 0 0.141176 0 0 0 0 0.184314 0 0 0 0.06 0"/>
<feBlend mode="normal" in2="effect1_dropShadow" result="effect2_dropShadow"/>
<feColorMatrix in="SourceAlpha" type="matrix" values="0 0 0 0 0 0 0 0 0 0 0 0 0 0 0 0 0 0 127 0"/>
<feOffset dy="1.11095"/>
<feGaussianBlur stdDeviation="1.27098"/>
<feColorMatrix type="matrix" values="0 0 0 0 0.145098 0 0 0 0 0.141176 0 0 0 0 0.184314 0 0 0 0.08 0"/>
<feBlend mode="normal" in2="effect2_dropShadow" result="effect3_dropShadow"/>
<feColorMatrix in="SourceAlpha" type="matrix" values="0 0 0 0 0 0 0 0 0 0 0 0 0 0 0 0 0 0 127 0"/>
<feOffset dy="2.52732"/>
<feGaussianBlur stdDeviation="2.26722"/>
<feColorMatrix type="matrix" values="0 0 0 0 0.145098 0 0 0 0 0.141176 0 0 0 0 0.184314 0 0 0 0.0431408 0"/>
<feBlend mode="normal" in2="effect3_dropShadow" result="effect4_dropShadow"/>
<feColorMatrix in="SourceAlpha" type="matrix" values="0 0 0 0 0 0 0 0 0 0 0 0 0 0 0 0 0 0 127 0"/>
<feOffset dy="6.10898"/>
<feGaussianBlur stdDeviation="4.24058"/>
<feColorMatrix type="matrix" values="0 0 0 0 0.145098 0 0 0 0 0.141176 0 0 0 0 0.184314 0 0 0 0.12 0"/>
<feBlend mode="normal" in2="effect4_dropShadow" result="effect5_dropShadow"/>
<feBlend mode="normal" in="SourceGraphic" in2="effect5_dropShadow" result="shape"/>
</filter>
<filter id="filter8_ddddd" x="49.8696" y="366.768" width="204.654" height="204.542" filterUnits="userSpaceOnUse" color-interpolation-filters="sRGB">
<feFlood flood-opacity="0" result="BackgroundImageFix"/>
<feColorMatrix in="SourceAlpha" type="matrix" values="0 0 0 0 0 0 0 0 0 0 0 0 0 0 0 0 0 0 127 0"/>
<feOffset dy="0.26783"/>
<feGaussianBlur stdDeviation="0.501103"/>
<feColorMatrix type="matrix" values="0 0 0 0 0.145098 0 0 0 0 0.141176 0 0 0 0 0.184314 0 0 0 0.06 0"/>
<feBlend mode="normal" in2="BackgroundImageFix" result="effect1_dropShadow"/>
<feColorMatrix in="SourceAlpha" type="matrix" values="0 0 0 0 0 0 0 0 0 0 0 0 0 0 0 0 0 0 127 0"/>
<feOffset dy="0.823171"/>
<feGaussianBlur stdDeviation="1.20422"/>
<feColorMatrix type="matrix" values="0 0 0 0 0.145098 0 0 0 0 0.141176 0 0 0 0 0.184314 0 0 0 0.06 0"/>
<feBlend mode="normal" in2="effect1_dropShadow" result="effect2_dropShadow"/>
<feColorMatrix in="SourceAlpha" type="matrix" values="0 0 0 0 0 0 0 0 0 0 0 0 0 0 0 0 0 0 127 0"/>
<feOffset dy="1.98193"/>
<feGaussianBlur stdDeviation="2.26744"/>
<feColorMatrix type="matrix" values="0 0 0 0 0.145098 0 0 0 0 0.141176 0 0 0 0 0.184314 0 0 0 0.0381001 0"/>
<feBlend mode="normal" in2="effect2_dropShadow" result="effect3_dropShadow"/>
<feColorMatrix in="SourceAlpha" type="matrix" values="0 0 0 0 0 0 0 0 0 0 0 0 0 0 0 0 0 0 127 0"/>
<feOffset dy="4.50875"/>
<feGaussianBlur stdDeviation="4.04472"/>
<feColorMatrix type="matrix" values="0 0 0 0 0.145098 0 0 0 0 0.141176 0 0 0 0 0.184314 0 0 0 0.0431408 0"/>
<feBlend mode="normal" in2="effect3_dropShadow" result="effect4_dropShadow"/>
<feColorMatrix in="SourceAlpha" type="matrix" values="0 0 0 0 0 0 0 0 0 0 0 0 0 0 0 0 0 0 127 0"/>
<feOffset dy="10.8984"/>
<feGaussianBlur stdDeviation="7.56521"/>
<feColorMatrix type="matrix" values="0 0 0 0 0.145098 0 0 0 0 0.141176 0 0 0 0 0.184314 0 0 0 0.0521092 0"/>
<feBlend mode="normal" in2="effect4_dropShadow" result="effect5_dropShadow"/>
<feBlend mode="normal" in="SourceGraphic" in2="effect5_dropShadow" result="shape"/>
</filter>
<filter id="filter9_ddddd" x="1196.46" y="334.739" width="395.753" height="395.488" filterUnits="userSpaceOnUse" color-interpolation-filters="sRGB">
<feFlood flood-opacity="0" result="BackgroundImageFix"/>
<feColorMatrix in="SourceAlpha" type="matrix" values="0 0 0 0 0 0 0 0 0 0 0 0 0 0 0 0 0 0 127 0"/>
<feOffset dy="0.522845"/>
<feGaussianBlur stdDeviation="0.978231"/>
<feColorMatrix type="matrix" values="0 0 0 0 0.145098 0 0 0 0 0.141176 0 0 0 0 0.184314 0 0 0 0.28 0"/>
<feBlend mode="normal" in2="BackgroundImageFix" result="effect1_dropShadow"/>
<feColorMatrix in="SourceAlpha" type="matrix" values="0 0 0 0 0 0 0 0 0 0 0 0 0 0 0 0 0 0 127 0"/>
<feOffset dy="1.60696"/>
<feGaussianBlur stdDeviation="2.35082"/>
<feColorMatrix type="matrix" values="0 0 0 0 0.145098 0 0 0 0 0.141176 0 0 0 0 0.184314 0 0 0 0.06 0"/>
<feBlend mode="normal" in2="effect1_dropShadow" result="effect2_dropShadow"/>
<feColorMatrix in="SourceAlpha" type="matrix" values="0 0 0 0 0 0 0 0 0 0 0 0 0 0 0 0 0 0 127 0"/>
<feOffset dy="3.86903"/>
<feGaussianBlur stdDeviation="4.42639"/>
<feColorMatrix type="matrix" values="0 0 0 0 0.145098 0 0 0 0 0.141176 0 0 0 0 0.184314 0 0 0 0.08 0"/>
<feBlend mode="normal" in2="effect2_dropShadow" result="effect3_dropShadow"/>
<feColorMatrix in="SourceAlpha" type="matrix" values="0 0 0 0 0 0 0 0 0 0 0 0 0 0 0 0 0 0 127 0"/>
<feOffset dy="8.80178"/>
<feGaussianBlur stdDeviation="7.89593"/>
<feColorMatrix type="matrix" values="0 0 0 0 0.145098 0 0 0 0 0.141176 0 0 0 0 0.184314 0 0 0 0.0431408 0"/>
<feBlend mode="normal" in2="effect3_dropShadow" result="effect4_dropShadow"/>
<feColorMatrix in="SourceAlpha" type="matrix" values="0 0 0 0 0 0 0 0 0 0 0 0 0 0 0 0 0 0 127 0"/>
<feOffset dy="21.2755"/>
<feGaussianBlur stdDeviation="14.7685"/>
<feColorMatrix type="matrix" values="0 0 0 0 0.145098 0 0 0 0 0.141176 0 0 0 0 0.184314 0 0 0 0.12 0"/>
<feBlend mode="normal" in2="effect4_dropShadow" result="effect5_dropShadow"/>
<feBlend mode="normal" in="SourceGraphic" in2="effect5_dropShadow" result="shape"/>
</filter>
<radialGradient id="paint0_radial" cx="0" cy="0" r="1" gradientUnits="userSpaceOnUse" gradientTransform="translate(720 277.533) scale(578.512 448.74)">
<stop stop-color="#939DC6"/>
<stop offset="0.216588" stop-color="#848EB3"/>
<stop offset="1" stop-color="#69708C"/>
</radialGradient>
<linearGradient id="paint1_linear" x1="699.95" y1="119" x2="699.95" y2="276.903" gradientUnits="userSpaceOnUse">
<stop offset="0.525942" stop-color="white"/>
<stop offset="0.526042" stop-color="#F9E28E"/>
</linearGradient>
<linearGradient id="paint2_linear" x1="699.95" y1="119" x2="699.95" y2="276.903" gradientUnits="userSpaceOnUse">
<stop offset="0.525942" stop-color="white"/>
<stop offset="0.526042" stop-color="#F9E28E"/>
</linearGradient>
<linearGradient id="paint3_linear" x1="699.95" y1="119" x2="699.95" y2="276.903" gradientUnits="userSpaceOnUse">
<stop offset="0.525942" stop-color="white"/>
<stop offset="0.526042" stop-color="#F9E28E"/>
</linearGradient>
<linearGradient id="paint4_linear" x1="699.95" y1="119" x2="699.95" y2="276.903" gradientUnits="userSpaceOnUse">
<stop offset="0.525942" stop-color="white"/>
<stop offset="0.526042" stop-color="#F9E28E"/>
</linearGradient>
<linearGradient id="paint5_linear" x1="699.95" y1="119" x2="699.95" y2="276.903" gradientUnits="userSpaceOnUse">
<stop offset="0.525942" stop-color="white"/>
<stop offset="0.526042" stop-color="#F9E28E"/>
</linearGradient>
<linearGradient id="paint6_linear" x1="699.95" y1="119" x2="699.95" y2="276.903" gradientUnits="userSpaceOnUse">
<stop offset="0.525942" stop-color="white"/>
<stop offset="0.526042" stop-color="#F9E28E"/>
</linearGradient>
<linearGradient id="paint7_linear" x1="699.95" y1="119" x2="699.95" y2="276.903" gradientUnits="userSpaceOnUse">
<stop offset="0.525942" stop-color="white"/>
<stop offset="0.526042" stop-color="#F9E28E"/>
</linearGradient>
<linearGradient id="paint8_linear" x1="699.95" y1="119" x2="699.95" y2="276.903" gradientUnits="userSpaceOnUse">
<stop offset="0.525942" stop-color="white"/>
<stop offset="0.526042" stop-color="#F9E28E"/>
</linearGradient>
<linearGradient id="paint9_linear" x1="699.95" y1="119" x2="699.95" y2="276.903" gradientUnits="userSpaceOnUse">
<stop offset="0.525942" stop-color="white"/>
<stop offset="0.526042" stop-color="#F9E28E"/>
</linearGradient>
<clipPath id="clip0">
<rect width="1440" height="800" fill="white"/>
</clipPath>
<clipPath id="clip1">
<rect width="53.3575" height="53.3575" fill="white" transform="translate(493.612 511.613) rotate(-25)"/>
</clipPath>
<clipPath id="clip2">
<rect width="26.6788" height="26.6788" fill="white" transform="translate(446.073 489.287) rotate(-25)"/>
</clipPath>
<clipPath id="clip3">
<rect width="53.3575" height="53.3575" fill="white" transform="translate(626.954 466.013) rotate(-10)"/>
</clipPath>
<clipPath id="clip4">
<rect width="26.6788" height="26.6788" fill="white" transform="translate(586.812 432.144) rotate(-10)"/>
</clipPath>
<clipPath id="clip5">
<rect width="53.3575" height="53.3575" fill="white" transform="translate(767.187 456.609) rotate(10)"/>
</clipPath>
<clipPath id="clip6">
<rect width="26.6788" height="26.6788" fill="white" transform="translate(741.051 411.053) rotate(10)"/>
</clipPath>
<clipPath id="clip7">
<rect width="53.3575" height="53.3575" fill="white" transform="translate(899.288 492.317) rotate(25)"/>
</clipPath>
<clipPath id="clip8">
<rect width="26.6788" height="26.6788" fill="white" transform="translate(885.833 441.549) rotate(25)"/>
</clipPath>
</defs>
</svg>
