<svg width="342" height="337" viewBox="0 0 342 337" fill="none" xmlns="http://www.w3.org/2000/svg">
<g clip-path="url(#clip0)">
<path d="M341.733 170.653C341.733 264.902 265.329 336.189 171.079 336.189C76.8293 336.189 0.426758 264.902 0.426758 170.653C0.426758 76.4036 76.8303 0 171.079 0C265.328 0 341.733 76.4036 341.733 170.653Z" fill="white"/>
<path d="M126.906 335.514L171.079 170.653L50.3928 291.339C71.5686 312.476 98.0133 327.744 126.906 335.514Z" fill="#EE3032"/>
<path d="M6.24173 214.821L171.079 170.653L6.21906 126.479C-1.31406 154.486 -1.80541 184.791 6.24173 214.821V214.821Z" fill="#EE3032"/>
<path d="M50.3928 49.9661L171.079 170.653L126.912 5.81494C96.8812 13.8611 70.8825 29.4382 50.3928 49.9661V49.9661Z" fill="#EE3032"/>
<path d="M215.254 5.79224L214.548 8.42929L171.079 170.653L291.766 49.966C270.591 28.8304 244.146 13.5623 215.254 5.79224V5.79224Z" fill="#EE3032"/>
<path d="M171.079 170.653L215.248 335.491C245.278 327.445 271.277 311.867 291.766 291.339L171.079 170.653Z" fill="#EE3032"/>
<path d="M335.918 126.485L171.079 170.653L335.941 214.827C343.474 186.819 343.964 156.514 335.918 126.485V126.485Z" fill="#EE3032"/>
<path d="M171.079 310.403C248.262 310.403 310.83 247.835 310.83 170.653C310.83 93.4704 248.262 30.902 171.079 30.902C93.8973 30.902 31.3289 93.4704 31.3289 170.653C31.3289 247.835 93.8973 310.403 171.079 310.403Z" fill="#EE3032"/>
<path d="M171.079 290.96C237.342 290.96 291.059 237.243 291.059 170.98C291.059 104.717 237.342 51 171.079 51C104.816 51 51.0996 104.717 51.0996 170.98C51.0996 237.243 104.816 290.96 171.079 290.96Z" fill="#EE3032"/>
<path d="M171.079 270.475C226.029 270.475 270.575 225.929 270.575 170.98C270.575 116.03 226.029 71.4846 171.079 71.4846C116.13 71.4846 71.5842 116.03 71.5842 170.98C71.5842 225.929 116.13 270.475 171.079 270.475Z" fill="white"/>
<circle opacity="0.1" cx="171.386" cy="170.971" r="115" stroke="black" stroke-width="10"/>
<circle cx="171.386" cy="170.971" r="115" stroke="white" stroke-width="10" stroke-dasharray="40 40"/>
<path d="M125.229 156.706H121.652C121.231 155.654 120.74 154.426 120.179 153.024C119.688 151.621 119.161 150.148 118.6 148.604C118.039 147.061 117.513 145.553 117.022 144.08C116.531 142.537 116.145 141.134 115.865 139.871C118.32 137.767 121.441 135.943 125.229 134.4C129.087 132.857 133.752 132.085 139.223 132.085C143.081 132.085 146.413 132.576 149.219 133.558C152.024 134.54 154.339 135.908 156.163 137.662C158.057 139.415 159.425 141.45 160.266 143.764C161.178 146.079 161.634 148.569 161.634 151.235C161.634 155.514 160.652 159.582 158.688 163.44C156.724 167.228 154.304 170.805 151.428 174.172C148.552 177.469 145.466 180.555 142.169 183.431C138.872 186.237 135.891 188.797 133.226 191.112L127.754 194.795V195.216L134.173 194.584H152.27L157.426 182.8H161.003C161.213 184.484 161.424 186.448 161.634 188.692C161.915 190.937 162.16 193.217 162.371 195.531C162.581 197.776 162.757 199.95 162.897 202.055C163.037 204.089 163.107 205.737 163.107 207H114.918V200.266C116.741 198.653 118.811 196.794 121.126 194.69C123.44 192.515 125.79 190.165 128.175 187.64C130.56 185.045 132.91 182.309 135.225 179.433C137.539 176.557 139.609 173.646 141.433 170.7C143.256 167.684 144.694 164.633 145.746 161.546C146.869 158.46 147.43 155.444 147.43 152.497C147.43 148.639 146.378 145.518 144.273 143.133C142.239 140.678 139.328 139.45 135.54 139.45C134.348 139.45 133.261 139.521 132.279 139.661C131.367 139.801 130.315 140.047 129.122 140.397L125.229 156.706Z" fill="black"/>
<path d="M217.76 127.561H221.338C221.338 128.613 221.303 129.981 221.233 131.664C221.162 133.348 221.022 135.066 220.812 136.82C220.601 138.574 220.356 140.257 220.075 141.87C219.795 143.414 219.514 144.606 219.233 145.448H190.404L188.51 160.494H197.243C201.031 160.494 204.468 161.02 207.554 162.072C210.641 163.054 213.271 164.527 215.446 166.491C217.62 168.385 219.304 170.735 220.496 173.541C221.688 176.277 222.285 179.433 222.285 183.01C222.285 187.009 221.513 190.586 219.97 193.743C218.497 196.829 216.463 199.459 213.867 201.634C211.272 203.738 208.221 205.387 204.713 206.579C201.206 207.701 197.418 208.263 193.35 208.263C189.281 208.263 185.564 207.631 182.197 206.369C178.83 205.036 176.129 203.563 174.095 201.95L178.514 191.533H181.566C182.057 192.024 182.618 192.655 183.249 193.427C183.88 194.199 184.547 195.005 185.248 195.847C185.95 196.689 186.616 197.53 187.247 198.372C187.879 199.214 188.44 199.95 188.931 200.582C189.632 200.862 190.264 201.073 190.825 201.213C191.456 201.353 192.263 201.424 193.245 201.424C195.349 201.424 197.313 201.073 199.137 200.371C200.961 199.6 202.504 198.548 203.766 197.215C205.099 195.882 206.151 194.304 206.923 192.48C207.695 190.586 208.08 188.517 208.08 186.272C208.08 183.817 207.589 181.678 206.607 179.854C205.695 177.96 204.433 176.417 202.819 175.224C201.206 174.032 199.312 173.155 197.138 172.594C194.963 171.963 192.684 171.647 190.299 171.647L181.145 171.752L185.353 133.348H212.815L217.76 127.561Z" fill="black"/>
</g>
<defs>
<clipPath id="clip0">
<rect width="341.386" height="336.189" fill="white" transform="translate(0.386475)"/>
</clipPath>
</defs>
</svg>
