<svg width="342" height="342" viewBox="0 0 342 342" fill="none" xmlns="http://www.w3.org/2000/svg">
<path d="M341.506 171.153C341.506 265.678 265.75 342 171.5 342C77.2499 342 0.199707 265.678 0.199707 171.153C0.199707 76.6276 76.6033 0 170.852 0C265.101 0 341.506 76.6276 341.506 171.153Z" fill="white"/>
<path d="M126.679 336.498L170.852 171.153L50.1658 292.193C71.3415 313.392 97.7863 328.705 126.679 336.498Z" fill="#25242F"/>
<path d="M6.01468 215.451L170.852 171.153L5.99201 126.85C-1.54111 154.939 -2.03247 185.333 6.01468 215.451V215.451Z" fill="#25242F"/>
<path d="M50.1658 50.1126L170.852 171.153L126.685 5.83197C96.6542 13.9017 70.6555 29.5245 50.1658 50.1126V50.1126Z" fill="#25242F"/>
<path d="M215.027 5.80927L214.32 8.45406L170.852 171.153L291.539 50.1126C270.364 28.915 243.919 13.6021 215.027 5.80927V5.80927Z" fill="#25242F"/>
<path d="M170.852 171.153L215.021 336.475C245.051 328.405 271.05 312.781 291.539 292.193L170.852 171.153Z" fill="#25242F"/>
<path d="M335.691 126.856L170.852 171.153L335.714 215.457C343.247 187.367 343.737 156.973 335.691 126.856V126.856Z" fill="#25242F"/>
<path d="M170.852 311.313C248.035 311.313 310.603 248.562 310.603 171.153C310.603 93.7446 248.035 30.9926 170.852 30.9926C93.6703 30.9926 31.1018 93.7446 31.1018 171.153C31.1018 248.562 93.6703 311.313 170.852 311.313Z" fill="#25242F"/>
<path d="M170.852 291.813C237.115 291.813 290.832 237.939 290.832 171.481C290.832 105.024 237.115 51.1495 170.852 51.1495C104.589 51.1495 50.8726 105.024 50.8726 171.481C50.8726 237.939 104.589 291.813 170.852 291.813Z" fill="#25242F"/>
<path d="M170.852 271.268C225.802 271.268 270.348 226.592 270.348 171.481C270.348 116.37 225.802 71.6942 170.852 71.6942C115.903 71.6942 71.3572 116.37 71.3572 171.481C71.3572 226.592 115.903 271.268 170.852 271.268Z" fill="white"/>
<circle opacity="0.1" cx="171.159" cy="170.971" r="115" stroke="#25242F" stroke-width="10"/>
<circle cx="171.159" cy="170.971" r="115" stroke="white" stroke-width="10" stroke-dasharray="40 40"/>
<path d="M120.052 137.994V199.594H108.612V147.586H95.5879V137.994H120.052Z" fill="#25242F"/>
<path d="M157.968 200.474C153.04 200.474 148.64 199.242 144.768 196.778C140.896 194.256 137.845 190.618 135.616 185.866C133.386 181.056 132.272 175.365 132.272 168.794C132.272 162.224 133.386 156.562 135.616 151.81C137.845 147 140.896 143.362 144.768 140.898C148.64 138.376 153.04 137.114 157.968 137.114C162.896 137.114 167.296 138.376 171.168 140.898C175.098 143.362 178.178 147 180.408 151.81C182.637 156.562 183.752 162.224 183.752 168.794C183.752 175.365 182.637 181.056 180.408 185.866C178.178 190.618 175.098 194.256 171.168 196.778C167.296 199.242 162.896 200.474 157.968 200.474ZM157.968 190.53C162.368 190.53 165.829 188.712 168.352 185.074C170.933 181.437 172.224 176.01 172.224 168.794C172.224 161.578 170.933 156.152 168.352 152.514C165.829 148.877 162.368 147.058 157.968 147.058C153.626 147.058 150.165 148.877 147.584 152.514C145.061 156.152 143.8 161.578 143.8 168.794C143.8 176.01 145.061 181.437 147.584 185.074C150.165 188.712 153.626 190.53 157.968 190.53Z" fill="#25242F"/>
<path d="M217.178 200.474C212.25 200.474 207.85 199.242 203.978 196.778C200.106 194.256 197.056 190.618 194.826 185.866C192.597 181.056 191.482 175.365 191.482 168.794C191.482 162.224 192.597 156.562 194.826 151.81C197.056 147 200.106 143.362 203.978 140.898C207.85 138.376 212.25 137.114 217.178 137.114C222.106 137.114 226.506 138.376 230.378 140.898C234.309 143.362 237.389 147 239.618 151.81C241.848 156.562 242.962 162.224 242.962 168.794C242.962 175.365 241.848 181.056 239.618 185.866C237.389 190.618 234.309 194.256 230.378 196.778C226.506 199.242 222.106 200.474 217.178 200.474ZM217.178 190.53C221.578 190.53 225.04 188.712 227.562 185.074C230.144 181.437 231.434 176.01 231.434 168.794C231.434 161.578 230.144 156.152 227.562 152.514C225.04 148.877 221.578 147.058 217.178 147.058C212.837 147.058 209.376 148.877 206.794 152.514C204.272 156.152 203.01 161.578 203.01 168.794C203.01 176.01 204.272 181.437 206.794 185.074C209.376 188.712 212.837 190.53 217.178 190.53Z" fill="#25242F"/>
</svg>
