<svg width="342" height="343" viewBox="0 0 342 343" fill="none" xmlns="http://www.w3.org/2000/svg">
<g clip-path="url(#clip0)">
<path d="M342.347 171.653C342.347 266.178 265.025 342.5 170.498 342.5C75.9719 342.5 0.0402832 266.178 0.0402832 171.653C0.0402832 77.1276 76.6679 0.5 171.193 0.5C265.719 0.5 342.347 77.1276 342.347 171.653Z" fill="white"/>
<path d="M126.89 336.998L171.194 171.653L50.1531 292.693C71.3909 313.892 97.9132 329.205 126.89 336.998Z" fill="#746CAD"/>
<path d="M5.87242 215.951L171.193 171.653L5.84969 127.35C-1.70552 155.439 -2.19832 185.833 5.87242 215.951V215.951Z" fill="#746CAD"/>
<path d="M50.1531 50.6126L171.194 171.653L126.896 6.33197C96.7778 14.4017 70.7029 30.0245 50.1531 50.6126V50.6126Z" fill="#746CAD"/>
<path d="M215.498 6.3092L214.789 8.95399L171.193 171.653L292.234 50.6125C270.997 29.415 244.475 14.102 215.498 6.3092V6.3092Z" fill="#746CAD"/>
<path d="M171.193 171.653L215.492 336.975C245.61 328.905 271.685 313.281 292.234 292.693L171.193 171.653Z" fill="#746CAD"/>
<path d="M336.515 127.356L171.193 171.653L336.538 215.957C344.093 187.867 344.585 157.473 336.515 127.356V127.356Z" fill="#746CAD"/>
<path d="M171.194 311.813C248.602 311.813 311.354 249.062 311.354 171.653C311.354 94.2446 248.602 31.4926 171.194 31.4926C93.7852 31.4926 31.0332 94.2446 31.0332 171.653C31.0332 249.062 93.7852 311.813 171.194 311.813Z" fill="white"/>
<path d="M171.193 292.313C237.651 292.313 291.525 238.439 291.525 171.981C291.525 105.524 237.651 51.6495 171.193 51.6495C104.736 51.6495 50.8618 105.524 50.8618 171.981C50.8618 238.439 104.736 292.313 171.193 292.313Z" fill="white"/>
<circle opacity="0.1" cx="171.502" cy="171.973" r="115.337" stroke="black" stroke-width="10.0293"/>
<circle cx="171.502" cy="171.973" r="115.337" stroke="#746CAD" stroke-width="10.0293" stroke-dasharray="40.12 40.12"/>
<path d="M146.035 134.486V204.691H132.996V145.418H118.153V134.486H146.035Z" fill="#25242F"/>
<path d="M189.247 205.694C183.63 205.694 178.616 204.29 174.203 201.482C169.79 198.607 166.313 194.462 163.772 189.046C161.232 183.563 159.961 177.077 159.961 169.589C159.961 162.1 161.232 155.648 163.772 150.232C166.313 144.749 169.79 140.604 174.203 137.796C178.616 134.921 183.63 133.483 189.247 133.483C194.863 133.483 199.878 134.921 204.291 137.796C208.771 140.604 212.281 144.749 214.822 150.232C217.362 155.648 218.633 162.1 218.633 169.589C218.633 177.077 217.362 183.563 214.822 189.046C212.281 194.462 208.771 198.607 204.291 201.482C199.878 204.29 194.863 205.694 189.247 205.694ZM189.247 194.361C194.262 194.361 198.206 192.288 201.082 188.143C204.023 183.998 205.494 177.813 205.494 169.589C205.494 161.365 204.023 155.18 201.082 151.035C198.206 146.889 194.262 144.816 189.247 144.816C184.299 144.816 180.354 146.889 177.412 151.035C174.537 155.18 173.1 161.365 173.1 169.589C173.1 177.813 174.537 183.998 177.412 188.143C180.354 192.288 184.299 194.361 189.247 194.361Z" fill="#25242F"/>
</g>
<defs>
<clipPath id="clip0">
<rect width="342" height="342" fill="white" transform="translate(0 0.5)"/>
</clipPath>
</defs>
</svg>
