<svg width="342" height="342" viewBox="0 0 342 342" fill="none" xmlns="http://www.w3.org/2000/svg">
<path d="M341.733 171.153C341.733 265.678 264.75 342 170.5 342C76.2499 342 0.426758 265.678 0.426758 171.153C0.426758 76.6276 76.8303 0 171.079 0C265.328 0 341.733 76.6276 341.733 171.153Z" fill="white"/>
<path d="M126.906 336.498L171.079 171.153L50.3928 292.193C71.5686 313.392 98.0133 328.705 126.906 336.498Z" fill="#E383A5"/>
<path d="M6.24173 215.451L171.079 171.153L6.21906 126.85C-1.31406 154.939 -1.80541 185.333 6.24173 215.451V215.451Z" fill="#E383A5"/>
<path d="M50.3928 50.1126L171.079 171.153L126.912 5.83197C96.8812 13.9017 70.8825 29.5245 50.3928 50.1126V50.1126Z" fill="#E383A5"/>
<path d="M215.254 5.80927L214.548 8.45406L171.079 171.153L291.766 50.1126C270.591 28.915 244.146 13.6021 215.254 5.80927V5.80927Z" fill="#E383A5"/>
<path d="M171.079 171.153L215.248 336.475C245.278 328.405 271.277 312.781 291.766 292.193L171.079 171.153Z" fill="#E383A5"/>
<path d="M335.918 126.856L171.079 171.153L335.941 215.457C343.474 187.367 343.964 156.973 335.918 126.856V126.856Z" fill="#E383A5"/>
<path d="M171.079 311.313C248.262 311.313 310.83 248.562 310.83 171.153C310.83 93.7446 248.262 30.9926 171.079 30.9926C93.8973 30.9926 31.3289 93.7446 31.3289 171.153C31.3289 248.562 93.8973 311.313 171.079 311.313Z" fill="#E383A5"/>
<path d="M171.079 291.813C237.342 291.813 291.059 237.939 291.059 171.481C291.059 105.024 237.342 51.1495 171.079 51.1495C104.816 51.1495 51.0996 105.024 51.0996 171.481C51.0996 237.939 104.816 291.813 171.079 291.813Z" fill="#E383A5"/>
<path d="M171.079 271.268C226.029 271.268 270.575 226.592 270.575 171.481C270.575 116.37 226.029 71.6942 171.079 71.6942C116.13 71.6942 71.5842 116.37 71.5842 171.481C71.5842 226.592 116.13 271.268 171.079 271.268Z" fill="white"/>
<circle opacity="0.1" cx="171.386" cy="170.971" r="115" stroke="black" stroke-width="10"/>
<circle cx="171.386" cy="170.971" r="115" stroke="white" stroke-width="10" stroke-dasharray="40 40"/>
<path d="M167.879 193.094V204.094H116.279V195.394L144.079 168.994C147.212 165.994 149.312 163.394 150.379 161.194C151.512 158.928 152.079 156.694 152.079 154.494C152.079 151.228 150.979 148.728 148.779 146.994C146.579 145.261 143.346 144.394 139.079 144.394C131.946 144.394 126.479 146.828 122.679 151.694L113.579 144.694C116.312 141.028 119.979 138.194 124.579 136.194C129.246 134.128 134.446 133.094 140.179 133.094C147.779 133.094 153.846 134.894 158.379 138.494C162.912 142.094 165.179 146.994 165.179 153.194C165.179 156.994 164.379 160.561 162.779 163.894C161.179 167.228 158.112 171.028 153.579 175.294L134.879 193.094H167.879Z" fill="#25242F"/>
<path d="M197.282 161.194C207.149 161.194 214.449 163.128 219.182 166.994C223.915 170.794 226.282 175.994 226.282 182.594C226.282 186.794 225.249 190.594 223.182 193.994C221.115 197.394 218.015 200.094 213.882 202.094C209.749 204.094 204.649 205.094 198.582 205.094C193.582 205.094 188.749 204.394 184.082 202.994C179.415 201.528 175.482 199.528 172.282 196.994L177.782 186.894C180.382 189.028 183.482 190.728 187.082 191.994C190.749 193.194 194.515 193.794 198.382 193.794C202.982 193.794 206.582 192.861 209.182 190.994C211.849 189.061 213.182 186.428 213.182 183.094C213.182 179.494 211.749 176.794 208.882 174.994C206.082 173.128 201.249 172.194 194.382 172.194H177.482L181.082 134.094H222.182V144.994H192.082L190.582 161.194H197.282Z" fill="#25242F"/>
</svg>
