<svg width="343" height="337" viewBox="0 0 343 337" fill="none" xmlns="http://www.w3.org/2000/svg">
<g clip-path="url(#clip0)">
<path d="M342.119 170.653C342.119 264.902 265.716 336.189 171.466 336.189C77.2158 336.189 0.813232 264.902 0.813232 170.653C0.813232 76.4036 77.2168 0 171.466 0C265.715 0 342.119 76.4036 342.119 170.653Z" fill="white"/>
<path d="M127.292 335.514L171.466 170.653L50.7793 291.339C71.9551 312.476 98.3998 327.744 127.292 335.514Z" fill="#0A5EC1"/>
<path d="M6.6282 214.821L171.466 170.653L6.60554 126.479C-0.927586 154.486 -1.41894 184.791 6.6282 214.821V214.821Z" fill="#0A5EC1"/>
<path d="M50.7793 49.9661L171.466 170.653L127.298 5.81494C97.2677 13.8611 71.269 29.4382 50.7793 49.9661V49.9661Z" fill="#0A5EC1"/>
<path d="M215.641 5.79224L214.934 8.42929L171.466 170.653L292.152 49.966C270.978 28.8304 244.533 13.5623 215.641 5.79224V5.79224Z" fill="#0A5EC1"/>
<path d="M171.466 170.653L215.634 335.491C245.665 327.445 271.664 311.867 292.152 291.339L171.466 170.653Z" fill="#0A5EC1"/>
<path d="M336.305 126.485L171.466 170.653L336.327 214.827C343.86 186.819 344.351 156.514 336.305 126.485V126.485Z" fill="#0A5EC1"/>
<path d="M171.466 310.403C248.648 310.403 311.217 247.835 311.217 170.653C311.217 93.4704 248.648 30.902 171.466 30.902C94.2838 30.902 31.7153 93.4704 31.7153 170.653C31.7153 247.835 94.2838 310.403 171.466 310.403Z" fill="#0A5EC1"/>
<path d="M171.466 290.96C237.729 290.96 291.446 237.243 291.446 170.98C291.446 104.717 237.729 51 171.466 51C105.203 51 51.4861 104.717 51.4861 170.98C51.4861 237.243 105.203 290.96 171.466 290.96Z" fill="#0A5EC1"/>
<path d="M171.466 270.475C226.416 270.475 270.961 225.929 270.961 170.98C270.961 116.03 226.416 71.4846 171.466 71.4846C116.516 71.4846 71.9707 116.03 71.9707 170.98C71.9707 225.929 116.516 270.475 171.466 270.475Z" fill="white"/>
<circle opacity="0.1" cx="171.773" cy="170.971" r="115" stroke="black" stroke-width="10"/>
<circle cx="171.773" cy="170.971" r="115" stroke="white" stroke-width="10" stroke-dasharray="40 40"/>
<path d="M158.654 127.561H162.231C162.231 128.613 162.196 129.981 162.126 131.664C162.056 133.348 161.915 135.066 161.705 136.82C161.495 138.574 161.249 140.257 160.969 141.87C160.688 143.414 160.407 144.606 160.127 145.448H131.297L129.403 160.494H138.136C141.924 160.494 145.361 161.02 148.448 162.072C151.534 163.054 154.164 164.527 156.339 166.491C158.513 168.385 160.197 170.735 161.389 173.541C162.582 176.277 163.178 179.433 163.178 183.01C163.178 187.009 162.406 190.586 160.863 193.743C159.39 196.829 157.356 199.459 154.761 201.634C152.165 203.738 149.114 205.387 145.607 206.579C142.1 207.701 138.312 208.263 134.243 208.263C130.175 208.263 126.457 207.631 123.09 206.369C119.723 205.036 117.023 203.563 114.989 201.95L119.408 191.533H122.459C122.95 192.024 123.511 192.655 124.142 193.427C124.774 194.199 125.44 195.005 126.142 195.847C126.843 196.689 127.509 197.53 128.141 198.372C128.772 199.214 129.333 199.95 129.824 200.582C130.526 200.862 131.157 201.073 131.718 201.213C132.349 201.353 133.156 201.424 134.138 201.424C136.242 201.424 138.206 201.073 140.03 200.371C141.854 199.6 143.397 198.548 144.66 197.215C145.993 195.882 147.045 194.304 147.816 192.48C148.588 190.586 148.974 188.517 148.974 186.272C148.974 183.817 148.483 181.678 147.501 179.854C146.589 177.96 145.326 176.417 143.713 175.224C142.1 174.032 140.206 173.155 138.031 172.594C135.857 171.963 133.577 171.647 131.192 171.647L122.038 171.752L126.247 133.348H153.709L158.654 127.561Z" fill="black"/>
<path d="M172.693 170.174C172.693 163.861 173.359 158.355 174.692 153.655C176.095 148.885 177.989 144.922 180.374 141.765C182.829 138.539 185.705 136.119 189.002 134.505C192.369 132.892 196.016 132.085 199.944 132.085C208.362 132.085 215.025 135.277 219.935 141.66C224.846 147.973 227.301 157.478 227.301 170.174C227.301 176.487 226.599 182.028 225.196 186.798C223.864 191.498 221.935 195.461 219.409 198.688C216.954 201.844 214.008 204.229 210.571 205.843C207.134 207.456 203.381 208.263 199.313 208.263C195.034 208.263 191.246 207.421 187.949 205.737C184.653 203.984 181.847 201.494 179.532 198.267C177.287 194.97 175.569 190.972 174.376 186.272C173.254 181.573 172.693 176.206 172.693 170.174ZM188.475 170.174C188.475 175.224 188.616 179.749 188.896 183.747C189.247 187.745 189.843 191.147 190.685 193.953C191.527 196.689 192.614 198.793 193.947 200.266C195.35 201.739 197.103 202.476 199.208 202.476C201.663 202.476 203.662 201.879 205.205 200.687C206.818 199.495 208.081 197.601 208.993 195.005C209.975 192.41 210.641 189.078 210.992 185.01C211.343 180.941 211.518 175.996 211.518 170.174C211.518 165.124 211.378 160.599 211.097 156.601C210.817 152.603 210.255 149.236 209.414 146.5C208.642 143.694 207.485 141.555 205.942 140.082C204.469 138.609 202.469 137.872 199.944 137.872C197.7 137.872 195.841 138.468 194.368 139.661C192.895 140.853 191.702 142.747 190.79 145.343C189.949 147.938 189.352 151.305 189.002 155.444C188.651 159.512 188.475 164.422 188.475 170.174Z" fill="black"/>
</g>
<defs>
<clipPath id="clip0">
<rect width="341.386" height="336.189" fill="white" transform="translate(0.772949)"/>
</clipPath>
</defs>
</svg>
