<svg width="342" height="343" viewBox="0 0 342 343" fill="none" xmlns="http://www.w3.org/2000/svg">
<g clip-path="url(#clip0)">
<path d="M342.12 171.653C342.12 266.178 265.527 342.5 171 342.5C76.474 342.5 -0.186768 266.178 -0.186768 171.653C-0.186768 77.1276 76.4409 0.5 170.966 0.5C265.492 0.5 342.12 77.1276 342.12 171.653Z" fill="white"/>
<path d="M126.662 336.998L170.966 171.653L49.9253 292.693C71.1632 313.892 97.6855 329.205 126.662 336.998Z" fill="#77A9B4"/>
<path d="M5.64464 215.951L170.966 171.653L5.62191 127.35C-1.9333 155.439 -2.4261 185.833 5.64464 215.951V215.951Z" fill="#77A9B4"/>
<path d="M49.9253 50.6126L170.966 171.653L126.669 6.33197C96.55 14.4017 70.4751 30.0245 49.9253 50.6126V50.6126Z" fill="#77A9B4"/>
<path d="M215.27 6.3092L214.561 8.95399L170.966 171.653L292.006 50.6125C270.769 29.415 244.247 14.102 215.27 6.3092V6.3092Z" fill="#77A9B4"/>
<path d="M170.966 171.653L215.264 336.975C245.382 328.905 271.457 313.281 292.006 292.693L170.966 171.653Z" fill="#77A9B4"/>
<path d="M336.288 127.356L170.966 171.653L336.31 215.957C343.866 187.867 344.357 157.473 336.288 127.356V127.356Z" fill="#77A9B4"/>
<path d="M170.966 311.813C248.374 311.813 311.126 249.062 311.126 171.653C311.126 94.2446 248.374 31.4926 170.966 31.4926C93.5574 31.4926 30.8054 94.2446 30.8054 171.653C30.8054 249.062 93.5574 311.813 170.966 311.813Z" fill="#77A9B4"/>
<path d="M170.966 292.313C237.423 292.313 291.297 238.439 291.297 171.981C291.297 105.524 237.423 51.6495 170.966 51.6495C104.508 51.6495 50.634 105.524 50.634 171.981C50.634 238.439 104.508 292.313 170.966 292.313Z" fill="#77A9B4"/>
<path d="M170.966 271.768C226.077 271.768 270.753 227.092 270.753 171.981C270.753 116.87 226.077 72.1943 170.966 72.1943C115.855 72.1943 71.1787 116.87 71.1787 171.981C71.1787 227.092 115.855 271.768 170.966 271.768Z" fill="white"/>
<circle opacity="0.1" cx="171.274" cy="171.973" r="115.337" stroke="black" stroke-width="10.0293"/>
<circle cx="171.274" cy="171.973" r="115.337" stroke="white" stroke-width="10.0293" stroke-dasharray="40.12 40.12"/>
<path d="M133.314 161.666C143.21 161.666 150.531 163.605 155.278 167.483C160.025 171.294 162.399 176.509 162.399 183.128C162.399 187.341 161.363 191.152 159.29 194.562C157.217 197.972 154.108 200.68 149.963 202.686C145.817 204.691 140.702 205.694 134.618 205.694C129.603 205.694 124.756 204.992 120.075 203.588C115.395 202.117 111.45 200.111 108.241 197.571L113.757 187.441C116.364 189.581 119.474 191.286 123.084 192.556C126.762 193.759 130.539 194.361 134.417 194.361C139.031 194.361 142.641 193.425 145.249 191.553C147.923 189.614 149.261 186.973 149.261 183.63C149.261 180.019 147.823 177.311 144.948 175.506C142.14 173.634 137.292 172.698 130.406 172.698H113.456L117.067 134.486H158.287V145.418H128.099L126.594 161.666H133.314Z" fill="#25242F"/>
<path d="M199.205 205.694C193.589 205.694 188.574 204.29 184.161 201.482C179.748 198.607 176.271 194.462 173.731 189.046C171.19 183.563 169.92 177.077 169.92 169.589C169.92 162.1 171.19 155.648 173.731 150.232C176.271 144.749 179.748 140.604 184.161 137.796C188.574 134.921 193.589 133.483 199.205 133.483C204.822 133.483 209.836 134.921 214.249 137.796C218.729 140.604 222.239 144.749 224.78 150.232C227.321 155.648 228.591 162.1 228.591 169.589C228.591 177.077 227.321 183.563 224.78 189.046C222.239 194.462 218.729 198.607 214.249 201.482C209.836 204.29 204.822 205.694 199.205 205.694ZM199.205 194.361C204.22 194.361 208.165 192.288 211.04 188.143C213.982 183.998 215.453 177.813 215.453 169.589C215.453 161.365 213.982 155.18 211.04 151.035C208.165 146.889 204.22 144.816 199.205 144.816C194.257 144.816 190.312 146.889 187.371 151.035C184.495 155.18 183.058 161.365 183.058 169.589C183.058 177.813 184.495 183.998 187.371 188.143C190.312 192.288 194.257 194.361 199.205 194.361Z" fill="#25242F"/>
</g>
<defs>
<clipPath id="clip0">
<rect width="342" height="342" fill="white" transform="translate(0 0.5)"/>
</clipPath>
</defs>
</svg>
