<svg width="342" height="337" viewBox="0 0 342 337" fill="none" xmlns="http://www.w3.org/2000/svg">
<g clip-path="url(#clip0)">
<path d="M341.506 170.653C341.506 264.902 265.102 336.189 170.852 336.189C76.6022 336.189 0.199707 264.902 0.199707 170.653C0.199707 76.4036 76.6033 0 170.852 0C265.101 0 341.506 76.4036 341.506 170.653Z" fill="white"/>
<path d="M126.679 335.514L170.852 170.653L50.1658 291.339C71.3415 312.476 97.7863 327.744 126.679 335.514Z" fill="#2D2D2D"/>
<path d="M6.01468 214.821L170.852 170.653L5.99201 126.479C-1.54111 154.486 -2.03247 184.791 6.01468 214.821V214.821Z" fill="#2D2D2D"/>
<path d="M50.1658 49.9661L170.852 170.653L126.685 5.81494C96.6542 13.8611 70.6555 29.4382 50.1658 49.9661V49.9661Z" fill="#2D2D2D"/>
<path d="M215.027 5.79224L214.32 8.42929L170.852 170.653L291.539 49.966C270.364 28.8304 243.919 13.5623 215.027 5.79224V5.79224Z" fill="#2D2D2D"/>
<path d="M170.852 170.653L215.021 335.491C245.051 327.445 271.05 311.867 291.539 291.339L170.852 170.653Z" fill="#2D2D2D"/>
<path d="M335.691 126.485L170.852 170.653L335.714 214.827C343.247 186.819 343.737 156.514 335.691 126.485V126.485Z" fill="#2D2D2D"/>
<path d="M170.852 310.403C248.035 310.403 310.603 247.835 310.603 170.653C310.603 93.4704 248.035 30.902 170.852 30.902C93.6703 30.902 31.1018 93.4704 31.1018 170.653C31.1018 247.835 93.6703 310.403 170.852 310.403Z" fill="#2D2D2D"/>
<path d="M170.852 290.96C237.115 290.96 290.832 237.243 290.832 170.98C290.832 104.717 237.115 51 170.852 51C104.589 51 50.8726 104.717 50.8726 170.98C50.8726 237.243 104.589 290.96 170.852 290.96Z" fill="#2D2D2D"/>
<path d="M170.852 270.475C225.802 270.475 270.348 225.929 270.348 170.98C270.348 116.03 225.802 71.4846 170.852 71.4846C115.903 71.4846 71.3572 116.03 71.3572 170.98C71.3572 225.929 115.903 270.475 170.852 270.475Z" fill="white"/>
<circle opacity="0.1" cx="171.159" cy="170.971" r="115" stroke="black" stroke-width="10"/>
<circle cx="171.159" cy="170.971" r="115" stroke="white" stroke-width="10" stroke-dasharray="40 40"/>
<path d="M134.388 202.349H102.452V198.38C103.99 197.703 105.529 197.118 107.067 196.626C108.667 196.072 110.267 195.611 111.867 195.242V152.876L112.236 147.431C110.513 147.984 108.729 148.354 106.883 148.538C105.037 148.723 103.129 148.784 101.16 148.723L100.698 145.308C103.96 144.446 107.498 143.277 111.313 141.8C115.189 140.324 118.758 138.601 122.02 136.632H125.158V195.242C126.696 195.611 128.234 196.072 129.773 196.626C131.311 197.118 132.849 197.703 134.388 198.38V202.349Z" fill="black"/>
<path d="M145.688 170.044C145.688 164.506 146.272 159.676 147.442 155.553C148.672 151.369 150.334 147.892 152.426 145.123C154.579 142.293 157.102 140.17 159.994 138.754C162.948 137.339 166.148 136.632 169.593 136.632C176.977 136.632 182.823 139.431 187.13 145.031C191.438 150.569 193.591 158.906 193.591 170.044C193.591 175.582 192.976 180.443 191.745 184.627C190.576 188.75 188.884 192.227 186.669 195.057C184.515 197.826 181.931 199.918 178.916 201.333C175.901 202.749 172.609 203.456 169.04 203.456C165.286 203.456 161.963 202.718 159.071 201.241C156.179 199.703 153.718 197.518 151.687 194.688C149.718 191.796 148.211 188.288 147.165 184.166C146.18 180.043 145.688 175.336 145.688 170.044ZM159.533 170.044C159.533 174.474 159.656 178.443 159.902 181.951C160.21 185.458 160.733 188.442 161.471 190.904C162.209 193.303 163.163 195.149 164.332 196.442C165.563 197.734 167.101 198.38 168.947 198.38C171.101 198.38 172.855 197.857 174.208 196.811C175.624 195.765 176.731 194.103 177.531 191.827C178.393 189.55 178.977 186.627 179.285 183.058C179.592 179.489 179.746 175.151 179.746 170.044C179.746 165.614 179.623 161.645 179.377 158.137C179.131 154.63 178.639 151.676 177.9 149.277C177.223 146.815 176.208 144.939 174.854 143.646C173.562 142.354 171.809 141.708 169.593 141.708C167.624 141.708 165.994 142.231 164.702 143.277C163.409 144.323 162.363 145.985 161.563 148.261C160.825 150.538 160.302 153.492 159.994 157.122C159.687 160.691 159.533 164.998 159.533 170.044Z" fill="black"/>
<path d="M197.877 170.044C197.877 164.506 198.461 159.676 199.63 155.553C200.861 151.369 202.522 147.892 204.614 145.123C206.768 142.293 209.291 140.17 212.183 138.754C215.137 137.339 218.336 136.632 221.782 136.632C229.166 136.632 235.012 139.431 239.319 145.031C243.626 150.569 245.78 158.906 245.78 170.044C245.78 175.582 245.165 180.443 243.934 184.627C242.765 188.75 241.073 192.227 238.858 195.057C236.704 197.826 234.119 199.918 231.104 201.333C228.089 202.749 224.797 203.456 221.228 203.456C217.475 203.456 214.152 202.718 211.26 201.241C208.368 199.703 205.907 197.518 203.876 194.688C201.907 191.796 200.399 188.288 199.353 184.166C198.369 180.043 197.877 175.336 197.877 170.044ZM211.722 170.044C211.722 174.474 211.845 178.443 212.091 181.951C212.398 185.458 212.921 188.442 213.66 190.904C214.398 193.303 215.352 195.149 216.521 196.442C217.752 197.734 219.29 198.38 221.136 198.38C223.29 198.38 225.043 197.857 226.397 196.811C227.812 195.765 228.92 194.103 229.72 191.827C230.581 189.55 231.166 186.627 231.474 183.058C231.781 179.489 231.935 175.151 231.935 170.044C231.935 165.614 231.812 161.645 231.566 158.137C231.32 154.63 230.827 151.676 230.089 149.277C229.412 146.815 228.397 144.939 227.043 143.646C225.751 142.354 223.997 141.708 221.782 141.708C219.813 141.708 218.182 142.231 216.89 143.277C215.598 144.323 214.552 145.985 213.752 148.261C213.014 150.538 212.491 153.492 212.183 157.122C211.875 160.691 211.722 164.998 211.722 170.044Z" fill="black"/>
</g>
<defs>
<clipPath id="clip0">
<rect width="341.386" height="336.189" fill="white" transform="translate(0.159424)"/>
</clipPath>
</defs>
</svg>
