<svg width="342" height="337" viewBox="0 0 342 337" fill="none" xmlns="http://www.w3.org/2000/svg">
<g clip-path="url(#clip0)">
<path d="M341.346 170.653C341.346 264.902 264.943 336.189 170.693 336.189C76.4428 336.189 0.0402832 264.902 0.0402832 170.653C0.0402832 76.4036 76.4438 0 170.693 0C264.942 0 341.346 76.4036 341.346 170.653Z" fill="white"/>
<path d="M126.519 335.514L170.693 170.653L50.0063 291.339C71.1821 312.476 97.6269 327.744 126.519 335.514Z" fill="#504B83"/>
<path d="M5.85525 214.821L170.693 170.653L5.83259 126.479C-1.70053 154.486 -2.19189 184.791 5.85525 214.821V214.821Z" fill="#504B83"/>
<path d="M50.0063 49.9661L170.693 170.653L126.525 5.81494C96.4948 13.8611 70.4961 29.4382 50.0063 49.9661V49.9661Z" fill="#504B83"/>
<path d="M214.868 5.79224L214.161 8.42929L170.693 170.653L291.379 49.966C270.205 28.8304 243.76 13.5623 214.868 5.79224V5.79224Z" fill="#504B83"/>
<path d="M170.693 170.653L214.861 335.491C244.892 327.445 270.891 311.867 291.379 291.339L170.693 170.653Z" fill="#504B83"/>
<path d="M335.532 126.485L170.693 170.653L335.554 214.827C343.087 186.819 343.578 156.514 335.532 126.485V126.485Z" fill="#504B83"/>
<path d="M170.693 310.403C247.875 310.403 310.444 247.835 310.444 170.653C310.444 93.4704 247.875 30.902 170.693 30.902C93.5109 30.902 30.9424 93.4704 30.9424 170.653C30.9424 247.835 93.5109 310.403 170.693 310.403Z" fill="white"/>
<path d="M170.693 290.96C236.956 290.96 290.673 237.243 290.673 170.98C290.673 104.717 236.956 51 170.693 51C104.43 51 50.7131 104.717 50.7131 170.98C50.7131 237.243 104.43 290.96 170.693 290.96Z" fill="white"/>
<circle opacity="0.1" cx="171" cy="170.971" r="115" stroke="black" stroke-width="10"/>
<circle cx="171" cy="170.971" r="115" stroke="#504B83" stroke-width="10" stroke-dasharray="40 40"/>
<path d="M159.038 207H122.633V202.476C124.387 201.704 126.14 201.038 127.894 200.477C129.718 199.845 131.541 199.319 133.365 198.898V150.603L133.786 144.396C131.822 145.027 129.788 145.448 127.683 145.658C125.579 145.869 123.405 145.939 121.16 145.869L120.634 141.976C124.352 140.994 128.385 139.661 132.734 137.977C137.153 136.294 141.221 134.33 144.939 132.085H148.517V198.898C150.27 199.319 152.024 199.845 153.777 200.477C155.531 201.038 157.285 201.704 159.038 202.476V207Z" fill="black"/>
<path d="M171.92 170.174C171.92 163.861 172.586 158.354 173.919 153.655C175.322 148.885 177.216 144.922 179.601 141.765C182.056 138.539 184.932 136.119 188.229 134.505C191.596 132.892 195.243 132.085 199.171 132.085C207.589 132.085 214.252 135.277 219.163 141.66C224.073 147.973 226.528 157.478 226.528 170.174C226.528 176.487 225.826 182.028 224.423 186.798C223.091 191.498 221.162 195.461 218.637 198.688C216.181 201.844 213.235 204.229 209.798 205.843C206.361 207.456 202.608 208.263 198.54 208.263C194.261 208.263 190.473 207.421 187.177 205.737C183.88 203.984 181.074 201.494 178.759 198.267C176.514 194.97 174.796 190.972 173.603 186.272C172.481 181.572 171.92 176.206 171.92 170.174ZM187.703 170.174C187.703 175.224 187.843 179.749 188.123 183.747C188.474 187.745 189.07 191.147 189.912 193.953C190.754 196.689 191.841 198.793 193.174 200.266C194.577 201.739 196.33 202.476 198.435 202.476C200.89 202.476 202.889 201.879 204.432 200.687C206.046 199.494 207.308 197.601 208.22 195.005C209.202 192.41 209.868 189.078 210.219 185.01C210.57 180.941 210.745 175.996 210.745 170.174C210.745 165.123 210.605 160.599 210.324 156.601C210.044 152.603 209.483 149.236 208.641 146.5C207.869 143.694 206.712 141.555 205.169 140.082C203.696 138.609 201.697 137.872 199.171 137.872C196.927 137.872 195.068 138.468 193.595 139.661C192.122 140.853 190.929 142.747 190.017 145.343C189.176 147.938 188.579 151.305 188.229 155.443C187.878 159.512 187.703 164.422 187.703 170.174Z" fill="black"/>
</g>
<defs>
<clipPath id="clip0">
<rect width="341.386" height="336.189" fill="white"/>
</clipPath>
</defs>
</svg>
