<svg width="76" height="76" viewBox="0 0 76 76" fill="none" xmlns="http://www.w3.org/2000/svg">
<path d="M70.7068 35.7473C67.6891 31.267 63.1528 28.3042 57.934 27.4044C57.6254 27.3511 57.3155 27.3055 57.005 27.2675C58.0169 24.9011 58.5419 22.3572 58.5419 19.7573C58.5419 8.86306 49.3267 0 37.9999 0C26.6731 0 17.458 8.86306 17.458 19.7573C17.458 22.3575 17.9828 24.901 18.995 27.2675C18.6845 27.3055 18.3746 27.3511 18.066 27.4044C12.847 28.3042 8.31092 31.267 5.29304 35.7473C2.29579 40.197 1.15683 45.6154 2.08605 51.0046C3.01512 56.3938 5.90282 61.118 10.2172 64.3071C14.5611 67.518 19.8276 68.7911 25.0462 67.891C26.8184 67.5855 28.5266 67.0342 30.1283 66.258C29.6275 67.8656 29.052 68.7819 28.5543 69.1322L27.6093 69.7974V76H48.3906V69.7974L47.4455 69.1322C46.9477 68.7819 46.3722 67.8656 45.8714 66.258C47.4731 67.0342 49.1813 67.5855 50.9535 67.891C56.1724 68.791 61.4387 67.518 65.7825 64.3071C70.0967 61.1181 72.9844 56.3938 73.9136 51.0048C74.843 45.6156 73.704 40.197 70.7068 35.7473Z" fill="#25242F"/>
</svg>
