<svg width="76" height="76" viewBox="0 0 76 76" fill="none" xmlns="http://www.w3.org/2000/svg">
<path d="M70.7069 35.7473C67.6892 31.267 63.1529 28.3042 57.9341 27.4044C57.6255 27.3511 57.3156 27.3055 57.0051 27.2675C58.017 24.9011 58.542 22.3572 58.542 19.7573C58.542 8.86306 49.3268 0 38 0C26.6732 0 17.4581 8.86306 17.4581 19.7573C17.4581 22.3575 17.9829 24.901 18.9951 27.2675C18.6846 27.3055 18.3747 27.3511 18.0661 27.4044C12.8471 28.3042 8.31104 31.267 5.29316 35.7473C2.29591 40.197 1.15695 45.6154 2.08617 51.0046C3.01524 56.3938 5.90294 61.118 10.2173 64.3071C14.5612 67.518 19.8277 68.7911 25.0463 67.891C26.8185 67.5855 28.5267 67.0342 30.1284 66.258C29.6276 67.8656 29.0521 68.7819 28.5544 69.1322L27.6094 69.7974V76H48.3907V69.7974L47.4456 69.1322C46.9478 68.7819 46.3723 67.8656 45.8715 66.258C47.4732 67.0342 49.1814 67.5855 50.9536 67.891C56.1725 68.791 61.4388 67.518 65.7826 64.3071C70.0968 61.1181 72.9845 56.3938 73.9137 51.0048C74.8431 45.6156 73.7041 40.197 70.7069 35.7473Z" fill="black"/>
</svg>
