<svg width="76" height="76" viewBox="0 0 76 76" fill="none" xmlns="http://www.w3.org/2000/svg">
<g clip-path="url(#clip0)">
<path d="M72.6361 13.9871C67.2131 5.12954 59.6546 3.22226 54.2687 3.18204C49.6759 3.15146 45.1247 4.46647 41.1212 6.99154L38 8.94676L34.8846 6.99525C30.8753 4.46617 26.3288 3.14641 21.7312 3.18204C16.3453 3.22226 8.78706 5.12954 3.36389 13.9871C-1.00818 21.1284 -1.12352 29.5983 3.04757 37.2251C6.27356 43.124 11.278 47.8328 16.1175 52.3862C16.97 53.1884 17.7751 53.9459 18.5761 54.7149C21.5779 57.5973 24.6178 60.3765 27.5576 63.0644C30.4772 65.7337 33.4961 68.4941 36.4585 71.3383L38 72.8187L39.5417 71.3385C42.5039 68.4941 45.523 65.7339 48.4426 63.0645C51.3824 60.3769 54.4221 57.5974 57.4239 54.7151C58.2249 53.9459 59.03 53.1884 59.8825 52.3864C64.722 47.8328 69.7263 43.1242 72.9524 37.2253C77.1237 29.5983 77.0082 21.1283 72.6361 13.9871Z" fill="#DD7678"/>
</g>
<defs>
<clipPath id="clip0">
<rect width="76" height="76" fill="white"/>
</clipPath>
</defs>
</svg>
