<svg width="76" height="76" viewBox="0 0 76 76" fill="none" xmlns="http://www.w3.org/2000/svg">
<path d="M71.3393 33.9521C68.2628 28.3266 63.4969 23.8423 58.8879 19.5057C58.0774 18.7431 57.3116 18.0227 56.5502 17.2915C53.6944 14.5495 50.8031 11.906 48.0068 9.34948C45.2303 6.81091 42.3594 4.18609 39.5431 1.48185L38.0001 0L36.4571 1.4817C33.6406 4.18609 30.7697 6.81091 27.9935 9.34934C25.1972 11.9059 22.3059 14.5494 19.4501 17.2913C18.6888 18.0224 17.9232 18.7428 17.1125 19.5054C12.5036 23.842 7.73769 28.3265 4.66103 33.9521C0.674443 41.2419 0.785029 49.3377 4.96458 56.1643C10.1489 64.6318 17.3763 66.455 22.5266 66.4933C25.2051 66.512 27.8815 66.0474 30.4326 65.1289C29.8722 67.4429 29.1541 68.7019 28.5488 69.1279L27.6029 69.7935V76H48.3971V69.7935L47.4512 69.1279C46.8459 68.7019 46.1281 67.443 45.5674 65.129C48.1185 66.0476 50.7972 66.5145 53.4732 66.4935C58.6235 66.455 65.8511 64.6318 71.0353 56.1644C75.2151 49.3377 75.3257 41.2419 71.3393 33.9521Z" fill="#25242F"/>
</svg>
