<svg width="76" height="76" viewBox="0 0 76 76" fill="none" xmlns="http://www.w3.org/2000/svg">
<path d="M71.3392 33.9521C68.2627 28.3266 63.4968 23.8423 58.8878 19.5057C58.0773 18.7431 57.3115 18.0227 56.5501 17.2915C53.6943 14.5495 50.803 11.906 48.0067 9.34948C45.2302 6.81091 42.3593 4.18609 39.543 1.48185L38 0L36.457 1.4817C33.6405 4.18609 30.7696 6.81091 27.9934 9.34934C25.1971 11.9059 22.3058 14.5494 19.45 17.2913C18.6887 18.0224 17.9231 18.7428 17.1124 19.5054C12.5035 23.842 7.73757 28.3265 4.66091 33.9521C0.674321 41.2419 0.784907 49.3377 4.96446 56.1643C10.1488 64.6318 17.3762 66.455 22.5265 66.4933C25.205 66.512 27.8814 66.0474 30.4325 65.1289C29.8721 67.4429 29.154 68.7019 28.5487 69.1279L27.6028 69.7935V76H48.397V69.7935L47.4511 69.1279C46.8458 68.7019 46.128 67.443 45.5673 65.129C48.1184 66.0476 50.7971 66.5145 53.4731 66.4935C58.6234 66.455 65.851 64.6318 71.0352 56.1644C75.215 49.3377 75.3256 41.2419 71.3392 33.9521Z" fill="black"/>
</svg>
